SplineFontDB: 3.0
FontName: KacstQurn
FullName: KacstQurn
FamilyName: KacstQurn
Weight: Book
Copyright: KACST holds the copyright of the included Arabic font which is donated under GPL by KACST. \nURW Design and Development holds the copyright of the included Latin font which is donated under GPL by URW. 
Version: 1
ItalicAngle: 0
UnderlinePosition: -800
UnderlineWidth: 100
Ascent: 1638
Descent: 410
LayerCount: 2
Layer: 0 1 "Back" 
Layer: 1 1 "Fore" 
NeedsXUIDChange: 1
XUID: [1021 853 20587234 5299104]
FSType: 0
OS2Version: 1
OS2_WeightWidthSlopeOnly: 0
OS2_UseTypoMetrics: 1
CreationTime: 1084331780
ModificationTime: 1215812585
PfmFamily: 81
TTFWeight: 400
TTFWidth: 5
LineGap: 0
VLineGap: 0
Panose: 0 0 0 0 0 0 0 0 0 0
OS2TypoAscent: -38
OS2TypoAOffset: 1
OS2TypoDescent: -190
OS2TypoDOffset: 1
OS2TypoLinegap: 59
OS2WinAscent: -484
OS2WinAOffset: 1
OS2WinDescent: -336
OS2WinDOffset: 1
HheadAscent: -484
HheadAOffset: 1
HheadDescent: 336
HheadDOffset: 1
OS2SubXSize: 1434
OS2SubYSize: 1331
OS2SubXOff: 0
OS2SubYOff: 293
OS2SupXSize: 1434
OS2SupYSize: 1331
OS2SupXOff: 0
OS2SupYOff: 928
OS2StrikeYSize: 102
OS2StrikeYPos: 530
OS2Vendor: 'Glyf'
OS2CodePages: 00000040.00000000
OS2UnicodeRanges: 00002000.00000000.00000000.00000000
Lookup: 1 1 0 "'isol' Isolated Forms in Arabic lookup 0"  {"'isol' Isolated Forms in Arabic lookup 0 subtable"  } ['isol' ('arab' <'dflt' > ) ]
Lookup: 1 1 0 "'init' Initial Forms in Arabic lookup 1"  {"'init' Initial Forms in Arabic lookup 1 subtable"  } ['init' ('arab' <'dflt' > ) ]
Lookup: 1 1 0 "'medi' Medial Forms in Arabic lookup 2"  {"'medi' Medial Forms in Arabic lookup 2 subtable"  } ['medi' ('arab' <'dflt' > ) ]
Lookup: 1 1 0 "'fina' Terminal Forms in Arabic lookup 3"  {"'fina' Terminal Forms in Arabic lookup 3 subtable"  } ['fina' ('arab' <'dflt' > ) ]
Lookup: 4 1 1 "'liga' Standard Ligatures in Arabic lookup 4"  {"'liga' Standard Ligatures in Arabic lookup 4 subtable"  } ['liga' ('arab' <'dflt' > ) ]

StartChar: arabiccomma
Encoding: 1548 1548 1
Width: 1158
Flags: W
LayerCount: 2
Fore
SplineSet
803 127 m 0,0,1
 803 97 803 97 793 71 c 128,-1,2
 783 45 783 45 763.5 25.5 c 128,-1,3
 744 6 744 6 715.5 -5 c 128,-1,4
 687 -16 687 -16 650 -16 c 0,5,6
 563 -16 563 -16 494 77 c 0,7,8
 419 174 419 174 419 307 c 0,9,10
 419 432 419 432 490 532 c 0,11,12
 516 568 516 568 546.5 595 c 128,-1,13
 577 622 577 622 614 641 c 1,14,-1
 653 653 l 1,15,16
 600 618 600 618 563 541 c 0,17,18
 524 460 524 460 524 386 c 2,19,-1
 525 347 l 2,20,21
 525 331 525 331 534.5 303 c 128,-1,22
 544 275 544 275 567 239 c 1,23,-1
 614 266 l 1,24,-1
 636 274 l 1,25,-1
 663 277 l 2,26,27
 719 277 719 277 763 233 c 0,28,29
 803 190 803 190 803 127 c 0,0,1
EndSplineSet
EndChar

StartChar: arabicsemicolon
Encoding: 1563 1563 2
Width: 1108
Flags: W
LayerCount: 2
Fore
SplineSet
754 482 m 0,0,1
 754 455 754 455 744 429.5 c 128,-1,2
 734 404 734 404 715.5 385 c 128,-1,3
 697 366 697 366 669.5 354.5 c 128,-1,4
 642 343 642 343 607 343 c 0,5,6
 526 343 526 343 454 435 c 0,7,8
 381 529 381 529 381 650 c 0,9,10
 381 776 381 776 450 868 c 0,11,12
 474 903 474 903 504 929 c 128,-1,13
 534 955 534 955 569 974 c 1,14,-1
 610 985 l 1,15,16
 560 954 560 954 517 876 c 0,17,18
 500 842 500 842 492.5 805 c 128,-1,19
 485 768 485 768 485 729 c 0,20,21
 485 656 485 656 528 586 c 1,22,-1
 569 612 l 1,23,24
 582 617 582 617 594 620.5 c 128,-1,25
 606 624 606 624 617 625 c 0,26,27
 646 625 646 625 671 613.5 c 128,-1,28
 696 602 696 602 714.5 582.5 c 128,-1,29
 733 563 733 563 743.5 537 c 128,-1,30
 754 511 754 511 754 482 c 0,0,1
701 96 m 0,31,32
 701 73 701 73 692 52.5 c 128,-1,33
 683 32 683 32 668 17 c 128,-1,34
 653 2 653 2 632.5 -7 c 128,-1,35
 612 -16 612 -16 589 -16 c 0,36,37
 548 -16 548 -16 515 19 c 0,38,39
 482 53 482 53 482 96 c 0,40,41
 482 137 482 137 515 170 c 0,42,43
 547 205 547 205 589 205 c 256,44,45
 631 205 631 205 666 172 c 0,46,47
 701 140 701 140 701 96 c 0,31,32
EndSplineSet
EndChar

StartChar: arabicquestionmark
Encoding: 1567 1567 3
Width: 1014
Flags: W
LayerCount: 2
Fore
SplineSet
958 1257 m 1,0,-1
 815 1257 l 1,1,2
 815 1331 815 1331 805.5 1398.5 c 128,-1,3
 796 1466 796 1466 767.5 1517 c 128,-1,4
 739 1568 739 1568 686 1598.5 c 128,-1,5
 633 1629 633 1629 546 1629 c 0,6,7
 428 1629 428 1629 367 1544 c 0,8,9
 307 1461 307 1461 307 1331 c 0,10,11
 307 1208 307 1208 357 1113 c 0,12,13
 411 1018 411 1018 482 927 c 0,14,15
 532 861 532 861 568.5 802.5 c 128,-1,16
 605 744 605 744 627.5 683.5 c 128,-1,17
 650 623 650 623 659 554.5 c 128,-1,18
 668 486 668 486 663 399 c 1,19,-1
 530 399 l 1,20,21
 533 483 533 483 526 541 c 128,-1,22
 519 599 519 599 500 648 c 128,-1,23
 481 697 481 697 448.5 744.5 c 128,-1,24
 416 792 416 792 368 857 c 0,25,26
 304 940 304 940 263.5 1005.5 c 128,-1,27
 223 1071 223 1071 200 1126.5 c 128,-1,28
 177 1182 177 1182 168.5 1233 c 128,-1,29
 160 1284 160 1284 160 1339 c 0,30,31
 160 1448 160 1448 193 1527 c 128,-1,32
 226 1606 226 1606 281 1657.5 c 128,-1,33
 336 1709 336 1709 407.5 1733.5 c 128,-1,34
 479 1758 479 1758 556 1758 c 0,35,36
 641 1758 641 1758 704.5 1735 c 128,-1,37
 768 1712 768 1712 813 1673.5 c 128,-1,38
 858 1635 858 1635 887.5 1584 c 128,-1,39
 917 1533 917 1533 933 1477.5 c 128,-1,40
 949 1422 949 1422 954.5 1365 c 128,-1,41
 960 1308 960 1308 958 1257 c 1,0,-1
676 0 m 1,42,-1
 511 0 l 1,43,-1
 511 205 l 1,44,-1
 676 205 l 1,45,-1
 676 0 l 1,42,-1
EndSplineSet
EndChar

StartChar: hamza
Encoding: 1569 1569 4
Width: 871
Flags: W
AnchorPoint: "ArabicBelow" 435 -260 basechar 0
AnchorPoint: "ArabicAbove" 435 856 basechar 0
LayerCount: 2
Fore
SplineSet
660 526 m 1,0,1
 652 483 652 483 629 447 c 128,-1,2
 606 411 606 411 578 385 c 1,3,4
 563 388 563 388 550.5 395.5 c 128,-1,5
 525.5 410.5 l 128,-1,6
 513 418 513 418 500 424 c 128,-1,7
 487 430 487 430 479.5 430 c 128,-1,8
 472 430 472 430 462.5 427.5 c 128,-1,9
 453 425 453 425 434 420 c 1,10,11
 427 412 427 412 417 405 c 128,-1,12
 407 398 407 398 398 390.5 c 128,-1,13
 389 383 389 383 382.5 375.5 c 128,-1,14
 376 368 376 368 376 359 c 0,15,16
 376 347 376 347 386 337 c 0,17,18
 421 291 421 291 466.5 275 c 128,-1,19
 512 259 512 259 563 259 c 0,20,21
 618 259 618 259 674 268.5 c 128,-1,22
 730 278 730 278 785 278 c 2,23,-1
 806 278 l 2,24,25
 811 278 811 278 816 277.5 c 128,-1,26
 821 277 821 277 828 276 c 0,27,28
 849 270 849 270 849 253 c 0,29,30
 849 242 849 242 842.5 231 c 128,-1,31
 836 220 836 220 829 209 c 2,32,-1
 827 205 l 2,33,34
 808 173 808 173 780 155 c 128,-1,35
 752 137 752 137 719 128 c 128,-1,36
 686 119 686 119 650 116 c 128,-1,37
 578 110 l 128,-1,38
 542 107 542 107 507.5 101.5 c 128,-1,39
 473 96 473 96 443 82 c 0,40,41
 420 70 420 70 400 54 c 128,-1,42
 380 38 380 38 361 24 c 128,-1,43
 342 10 342 10 322 0 c 128,-1,44
 302 -10 302 -10 279 -10 c 1,45,46
 278 -9 278 -9 278 1 c 0,47,48
 278 17 278 17 284.5 32 c 128,-1,49
 291 47 291 47 299.5 61 c 128,-1,50
 308 75 308 75 314.5 89.5 c 128,-1,51
 321 104 321 104 321 120 c 256,52,53
 321 136 321 136 316 144 c 1,54,55
 298 162 298 162 278 178 c 128,-1,56
 258 194 258 194 240.5 210.5 c 128,-1,57
 223 227 223 227 212 245 c 128,-1,58
 201 263 201 263 201 285 c 0,59,60
 201 312 201 312 233 350 c 0,61,62
 260 382 260 382 295.5 426 c 128,-1,63
 331 470 331 470 371.5 510 c 128,-1,64
 412 550 412 550 455 578 c 128,-1,65
 498 606 498 606 541 606 c 0,66,67
 572 606 572 606 602 588.5 c 128,-1,68
 632 571 632 571 660 526 c 1,0,1
EndSplineSet
Substitution2: "'isol' Isolated Forms in Arabic lookup 0 subtable" hamzaisolated
EndChar

StartChar: alefwithmaddaabove
Encoding: 1570 1570 5
Width: 620
Flags: W
AnchorPoint: "ArabicBelow" 310 -245 basechar 0
AnchorPoint: "ArabicAbove" 310 2191 basechar 0
LayerCount: 2
Fore
SplineSet
694 1912 m 2,0,1
 650 1873 650 1873 601.5 1835.5 c 128,-1,2
 553 1798 553 1798 502.5 1767 c 128,-1,3
 452 1736 452 1736 400 1714 c 128,-1,4
 348 1692 348 1692 296.5 1683.5 c 128,-1,5
 245 1675 245 1675 195 1682.5 c 128,-1,6
 145 1690 145 1690 99 1719 c 1,7,-1
 5 1648 l 1,8,9
 -8 1648 -8 1648 -17 1655.5 c 128,-1,10
 -26 1663 -26 1663 -31 1686 c 1,11,12
 -3 1732 -3 1732 15.5 1761 c 128,-1,13
 34 1790 34 1790 46 1806 c 128,-1,14
 58 1822 58 1822 64.5 1828 c 128,-1,15
 71 1834 71 1834 74 1834 c 1,16,17
 135 1806 135 1806 167 1796.5 c 128,-1,18
 199 1787 199 1787 222 1787 c 0,19,20
 233 1787 233 1787 248 1789 c 128,-1,21
 263 1791 263 1791 285.5 1796.5 c 128,-1,22
 308 1802 308 1802 341.5 1812.5 c 128,-1,23
 375 1823 375 1823 423.5 1840 c 128,-1,24
 472 1857 472 1857 538.5 1881.5 c 128,-1,25
 605 1906 605 1906 694 1941 c 1,26,-1
 718 1934 l 1,27,-1
 694 1912 l 2,0,1
292 1339 m 0,28,29
 292 1373 292 1373 293.5 1416 c 128,-1,30
 295 1459 295 1459 293 1495.5 c 128,-1,31
 291 1532 291 1532 283.5 1554.5 c 128,-1,32
 276 1577 276 1577 259 1572 c 1,33,34
 241 1558 241 1558 226.5 1533 c 128,-1,35
 212 1508 212 1508 199 1479.5 c 128,-1,36
 186 1451 186 1451 174 1422.5 c 128,-1,37
 162 1394 162 1394 149 1373 c 1,38,39
 158 1179 158 1179 161 1007.5 c 128,-1,40
 164 836 164 836 164.5 672.5 c 128,-1,41
 165 509 165 509 164.5 345.5 c 128,-1,42
 164 182 164 182 166 5 c 1,43,44
 173 6 173 6 182.5 19 c 128,-1,45
 192 32 192 32 202.5 51.5 c 128,-1,46
 213 71 213 71 224 95 c 128,-1,47
 235 119 235 119 246 142 c 1,48,49
 257 202 257 202 266 256 c 128,-1,50
 275 310 275 310 282 365 c 0,51,52
 298 498 298 498 299.5 616 c 128,-1,53
 301 734 301 734 297 849.5 c 128,-1,54
 293 965 293 965 289.5 1084.5 c 128,-1,55
 286 1204 286 1204 292 1339 c 0,28,29
EndSplineSet
Substitution2: "'fina' Terminal Forms in Arabic lookup 3 subtable" alefwithmaddaabovefinal
Substitution2: "'isol' Isolated Forms in Arabic lookup 0 subtable" alefwithmaddaaboveisolated
EndChar

StartChar: alefwithhamzaabove
Encoding: 1571 1571 6
Width: 455
Flags: W
AnchorPoint: "ArabicBelow" 227 -245 basechar 0
AnchorPoint: "ArabicAbove" 227 2145 basechar 0
LayerCount: 2
Fore
SplineSet
290 1851 m 1,0,1
 276 1799 276 1799 243 1772 c 1,2,3
 235 1773 235 1773 228.5 1777.5 c 128,-1,4
 222 1782 222 1782 215 1786.5 c 128,-1,5
 208 1791 208 1791 201 1794.5 c 128,-1,6
 194 1798 194 1798 185 1798 c 1,7,8
 189 1798 189 1798 183.5 1796 c 128,-1,9
 178 1794 178 1794 164 1791 c 1,10,11
 156 1783 156 1783 143 1776 c 128,-1,12
 130 1769 130 1769 130 1758 c 0,13,14
 130 1753 130 1753 136 1746 c 0,15,16
 156 1720 156 1720 180.5 1711 c 128,-1,17
 205 1702 205 1702 233 1702 c 2,18,-1
 355 1713 l 1,19,-1
 369 1713 l 2,20,21
 382 1713 382 1713 383 1712 c 1,22,23
 395 1707 395 1707 395 1699 c 0,24,25
 395 1688 395 1688 383 1673 c 0,26,27
 365 1646 365 1646 338.5 1636 c 128,-1,28
 312 1626 312 1626 282.5 1623 c 128,-1,29
 253 1620 253 1620 223.5 1618 c 128,-1,30
 194 1616 194 1616 169 1604 c 0,31,32
 156 1598 156 1598 144.5 1589 c 128,-1,33
 133 1580 133 1580 121.5 1572 c 128,-1,34
 110 1564 110 1564 99.5 1558 c 128,-1,35
 89 1552 89 1552 77 1552 c 1,36,-1
 77 1559 l 2,37,38
 77 1568 77 1568 80.5 1576 c 128,-1,39
 84 1584 84 1584 88.5 1591.5 c 128,-1,40
 93 1599 93 1599 96.5 1607.5 c 128,-1,41
 100 1616 100 1616 100 1625 c 1,42,43
 99 1631 99 1631 97 1638 c 1,44,45
 87 1648 87 1648 76 1657 c 128,-1,46
 65 1666 65 1666 55.5 1675.5 c 128,-1,47
 46 1685 46 1685 40 1695 c 128,-1,48
 34 1705 34 1705 34 1717 c 0,49,50
 34 1732 34 1732 51 1752 c 0,51,52
 66 1769 66 1769 86 1793.5 c 128,-1,53
 106 1818 106 1818 129 1840.5 c 128,-1,54
 152 1863 152 1863 176.5 1879 c 128,-1,55
 201 1895 201 1895 224 1895 c 0,56,57
 242 1895 242 1895 258 1885.5 c 128,-1,58
 274 1876 274 1876 290 1851 c 1,0,1
292 1339 m 2,59,-1
 294 1451 l 2,60,61
 294 1475 294 1475 293 1497 c 128,-1,62
 292 1519 292 1519 288.5 1536 c 128,-1,63
 285 1553 285 1553 279 1563 c 128,-1,64
 273 1573 273 1573 264 1573 c 0,65,66
 263 1573 263 1573 262.5 1572.5 c 128,-1,67
 262 1572 262 1572 259 1572 c 1,68,69
 241 1558 241 1558 226.5 1533 c 128,-1,70
 212 1508 212 1508 199 1479.5 c 128,-1,71
 186 1451 186 1451 174 1422.5 c 128,-1,72
 162 1394 162 1394 149 1373 c 1,73,74
 155 1261 155 1261 158.5 1157 c 128,-1,75
 162 1053 162 1053 163.5 954 c 128,-1,76
 165 855 165 855 165.5 760 c 128,-1,77
 166 665 166 665 166 571 c 2,78,-1
 166 199 l 1,79,-1
 166 5 l 1,80,81
 173 6 173 6 182.5 19 c 128,-1,82
 192 32 192 32 202.5 51.5 c 128,-1,83
 213 71 213 71 224 95 c 128,-1,84
 235 119 235 119 246 142 c 1,85,86
 257 202 257 202 266 256 c 128,-1,87
 275 310 275 310 282 365 c 0,88,89
 293 453 293 453 296 530 c 128,-1,90
 299 607 299 607 299 682 c 0,91,92
 299 804 299 804 294 921.5 c 128,-1,93
 289 1039 289 1039 289 1167 c 0,94,95
 289 1249 289 1249 292 1339 c 2,59,-1
EndSplineSet
Substitution2: "'fina' Terminal Forms in Arabic lookup 3 subtable" alefwithhamzaabovefinal
Substitution2: "'isol' Isolated Forms in Arabic lookup 0 subtable" alefwithhamzaaboveisolated
EndChar

StartChar: wawwithhamzaabove
Encoding: 1572 1572 7
Width: 854
Flags: W
AnchorPoint: "ArabicBelow" 427 -806 basechar 0
AnchorPoint: "ArabicAbove" 427 1522 basechar 0
LayerCount: 2
Fore
SplineSet
860.5 312 m 0,0,1
 860.5 225 860.5 225 838.5 116.5 c 128,-1,2
 816.5 8 816.5 8 774.5 -124 c 1,3,4
 717.5 -222 717.5 -222 661 -301.5 c 128,-1,5
 604.5 -381 604.5 -381 542.5 -437.5 c 128,-1,6
 480.5 -494 480.5 -494 408.5 -525 c 128,-1,7
 336.5 -556 336.5 -556 249.5 -556 c 0,8,9
 204.5 -556 204.5 -556 109 -543.5 c 128,-1,10
 13.5 -531 13.5 -531 -145.5 -499 c 0,11,12
 -168.5 -496 -168.5 -496 -171.5 -481 c 128,-1,13
 -174.5 -466 -174.5 -466 -159.5 -451 c 1,14,15
 -60.5 -442 -60.5 -442 14 -434 c 128,-1,16
 88.5 -426 88.5 -426 145.5 -416 c 128,-1,17
 202.5 -406 202.5 -406 246.5 -394 c 128,-1,18
 290.5 -382 290.5 -382 329.5 -364.5 c 128,-1,19
 368.5 -347 368.5 -347 406.5 -324 c 128,-1,20
 444.5 -301 444.5 -301 488.5 -269 c 0,21,22
 572.5 -209 572.5 -209 636 -112 c 128,-1,23
 699.5 -15 699.5 -15 754.5 116 c 1,24,25
 755.5 133 755.5 133 757.5 144.5 c 128,-1,26
 759.5 156 759.5 156 759.5 168 c 256,27,28
 759.5 180 759.5 180 757 195 c 128,-1,29
 754.5 210 754.5 210 746.5 234 c 1,30,31
 729.5 184 729.5 184 713 153 c 128,-1,32
 696.5 122 696.5 122 678.5 104 c 128,-1,33
 660.5 86 660.5 86 639 79.5 c 128,-1,34
 617.5 73 617.5 73 590.5 73 c 0,35,36
 555.5 73 555.5 73 521.5 89 c 128,-1,37
 487.5 105 487.5 105 460.5 131.5 c 128,-1,38
 433.5 158 433.5 158 417 192.5 c 128,-1,39
 400.5 227 400.5 227 400.5 263 c 0,40,41
 405.5 324 405.5 324 424 385.5 c 128,-1,42
 442.5 447 442.5 447 471.5 500.5 c 128,-1,43
 500.5 554 500.5 554 537 595 c 128,-1,44
 573.5 636 573.5 636 614.5 656 c 1,45,46
 655.5 656 655.5 656 699 622 c 128,-1,47
 742.5 588 742.5 588 778.5 536.5 c 128,-1,48
 814.5 485 814.5 485 837.5 424.5 c 128,-1,49
 860.5 364 860.5 364 860.5 312 c 0,0,1
650.5 342 m 1,50,51
 644.5 357 644.5 357 638.5 369.5 c 128,-1,52
 632.5 382 632.5 382 623.5 389 c 128,-1,53
 614.5 396 614.5 396 601 397 c 128,-1,54
 587.5 398 587.5 398 565.5 390 c 1,55,-1
 542.5 342 l 1,56,57
 542.5 335 542.5 335 549 324.5 c 128,-1,58
 555.5 314 555.5 314 572.5 307 c 1,59,60
 602.5 300 602.5 300 613.5 305.5 c 128,-1,61
 624.5 311 624.5 311 629.5 316 c 2,62,-1
 650.5 342 l 1,50,51
634.5 1217 m 1,63,64
 627.5 1186 627.5 1186 611.5 1160.5 c 128,-1,65
 595.5 1135 595.5 1135 575.5 1117 c 1,66,67
 563.5 1119 563.5 1119 552.5 1126.5 c 128,-1,68
 541.5 1134 541.5 1134 529.5 1141 c 128,-1,69
 517.5 1148 517.5 1148 504 1149.5 c 128,-1,70
 490.5 1151 490.5 1151 474.5 1141 c 1,71,72
 468.5 1135 468.5 1135 459 1128.5 c 128,-1,73
 449.5 1122 449.5 1122 442.5 1115 c 128,-1,74
 435.5 1108 435.5 1108 433.5 1100 c 128,-1,75
 431.5 1092 431.5 1092 440.5 1083 c 1,76,77
 468.5 1045 468.5 1045 506.5 1035.5 c 128,-1,78
 544.5 1026 544.5 1026 587 1029 c 128,-1,79
 629.5 1032 629.5 1032 672.5 1039 c 128,-1,80
 715.5 1046 715.5 1046 752.5 1040 c 1,81,82
 761.5 1037 761.5 1037 764 1031.5 c 128,-1,83
 766.5 1026 766.5 1026 765.5 1019 c 128,-1,84
 764.5 1012 764.5 1012 760.5 1004.5 c 128,-1,85
 756.5 997 756.5 997 752.5 991 c 0,86,87
 730.5 956 730.5 956 697 944 c 128,-1,88
 663.5 932 663.5 932 626 928 c 128,-1,89
 588.5 924 588.5 924 550.5 921.5 c 128,-1,90
 512.5 919 512.5 919 481.5 903 c 0,91,92
 464.5 895 464.5 895 450.5 884 c 128,-1,93
 436.5 873 436.5 873 423 862.5 c 128,-1,94
 409.5 852 409.5 852 395.5 845 c 128,-1,95
 381.5 838 381.5 838 365.5 838 c 1,96,97
 362.5 853 362.5 853 368.5 866.5 c 128,-1,98
 374.5 880 374.5 880 381.5 893 c 128,-1,99
 388.5 906 388.5 906 393 919.5 c 128,-1,100
 397.5 933 397.5 933 391.5 948 c 1,101,102
 379.5 960 379.5 960 365 971.5 c 128,-1,103
 350.5 983 350.5 983 338.5 994.5 c 128,-1,104
 326.5 1006 326.5 1006 318.5 1018.5 c 128,-1,105
 310.5 1031 310.5 1031 310.5 1046 c 0,106,107
 310.5 1066 310.5 1066 332.5 1092 c 0,108,109
 350.5 1112 350.5 1112 373 1139.5 c 128,-1,110
 395.5 1167 395.5 1167 420.5 1193.5 c 128,-1,111
 445.5 1220 445.5 1220 473 1241 c 128,-1,112
 500.5 1262 500.5 1262 528 1269.5 c 128,-1,113
 555.5 1277 555.5 1277 582.5 1266 c 128,-1,114
 609.5 1255 609.5 1255 634.5 1217 c 1,63,64
EndSplineSet
Substitution2: "'fina' Terminal Forms in Arabic lookup 3 subtable" wawwithhamzaabovefinal
Substitution2: "'isol' Isolated Forms in Arabic lookup 0 subtable" wawwithhamzaaboveisolated
EndChar

StartChar: alefwithhamzabelow
Encoding: 1573 1573 8
Width: 597
Flags: W
AnchorPoint: "ArabicBelow" 298 -717 basechar 0
AnchorPoint: "ArabicAbove" 298 1822 basechar 0
LayerCount: 2
Fore
SplineSet
409 1339 m 0,0,1
 403 1204 403 1204 406.5 1084.5 c 128,-1,2
 410 965 410 965 414 849.5 c 128,-1,3
 418 734 418 734 416.5 616 c 128,-1,4
 415 498 415 498 399 365 c 0,5,6
 392 310 392 310 383 256 c 128,-1,7
 374 202 374 202 363 142 c 1,8,9
 352 119 352 119 341 95 c 128,-1,10
 330 71 330 71 319.5 51.5 c 128,-1,11
 309 32 309 32 299.5 19 c 128,-1,12
 290 6 290 6 283 5 c 1,13,14
 281 182 281 182 281.5 345.5 c 128,-1,15
 282 509 282 509 281.5 672.5 c 128,-1,16
 281 836 281 836 278 1007.5 c 128,-1,17
 275 1179 275 1179 266 1373 c 1,18,19
 279 1394 279 1394 291 1422.5 c 128,-1,20
 303 1451 303 1451 316 1479.5 c 128,-1,21
 329 1508 329 1508 343.5 1533 c 128,-1,22
 358 1558 358 1558 376 1572 c 1,23,24
 393 1577 393 1577 400.5 1554.5 c 128,-1,25
 408 1532 408 1532 410 1495.5 c 128,-1,26
 412 1459 412 1459 410.5 1416 c 128,-1,27
 409 1373 409 1373 409 1339 c 0,0,1
396 -168 m 1,28,29
 383 -219 383 -219 350 -247 c 1,30,31
 342 -246 342 -246 335 -241.5 c 128,-1,32
 328 -237 328 -237 321.5 -232.5 c 128,-1,33
 315 -228 315 -228 307.5 -224.5 c 128,-1,34
 300 -221 300 -221 291 -221 c 1,35,36
 295 -221 295 -221 290 -223 c 128,-1,37
 285 -225 285 -225 270 -228 c 1,38,39
 262 -236 262 -236 249.5 -243 c 128,-1,40
 237 -250 237 -250 237 -261 c 0,41,42
 237 -267 237 -267 243 -273 c 0,43,44
 263 -299 263 -299 287.5 -308 c 128,-1,45
 312 -317 312 -317 339 -317 c 2,46,-1
 461 -306 l 1,47,-1
 476 -306 l 2,48,49
 489 -306 489 -306 490 -307 c 2,50,51
 502 -310 502 -310 502 -320 c 0,52,53
 502 -327 502 -327 498 -333 c 128,-1,54
 494 -339 494 -339 490 -346 c 0,55,56
 472 -373 472 -373 445.5 -383 c 128,-1,57
 419 -393 419 -393 389.5 -396 c 128,-1,58
 360 -399 360 -399 330.5 -401 c 128,-1,59
 301 -403 301 -403 276 -415 c 0,60,61
 262 -421 262 -421 250.5 -430 c 128,-1,62
 239 -439 239 -439 228 -447 c 128,-1,63
 217 -455 217 -455 206 -461 c 128,-1,64
 195 -467 195 -467 183 -467 c 1,65,-1
 183 -460 l 2,66,67
 183 -451 183 -451 186.5 -443 c 128,-1,68
 190 -435 190 -435 194.5 -427.5 c 128,-1,69
 199 -420 199 -420 203 -411.5 c 128,-1,70
 207 -403 207 -403 207 -394 c 1,71,72
 205 -388 205 -388 204 -381 c 1,73,74
 194 -371 194 -371 183 -362 c 128,-1,75
 172 -353 172 -353 162.5 -343.5 c 128,-1,76
 153 -334 153 -334 146.5 -324 c 128,-1,77
 140 -314 140 -314 140 -302 c 256,78,79
 140 -290 140 -290 157 -267 c 0,80,81
 173 -250 173 -250 193 -225.5 c 128,-1,82
 213 -201 213 -201 236 -178.5 c 128,-1,83
 259 -156 259 -156 283 -140 c 128,-1,84
 307 -124 307 -124 330 -124 c 0,85,86
 349 -124 349 -124 365 -133.5 c 128,-1,87
 381 -143 381 -143 396 -168 c 1,28,29
EndSplineSet
Substitution2: "'fina' Terminal Forms in Arabic lookup 3 subtable" alefwithhamzabelowfinal
Substitution2: "'isol' Isolated Forms in Arabic lookup 0 subtable" alefwithhamzabelowisolated
EndChar

StartChar: yehwithhamzaabove
Encoding: 1574 1574 9
Width: 1522
Flags: W
AnchorPoint: "ArabicBelow" 761 -841 basechar 0
AnchorPoint: "ArabicAbove" 761 1311 basechar 0
LayerCount: 2
Fore
SplineSet
445 905 m 0,0,1
 445 854 445 854 411.5 812 c 128,-1,2
 378 770 378 770 300 731 c 0,3,4
 209 686 209 686 156 659 c 128,-1,5
 103 632 103 632 84 614 c 1,6,7
 57 612 57 612 47.5 615.5 c 128,-1,8
 38 619 38 619 39 627 c 0,9,10
 41 644 41 644 63.5 677 c 128,-1,11
 86 710 86 710 131 736 c 1,12,-1
 60 751 l 2,13,14
 40 756 40 756 24.5 775.5 c 128,-1,15
 9 795 9 795 8 831 c 1,16,17
 22 880 22 880 44 922.5 c 128,-1,18
 66 965 66 965 92.5 995.5 c 128,-1,19
 119 1026 119 1026 148.5 1043.5 c 128,-1,20
 178 1061 178 1061 207 1061 c 0,21,22
 219 1061 219 1061 231 1058 c 128,-1,23
 243 1055 243 1055 253.5 1048 c 128,-1,24
 264 1041 264 1041 270.5 1030 c 128,-1,25
 277 1019 277 1019 277 1004 c 2,26,-1
 276 937 l 1,27,-1
 194 903 l 1,28,29
 189 924 189 924 186.5 930 c 128,-1,30
 184 936 184 936 181 936 c 0,31,32
 154 933 154 933 137 929.5 c 128,-1,33
 120 926 120 926 110.5 920.5 c 128,-1,34
 101 915 101 915 97.5 907 c 128,-1,35
 94 899 94 899 94 888 c 1,36,37
 101 874 101 874 111 863.5 c 128,-1,38
 121 853 121 853 138 844.5 c 128,-1,39
 155 836 155 836 182 829 c 128,-1,40
 209 822 209 822 250 816 c 1,41,42
 263 822 263 822 276.5 828.5 c 128,-1,43
 290 835 290 835 309 846.5 c 128,-1,44
 328 858 328 858 356 875 c 128,-1,45
 384 892 384 892 425 919 c 1,46,47
 445 925 445 925 445 905 c 0,0,1
1514 798 m 0,48,49
 1514 693 1514 693 1494 646 c 128,-1,50
 1474 599 1474 599 1452 599 c 0,51,52
 1449 599 1449 599 1440 607.5 c 128,-1,53
 1431 616 1431 616 1414.5 627.5 c 128,-1,54
 1398 639 1398 639 1373 651 c 128,-1,55
 1348 663 1348 663 1312 671 c 1,56,57
 1297 671 1297 671 1264 649.5 c 128,-1,58
 1231 628 1231 628 1190.5 593 c 128,-1,59
 1150 558 1150 558 1107 514 c 128,-1,60
 1064 470 1064 470 1028.5 425.5 c 128,-1,61
 993 381 993 381 970.5 339.5 c 128,-1,62
 948 298 948 298 948 269 c 0,63,64
 948 238 948 238 968 221 c 1,65,-1
 1269 178 l 1,66,67
 1323 158 1323 158 1356 140 c 128,-1,68
 1389 122 1389 122 1406 104.5 c 128,-1,69
 1423 87 1423 87 1428.5 69 c 128,-1,70
 1434 51 1434 51 1434 31 c 0,71,72
 1434 23 1434 23 1433 9 c 128,-1,73
 1432 -5 1432 -5 1425 -30.5 c 128,-1,74
 1418 -56 1418 -56 1403.5 -95.5 c 128,-1,75
 1389 -135 1389 -135 1362 -195 c 0,76,77
 1340 -240 1340 -240 1288.5 -290 c 128,-1,78
 1237 -340 1237 -340 1165 -387 c 128,-1,79
 1093 -434 1093 -434 1005.5 -475 c 128,-1,80
 918 -516 918 -516 824.5 -544.5 c 128,-1,81
 731 -573 731 -573 635.5 -585 c 128,-1,82
 540 -597 540 -597 452 -585.5 c 128,-1,83
 364 -574 364 -574 288.5 -536.5 c 128,-1,84
 213 -499 213 -499 159 -428 c 0,85,86
 35 -265 35 -265 35 -69 c 0,87,88
 35 -64 35 -64 40 -40 c 128,-1,89
 45 -16 45 -16 53 19 c 128,-1,90
 61 54 61 54 72.5 98 c 128,-1,91
 84 142 84 142 97 187 c 128,-1,92
 110 232 110 232 124 274.5 c 128,-1,93
 138 317 138 317 152 350.5 c 128,-1,94
 166 384 166 384 179 404.5 c 128,-1,95
 192 425 192 425 203 426 c 1,96,97
 214 424 214 424 217 416.5 c 128,-1,98
 220 409 220 409 218 399 c 128,-1,99
 216 389 216 389 211.5 378.5 c 128,-1,100
 207 368 207 368 203 359 c 1,101,102
 169 307 169 307 156.5 225.5 c 128,-1,103
 144 144 144 144 144 51 c 0,104,105
 144 -53 144 -53 184.5 -126.5 c 128,-1,106
 225 -200 225 -200 292.5 -247 c 128,-1,107
 360 -294 360 -294 449 -316 c 128,-1,108
 538 -338 538 -338 636 -338 c 0,109,110
 733 -338 733 -338 833 -317 c 128,-1,111
 933 -296 933 -296 1023 -257 c 128,-1,112
 1113 -218 1113 -218 1186.5 -162.5 c 128,-1,113
 1260 -107 1260 -107 1304 -38 c 1,114,115
 1304 -23 1304 -23 1274 -18 c 0,116,117
 1229 -16 1229 -16 1200 -14 c 128,-1,118
 1171 -12 1171 -12 1148 -9 c 128,-1,119
 1125 -6 1125 -6 1103 -2 c 128,-1,120
 1081 2 1081 2 1048 8 c 0,121,122
 992 18 992 18 956.5 29.5 c 128,-1,123
 921 41 921 41 898.5 59 c 128,-1,124
 876 77 876 77 863.5 104 c 128,-1,125
 851 131 851 131 842 173 c 1,126,127
 842 241 842 241 864.5 321 c 128,-1,128
 887 401 887 401 926.5 482 c 128,-1,129
 966 563 966 563 1020 640.5 c 128,-1,130
 1074 718 1074 718 1135.5 781 c 128,-1,131
 1197 844 1197 844 1264.5 888.5 c 128,-1,132
 1332 933 1332 933 1399 948 c 1,133,134
 1459 920 1459 920 1486.5 884.5 c 128,-1,135
 1514 849 1514 849 1514 798 c 0,48,49
EndSplineSet
Substitution2: "'fina' Terminal Forms in Arabic lookup 3 subtable" yehwithhamzaabovefinal
Substitution2: "'medi' Medial Forms in Arabic lookup 2 subtable" yehwithhamzaabovemedial
Substitution2: "'init' Initial Forms in Arabic lookup 1 subtable" yehwithhamzaaboveinitial
Substitution2: "'isol' Isolated Forms in Arabic lookup 0 subtable" yehwithhamzaaboveisolated
EndChar

StartChar: arabicalef
Encoding: 1575 1575 10
Width: 312
Flags: W
AnchorPoint: "ArabicBelow" 156 -245 basechar 0
AnchorPoint: "ArabicAbove" 156 1822 basechar 0
LayerCount: 2
Fore
SplineSet
244 1339 m 0,0,1
 238 1204 238 1204 241 1084.5 c 128,-1,2
 244 965 244 965 247 849.5 c 128,-1,3
 250 734 250 734 248 616 c 128,-1,4
 246 498 246 498 230 365 c 0,5,6
 223 310 223 310 214 256 c 128,-1,7
 205 202 205 202 194 142 c 1,8,9
 183 119 183 119 172 95 c 128,-1,10
 161 71 161 71 150.5 51.5 c 128,-1,11
 140 32 140 32 130.5 19 c 128,-1,12
 121 6 121 6 114 5 c 1,13,14
 113 6 113 6 113 16 c 2,15,-1
 113 27 l 1,16,-1
 113 49 l 1,17,-1
 113 94 l 1,18,-1
 113 178 l 1,19,-1
 113 344 l 2,20,21
 113 469 113 469 112 591 c 128,-1,22
 111 713 111 713 108.5 838 c 128,-1,23
 106 963 106 963 102 1095 c 128,-1,24
 98 1227 98 1227 92 1373 c 1,25,26
 105 1394 105 1394 118 1422.5 c 128,-1,27
 131 1451 131 1451 144.5 1479.5 c 128,-1,28
 158 1508 158 1508 173.5 1533 c 128,-1,29
 189 1558 189 1558 207 1572 c 1,30,31
 224 1577 224 1577 232 1554 c 128,-1,32
 240 1531 240 1531 242.5 1495 c 128,-1,33
 245 1459 245 1459 244.5 1416.5 c 128,-1,34
 244 1374 244 1374 244 1339 c 0,0,1
EndSplineSet
Substitution2: "'fina' Terminal Forms in Arabic lookup 3 subtable" aleffinal
Substitution2: "'isol' Isolated Forms in Arabic lookup 0 subtable" alefisolated
EndChar

StartChar: beh
Encoding: 1576 1576 11
Width: 2092
Flags: W
AnchorPoint: "ArabicBelow" 1046 -766 basechar 0
AnchorPoint: "ArabicAbove" 1046 969 basechar 0
LayerCount: 2
Fore
SplineSet
2092 333 m 0,0,1
 2092 309 2092 309 2075 270.5 c 128,-1,2
 2058 232 2058 232 2030.5 192 c 128,-1,3
 2003 152 2003 152 1968 117 c 128,-1,4
 1933 82 1933 82 1897 66 c 0,5,6
 1823 34 1823 34 1723 12 c 128,-1,7
 1623 -10 1623 -10 1513.5 -25 c 128,-1,8
 1404 -40 1404 -40 1292 -48 c 128,-1,9
 1180 -56 1180 -56 1081 -60 c 128,-1,10
 982 -64 982 -64 904.5 -65 c 128,-1,11
 827 -66 827 -66 785 -66 c 0,12,13
 633 -66 633 -66 505.5 -36 c 128,-1,14
 378 -6 378 -6 286 46 c 128,-1,15
 194 98 194 98 142 168.5 c 128,-1,16
 90 239 90 239 90 320 c 0,17,18
 97 381 97 381 116 438 c 128,-1,19
 135 495 135 495 161 543.5 c 128,-1,20
 187 592 187 592 218 630 c 128,-1,21
 249 668 249 668 281 693 c 1,22,23
 285 661 285 661 277.5 628 c 128,-1,24
 270 595 270 595 259.5 564.5 c 128,-1,25
 249 534 249 534 239.5 507 c 128,-1,26
 230 480 230 480 230 461 c 0,27,28
 230 392 230 392 274.5 334 c 128,-1,29
 319 276 319 276 397.5 233 c 128,-1,30
 476 190 476 190 584 166 c 128,-1,31
 692 142 692 142 819 142 c 2,32,-1
 1552 144 l 2,33,34
 1671 157 1671 157 1746.5 177 c 128,-1,35
 1822 197 1822 197 1865.5 219.5 c 128,-1,36
 1909 242 1909 242 1925 264 c 128,-1,37
 1941 286 1941 286 1941 303 c 0,38,39
 1941 319 1941 319 1927.5 341 c 128,-1,40
 1914 363 1914 363 1894 387 c 128,-1,41
 1874 411 1874 411 1851.5 435 c 128,-1,42
 1829 459 1829 459 1810 479.5 c 128,-1,43
 1791 500 1791 500 1779.5 514.5 c 128,-1,44
 1768 529 1768 529 1771 534 c 1,45,46
 1802 633 1802 633 1825 676 c 128,-1,47
 1848 719 1848 719 1856 719 c 0,48,49
 1886 719 1886 719 1915 696 c 128,-1,50
 1944 673 1944 673 1970 637.5 c 128,-1,51
 1996 602 1996 602 2018.5 557.5 c 128,-1,52
 2041 513 2041 513 2057.5 470.5 c 128,-1,53
 2074 428 2074 428 2083 391 c 128,-1,54
 2092 354 2092 354 2092 333 c 0,0,1
1236 -337 m 1,55,-1
 1108 -516 l 1,56,-1
 913 -391 l 1,57,58
 952 -342 952 -342 977 -311 c 128,-1,59
 1002 -280 1002 -280 1016.5 -262 c 128,-1,60
 1031 -244 1031 -244 1038 -236.5 c 128,-1,61
 1045 -229 1045 -229 1048 -228 c 1,62,-1
 1236 -337 l 1,55,-1
EndSplineSet
Substitution2: "'fina' Terminal Forms in Arabic lookup 3 subtable" behfinal
Substitution2: "'medi' Medial Forms in Arabic lookup 2 subtable" behmedial
Substitution2: "'init' Initial Forms in Arabic lookup 1 subtable" behinitial
Substitution2: "'isol' Isolated Forms in Arabic lookup 0 subtable" behisolated
EndChar

StartChar: tehmarbuta
Encoding: 1577 1577 12
Width: 512
Flags: W
AnchorPoint: "ArabicBelow" 256 -291 basechar 0
AnchorPoint: "ArabicAbove" 256 1451 basechar 0
LayerCount: 2
Fore
SplineSet
484 1080 m 1,0,1
 484 1063 484 1063 475.5 1037 c 128,-1,2
 467 1011 467 1011 454.5 986 c 128,-1,3
 442 961 442 961 427 942.5 c 128,-1,4
 412 924 412 924 399 922 c 1,5,6
 385 922 385 922 365.5 931 c 128,-1,7
 346 940 346 940 325.5 954.5 c 128,-1,8
 305 969 305 969 285 988 c 128,-1,9
 265 1007 265 1007 250 1027 c 1,10,11
 265 1070 265 1070 281 1103 c 128,-1,12
 297 1136 297 1136 310.5 1157.5 c 128,-1,13
 324 1179 324 1179 333.5 1190 c 128,-1,14
 343 1201 343 1201 346 1201 c 256,15,16
 349 1201 349 1201 370 1188 c 128,-1,17
 391 1175 391 1175 415.5 1156 c 128,-1,18
 440 1137 440 1137 460.5 1116.5 c 128,-1,19
 481 1096 481 1096 484 1080 c 1,0,1
246 1013 m 1,20,21
 246 1009 246 1009 242.5 994.5 c 128,-1,22
 239 980 239 980 233 960 c 128,-1,23
 227 940 227 940 218.5 918 c 128,-1,24
 210 896 210 896 201 877 c 128,-1,25
 192 858 192 858 182.5 845 c 128,-1,26
 173 832 173 832 164 831 c 0,27,28
 144 831 144 831 117 846.5 c 128,-1,29
 90 862 90 862 65.5 881 c 128,-1,30
 41 900 41 900 23.5 917 c 128,-1,31
 6 934 6 934 5 937 c 256,32,33
 4 940 4 940 6 948.5 c 128,-1,34
 8 957 8 957 16.5 975 c 128,-1,35
 25 993 25 993 40.5 1023.5 c 128,-1,36
 56 1054 56 1054 82 1102 c 1,37,-1
 246 1013 l 1,20,21
498 356 m 0,38,39
 498 307 498 307 487.5 257 c 128,-1,40
 477 207 477 207 456 160.5 c 128,-1,41
 435 114 435 114 403.5 74 c 128,-1,42
 372 34 372 34 330 5 c 0,43,44
 289 -16 289 -16 259.5 -25.5 c 128,-1,45
 230 -35 230 -35 210 -38.5 c 128,-1,46
 190 -42 190 -42 177.5 -41 c 128,-1,47
 165 -40 165 -40 157 -40 c 0,48,49
 127 -40 127 -40 98.5 -23.5 c 128,-1,50
 70 -7 70 -7 48.5 21.5 c 128,-1,51
 27 50 27 50 13.5 89 c 128,-1,52
 0 128 0 128 0 173 c 0,53,54
 0 251 0 251 78 445 c 0,55,56
 154 634 154 634 213 706 c 1,57,58
 296 664 296 664 351 625 c 128,-1,59
 406 586 406 586 438.5 545 c 128,-1,60
 471 504 471 504 484.5 458 c 128,-1,61
 498 412 498 412 498 356 c 0,38,39
341 253 m 1,62,63
 341 280 341 280 329 306 c 128,-1,64
 317 332 317 332 295.5 353.5 c 128,-1,65
 274 375 274 375 245 391.5 c 128,-1,66
 216 408 216 408 183 415 c 1,67,68
 177 409 177 409 171 400.5 c 128,-1,69
 165 392 165 392 158 377.5 c 128,-1,70
 151 363 151 363 142.5 339.5 c 128,-1,71
 134 316 134 316 122 279 c 1,72,73
 122 273 122 273 124 264.5 c 128,-1,74
 126 256 126 256 134 247 c 128,-1,75
 142 238 142 238 157 230 c 128,-1,76
 172 222 172 222 198 218 c 1,77,78
 231 218 231 218 254.5 219.5 c 128,-1,79
 278 221 278 221 294.5 224.5 c 128,-1,80
 311 228 311 228 322 235 c 128,-1,81
 333 242 333 242 341 253 c 1,62,63
EndSplineSet
Substitution2: "'fina' Terminal Forms in Arabic lookup 3 subtable" tehmarbutafinal
Substitution2: "'isol' Isolated Forms in Arabic lookup 0 subtable" tehmarbutaisolated
EndChar

StartChar: teh
Encoding: 1578 1578 13
Width: 2092
Flags: W
AnchorPoint: "ArabicBelow" 1046 -319 basechar 0
AnchorPoint: "ArabicAbove" 1046 1384 basechar 0
LayerCount: 2
Fore
SplineSet
1353 996 m 1,0,1
 1345 985 1345 985 1337 974.5 c 128,-1,2
 1329 964 1329 964 1313 946.5 c 128,-1,3
 1297 929 1297 929 1270.5 900.5 c 128,-1,4
 1244 872 1244 872 1200 825 c 1,5,-1
 1070 905 l 1,6,-1
 965 798 l 1,7,-1
 955 790 l 1,8,9
 916 814 916 814 891.5 830 c 128,-1,10
 867 846 867 846 848.5 859.5 c 128,-1,11
 830 873 830 873 813 886.5 c 128,-1,12
 796 900 796 900 772 918 c 1,13,14
 812 970 812 970 838 1002.5 c 128,-1,15
 864 1035 864 1035 879.5 1054 c 128,-1,16
 895 1073 895 1073 901.5 1080 c 128,-1,17
 908 1087 908 1087 909 1087 c 1,18,19
 953 1061 953 1061 980.5 1044.5 c 128,-1,20
 1008 1028 1008 1028 1023 1018 c 128,-1,21
 1038 1008 1038 1008 1044.5 1003.5 c 128,-1,22
 1051 999 1051 999 1053 996 c 1,23,-1
 1179 1134 l 1,24,25
 1232 1095 1232 1095 1265.5 1070 c 128,-1,26
 1299 1045 1299 1045 1318 1029.5 c 128,-1,27
 1337 1014 1337 1014 1344.5 1006.5 c 128,-1,28
 1352 999 1352 999 1353 996 c 1,0,1
2092 330 m 0,29,30
 2092 307 2092 307 2075 268 c 128,-1,31
 2058 229 2058 229 2030.5 188.5 c 128,-1,32
 2003 148 2003 148 1968 113.5 c 128,-1,33
 1933 79 1933 79 1897 64 c 0,34,35
 1823 32 1823 32 1723 9.5 c 128,-1,36
 1623 -13 1623 -13 1513.5 -27.5 c 128,-1,37
 1404 -42 1404 -42 1291.5 -50.5 c 128,-1,38
 1179 -59 1179 -59 1080.5 -63 c 128,-1,39
 982 -67 982 -67 904 -68 c 128,-1,40
 826 -69 826 -69 785 -69 c 0,41,42
 633 -69 633 -69 505.5 -39 c 128,-1,43
 378 -9 378 -9 286 43 c 128,-1,44
 194 95 194 95 142 165.5 c 128,-1,45
 90 236 90 236 90 317 c 0,46,47
 97 378 97 378 116 435 c 128,-1,48
 135 492 135 492 161 540.5 c 128,-1,49
 187 589 187 589 218 627 c 128,-1,50
 249 665 249 665 281 690 c 1,51,52
 285 658 285 658 277.5 625 c 128,-1,53
 270 592 270 592 259.5 561.5 c 128,-1,54
 249 531 249 531 239.5 504.5 c 128,-1,55
 230 478 230 478 230 459 c 0,56,57
 230 390 230 390 274.5 331.5 c 128,-1,58
 319 273 319 273 397.5 230.5 c 128,-1,59
 476 188 476 188 584 163.5 c 128,-1,60
 692 139 692 139 819 139 c 2,61,-1
 1552 139 l 2,62,63
 1671 155 1671 155 1746.5 175.5 c 128,-1,64
 1822 196 1822 196 1865.5 217.5 c 128,-1,65
 1909 239 1909 239 1925 260.5 c 128,-1,66
 1941 282 1941 282 1941 300 c 0,67,68
 1941 316 1941 316 1927.5 338 c 128,-1,69
 1914 360 1914 360 1894 384 c 128,-1,70
 1874 408 1874 408 1851.5 432 c 128,-1,71
 1829 456 1829 456 1810 476.5 c 128,-1,72
 1791 497 1791 497 1779.5 512 c 128,-1,73
 1768 527 1768 527 1771 532 c 1,74,75
 1803 631 1803 631 1825.5 673.5 c 128,-1,76
 1848 716 1848 716 1856 716 c 0,77,78
 1886 716 1886 716 1915 693.5 c 128,-1,79
 1944 671 1944 671 1970 635 c 128,-1,80
 1996 599 1996 599 2018.5 555 c 128,-1,81
 2041 511 2041 511 2057.5 468 c 128,-1,82
 2074 425 2074 425 2083 388 c 128,-1,83
 2092 351 2092 351 2092 330 c 0,29,30
EndSplineSet
Substitution2: "'fina' Terminal Forms in Arabic lookup 3 subtable" tehfinal
Substitution2: "'medi' Medial Forms in Arabic lookup 2 subtable" tehmedial
Substitution2: "'init' Initial Forms in Arabic lookup 1 subtable" tehinitial
Substitution2: "'isol' Isolated Forms in Arabic lookup 0 subtable" tehisolated
EndChar

StartChar: theh
Encoding: 1579 1579 14
Width: 2092
Flags: W
AnchorPoint: "ArabicBelow" 1046 -316 basechar 0
AnchorPoint: "ArabicAbove" 1046 1562 basechar 0
LayerCount: 2
Fore
SplineSet
1176 1201 m 1,0,-1
 1045 1026 l 1,1,-1
 867 1139 l 1,2,-1
 989 1312 l 1,3,-1
 1176 1201 l 1,0,-1
1364 883 m 1,4,-1
 1208 711 l 1,5,-1
 1078 803 l 1,6,-1
 965 676 l 1,7,-1
 780 803 l 1,8,-1
 918 972 l 1,9,-1
 1062 883 l 1,10,-1
 1187 1019 l 1,11,-1
 1364 883 l 1,4,-1
2092 333 m 0,12,13
 2092 309 2092 309 2075 270.5 c 128,-1,14
 2058 232 2058 232 2030.5 192 c 128,-1,15
 2003 152 2003 152 1968 117 c 128,-1,16
 1933 82 1933 82 1897 66 c 0,17,18
 1823 34 1823 34 1723 12 c 128,-1,19
 1623 -10 1623 -10 1513.5 -25 c 128,-1,20
 1404 -40 1404 -40 1292 -48 c 128,-1,21
 1180 -56 1180 -56 1081 -60 c 128,-1,22
 982 -64 982 -64 904.5 -65 c 128,-1,23
 827 -66 827 -66 785 -66 c 0,24,25
 633 -66 633 -66 505.5 -36 c 128,-1,26
 378 -6 378 -6 286 46 c 128,-1,27
 194 98 194 98 142 168.5 c 128,-1,28
 90 239 90 239 90 320 c 0,29,30
 97 381 97 381 116 438 c 128,-1,31
 135 495 135 495 161 543.5 c 128,-1,32
 187 592 187 592 218 630 c 128,-1,33
 249 668 249 668 281 693 c 1,34,35
 285 661 285 661 277.5 628 c 128,-1,36
 270 595 270 595 259.5 564.5 c 128,-1,37
 249 534 249 534 239.5 507 c 128,-1,38
 230 480 230 480 230 461 c 0,39,40
 230 392 230 392 274.5 334 c 128,-1,41
 319 276 319 276 397.5 233 c 128,-1,42
 476 190 476 190 584 166 c 128,-1,43
 692 142 692 142 819 142 c 2,44,-1
 1552 142 l 2,45,46
 1671 157 1671 157 1746.5 177.5 c 128,-1,47
 1822 198 1822 198 1865.5 220 c 128,-1,48
 1909 242 1909 242 1925 263.5 c 128,-1,49
 1941 285 1941 285 1941 303 c 0,50,51
 1941 319 1941 319 1927.5 341 c 128,-1,52
 1914 363 1914 363 1894 387 c 128,-1,53
 1874 411 1874 411 1851.5 435 c 128,-1,54
 1829 459 1829 459 1810 479.5 c 128,-1,55
 1791 500 1791 500 1779.5 514.5 c 128,-1,56
 1768 529 1768 529 1771 534 c 1,57,58
 1802 633 1802 633 1825 676 c 128,-1,59
 1848 719 1848 719 1856 719 c 0,60,61
 1886 719 1886 719 1915 696 c 128,-1,62
 1944 673 1944 673 1970 637.5 c 128,-1,63
 1996 602 1996 602 2018.5 557.5 c 128,-1,64
 2041 513 2041 513 2057.5 470.5 c 128,-1,65
 2074 428 2074 428 2083 391 c 128,-1,66
 2092 354 2092 354 2092 333 c 0,12,13
EndSplineSet
Substitution2: "'fina' Terminal Forms in Arabic lookup 3 subtable" thehfinal
Substitution2: "'medi' Medial Forms in Arabic lookup 2 subtable" thehmedial
Substitution2: "'init' Initial Forms in Arabic lookup 1 subtable" thehinitial
Substitution2: "'isol' Isolated Forms in Arabic lookup 0 subtable" thehisolated
EndChar

StartChar: jeem
Encoding: 1580 1580 15
Width: 1300
Flags: W
AnchorPoint: "ArabicBelow" 650 -1511 basechar 0
AnchorPoint: "ArabicAbove" 650 971 basechar 0
LayerCount: 2
Fore
SplineSet
1273 -1078 m 0,0,1
 1354 -1073 1354 -1073 1414 -1069 c 128,-1,2
 1474 -1065 1474 -1065 1523.5 -1061 c 128,-1,3
 1573 -1057 1573 -1057 1615.5 -1053 c 128,-1,4
 1658 -1049 1658 -1049 1703 -1043.5 c 128,-1,5
 1748 -1038 1748 -1038 1801 -1030.5 c 128,-1,6
 1854 -1023 1854 -1023 1923 -1013 c 1,7,-1
 1936 -1056 l 1,8,9
 1936 -1058 1936 -1058 1929.5 -1063 c 128,-1,10
 1923 -1068 1923 -1068 1904 -1076 c 128,-1,11
 1885 -1084 1885 -1084 1851 -1096 c 128,-1,12
 1817 -1108 1817 -1108 1761.5 -1125 c 128,-1,13
 1706 -1142 1706 -1142 1626 -1164 c 128,-1,14
 1546 -1186 1546 -1186 1435 -1214 c 0,15,16
 1416 -1218 1416 -1218 1390.5 -1225 c 128,-1,17
 1365 -1232 1365 -1232 1336 -1238.5 c 128,-1,18
 1307 -1245 1307 -1245 1275.5 -1250.5 c 128,-1,19
 1244 -1256 1244 -1256 1214 -1258 c 2,20,-1
 1040 -1261 l 2,21,22
 785 -1261 785 -1261 598 -1216.5 c 128,-1,23
 411 -1172 411 -1172 288.5 -1076.5 c 128,-1,24
 166 -981 166 -981 106.5 -832.5 c 128,-1,25
 47 -684 47 -684 47 -476 c 0,26,27
 47 -373 47 -373 62.5 -274 c 128,-1,28
 78 -175 78 -175 111.5 -78.5 c 128,-1,29
 145 18 145 18 198 112.5 c 128,-1,30
 251 207 251 207 325 300 c 2,31,-1
 476 467 l 1,32,33
 448 497 448 497 432 504.5 c 128,-1,34
 416 512 416 512 399 512 c 0,35,36
 339 512 339 512 274 459 c 2,37,-1
 139 343 l 1,38,39
 137 343 137 343 135 345.5 c 128,-1,40
 133 348 133 348 133 356 c 0,41,42
 133 365 133 365 136.5 381.5 c 128,-1,43
 140 398 140 398 148 425 c 0,44,45
 179 497 179 497 223.5 550.5 c 128,-1,46
 268 604 268 604 319 640 c 128,-1,47
 370 676 370 676 424.5 694 c 128,-1,48
 479 712 479 712 530 712 c 2,49,-1
 749 692 l 2,50,51
 921 692 921 692 1020.5 697 c 128,-1,52
 1120 702 1120 702 1165 716 c 1,53,54
 1205 720 1205 720 1228.5 721 c 128,-1,55
 1252 722 1252 722 1265 720.5 c 128,-1,56
 1278 719 1278 719 1284 715 c 128,-1,57
 1290 711 1290 711 1295 706 c 1,58,-1
 1212 558 l 1,59,60
 1141 541 1141 541 1052.5 523.5 c 128,-1,61
 964 506 964 506 873.5 483.5 c 128,-1,62
 783 461 783 461 700 432 c 128,-1,63
 617 403 617 403 558 364 c 0,64,65
 527 344 527 344 486 302 c 128,-1,66
 445 260 445 260 401 202 c 128,-1,67
 357 144 357 144 314.5 74.5 c 128,-1,68
 272 5 272 5 238.5 -69.5 c 128,-1,69
 205 -144 205 -144 184.5 -221 c 128,-1,70
 164 -298 164 -298 164 -369 c 0,71,72
 164 -481 164 -481 184 -570.5 c 128,-1,73
 204 -660 204 -660 248 -732 c 128,-1,74
 292 -804 292 -804 361.5 -859.5 c 128,-1,75
 431 -915 431 -915 530 -959 c 0,76,77
 669 -1022 669 -1022 852.5 -1048.5 c 128,-1,78
 1036 -1075 1036 -1075 1273 -1078 c 0,0,1
985 -269 m 1,79,-1
 867 -437 l 1,80,-1
 706 -329 l 1,81,-1
 816 -170 l 1,82,-1
 985 -269 l 1,79,-1
EndSplineSet
Substitution2: "'fina' Terminal Forms in Arabic lookup 3 subtable" jeemfinal
Substitution2: "'medi' Medial Forms in Arabic lookup 2 subtable" jeemmedial
Substitution2: "'init' Initial Forms in Arabic lookup 1 subtable" jeeminitial
Substitution2: "'isol' Isolated Forms in Arabic lookup 0 subtable" jeemisolated
EndChar

StartChar: hah
Encoding: 1581 1581 16
Width: 1303
Flags: W
AnchorPoint: "ArabicBelow" 651 -1501 basechar 0
AnchorPoint: "ArabicAbove" 651 982 basechar 0
LayerCount: 2
Fore
SplineSet
1279 -1067 m 0,0,1
 1360 -1062 1360 -1062 1420.5 -1058.5 c 128,-1,2
 1481 -1055 1481 -1055 1530 -1051 c 128,-1,3
 1579 -1047 1579 -1047 1622 -1043.5 c 128,-1,4
 1665 -1040 1665 -1040 1710 -1034 c 128,-1,5
 1755 -1028 1755 -1028 1807.5 -1020.5 c 128,-1,6
 1860 -1013 1860 -1013 1929 -1002 c 1,7,-1
 1942 -1045 l 1,8,9
 1942 -1048 1942 -1048 1935.5 -1053 c 128,-1,10
 1929 -1058 1929 -1058 1910.5 -1065.5 c 128,-1,11
 1892 -1073 1892 -1073 1858 -1085 c 128,-1,12
 1824 -1097 1824 -1097 1768.5 -1113.5 c 128,-1,13
 1713 -1130 1713 -1130 1632.5 -1152.5 c 128,-1,14
 1552 -1175 1552 -1175 1442 -1204 c 0,15,16
 1423 -1208 1423 -1208 1397.5 -1214.5 c 128,-1,17
 1372 -1221 1372 -1221 1342.5 -1228 c 128,-1,18
 1313 -1235 1313 -1235 1282 -1240.5 c 128,-1,19
 1251 -1246 1251 -1246 1221 -1248 c 2,20,-1
 1046 -1251 l 2,21,22
 792 -1251 792 -1251 605 -1206.5 c 128,-1,23
 418 -1162 418 -1162 295.5 -1066.5 c 128,-1,24
 173 -971 173 -971 113 -822.5 c 128,-1,25
 53 -674 53 -674 53 -465 c 0,26,27
 53 -362 53 -362 68.5 -263 c 128,-1,28
 84 -164 84 -164 118 -68 c 128,-1,29
 152 28 152 28 204.5 122.5 c 128,-1,30
 257 217 257 217 331 311 c 2,31,-1
 482 477 l 1,32,33
 455 508 455 508 438.5 515.5 c 128,-1,34
 422 523 422 523 406 523 c 0,35,36
 347 523 347 523 281 469 c 2,37,-1
 146 354 l 1,38,39
 143 354 143 354 141.5 356.5 c 128,-1,40
 140 359 140 359 140 367 c 0,41,42
 140 376 140 376 143.5 392 c 128,-1,43
 147 408 147 408 155 435 c 0,44,45
 186 507 186 507 230.5 561 c 128,-1,46
 275 615 275 615 326.5 651 c 128,-1,47
 378 687 378 687 432 705 c 128,-1,48
 486 723 486 723 537 723 c 2,49,-1
 755 702 l 2,50,51
 926 702 926 702 1026 706.5 c 128,-1,52
 1126 711 1126 711 1171 727 c 1,53,54
 1211 731 1211 731 1234.5 732 c 128,-1,55
 1258 733 1258 733 1271.5 731.5 c 128,-1,56
 1285 730 1285 730 1291 726 c 128,-1,57
 1297 722 1297 722 1301 716 c 1,58,-1
 1218 568 l 1,59,60
 1148 553 1148 553 1059 535.5 c 128,-1,61
 970 518 970 518 879 495 c 128,-1,62
 788 472 788 472 705 442.5 c 128,-1,63
 622 413 622 413 564 374 c 0,64,65
 534 353 534 353 493 310.5 c 128,-1,66
 452 268 452 268 408 210.5 c 128,-1,67
 364 153 364 153 321.5 84 c 128,-1,68
 279 15 279 15 245.5 -59 c 128,-1,69
 212 -133 212 -133 191 -210 c 128,-1,70
 170 -287 170 -287 170 -359 c 0,71,72
 170 -471 170 -471 190 -560.5 c 128,-1,73
 210 -650 210 -650 254.5 -722 c 128,-1,74
 299 -794 299 -794 368.5 -849.5 c 128,-1,75
 438 -905 438 -905 537 -949 c 0,76,77
 675 -1012 675 -1012 859 -1038 c 128,-1,78
 1043 -1064 1043 -1064 1279 -1067 c 0,0,1
EndSplineSet
Substitution2: "'fina' Terminal Forms in Arabic lookup 3 subtable" hahfinal
Substitution2: "'medi' Medial Forms in Arabic lookup 2 subtable" hahmedial
Substitution2: "'init' Initial Forms in Arabic lookup 1 subtable" hahinitial
Substitution2: "'isol' Isolated Forms in Arabic lookup 0 subtable" hahisolated
EndChar

StartChar: khah
Encoding: 1582 1582 17
Width: 1297
Flags: W
AnchorPoint: "ArabicBelow" 648 -1511 basechar 0
AnchorPoint: "ArabicAbove" 648 1350 basechar 0
LayerCount: 2
Fore
SplineSet
576 996 m 1,0,-1
 468 837 l 1,1,-1
 308 941 l 1,2,-1
 420 1100 l 1,3,-1
 576 996 l 1,0,-1
1273 -1078 m 0,4,5
 1354 -1073 1354 -1073 1414 -1069 c 128,-1,6
 1474 -1065 1474 -1065 1523.5 -1061 c 128,-1,7
 1573 -1057 1573 -1057 1615.5 -1053 c 128,-1,8
 1658 -1049 1658 -1049 1703 -1043.5 c 128,-1,9
 1748 -1038 1748 -1038 1801 -1030.5 c 128,-1,10
 1854 -1023 1854 -1023 1923 -1013 c 1,11,-1
 1936 -1056 l 1,12,13
 1936 -1058 1936 -1058 1929.5 -1063 c 128,-1,14
 1923 -1068 1923 -1068 1904 -1076 c 128,-1,15
 1885 -1084 1885 -1084 1851 -1096 c 128,-1,16
 1817 -1108 1817 -1108 1761.5 -1125 c 128,-1,17
 1706 -1142 1706 -1142 1626 -1164 c 128,-1,18
 1546 -1186 1546 -1186 1435 -1214 c 0,19,20
 1416 -1218 1416 -1218 1390.5 -1225 c 128,-1,21
 1365 -1232 1365 -1232 1336 -1238.5 c 128,-1,22
 1307 -1245 1307 -1245 1275.5 -1250.5 c 128,-1,23
 1244 -1256 1244 -1256 1214 -1258 c 2,24,-1
 1040 -1261 l 2,25,26
 785 -1261 785 -1261 598 -1216.5 c 128,-1,27
 411 -1172 411 -1172 288.5 -1076.5 c 128,-1,28
 166 -981 166 -981 106.5 -832.5 c 128,-1,29
 47 -684 47 -684 47 -476 c 0,30,31
 47 -373 47 -373 62.5 -274 c 128,-1,32
 78 -175 78 -175 111.5 -78.5 c 128,-1,33
 145 18 145 18 198 112.5 c 128,-1,34
 251 207 251 207 325 300 c 2,35,-1
 476 467 l 1,36,37
 448 497 448 497 432 504.5 c 128,-1,38
 416 512 416 512 399 512 c 0,39,40
 339 512 339 512 274 459 c 2,41,-1
 139 343 l 1,42,43
 137 343 137 343 135 345.5 c 128,-1,44
 133 348 133 348 133 356 c 0,45,46
 133 365 133 365 136.5 381.5 c 128,-1,47
 140 398 140 398 148 425 c 0,48,49
 179 497 179 497 223.5 550.5 c 128,-1,50
 268 604 268 604 319 640 c 128,-1,51
 370 676 370 676 424.5 694 c 128,-1,52
 479 712 479 712 530 712 c 2,53,-1
 749 692 l 2,54,55
 921 692 921 692 1020.5 697 c 128,-1,56
 1120 702 1120 702 1165 716 c 1,57,58
 1205 720 1205 720 1228.5 721 c 128,-1,59
 1252 722 1252 722 1265 720.5 c 128,-1,60
 1278 719 1278 719 1284 715 c 128,-1,61
 1290 711 1290 711 1295 706 c 1,62,-1
 1212 558 l 1,63,64
 1141 541 1141 541 1052.5 523.5 c 128,-1,65
 964 506 964 506 873.5 483.5 c 128,-1,66
 783 461 783 461 700 432 c 128,-1,67
 617 403 617 403 558 364 c 0,68,69
 527 344 527 344 486 302 c 128,-1,70
 445 260 445 260 401 202 c 128,-1,71
 357 144 357 144 314.5 74.5 c 128,-1,72
 272 5 272 5 238.5 -69.5 c 128,-1,73
 205 -144 205 -144 184.5 -221 c 128,-1,74
 164 -298 164 -298 164 -369 c 0,75,76
 164 -481 164 -481 184 -570.5 c 128,-1,77
 204 -660 204 -660 248 -732 c 128,-1,78
 292 -804 292 -804 361.5 -859.5 c 128,-1,79
 431 -915 431 -915 530 -959 c 0,80,81
 669 -1022 669 -1022 852.5 -1048.5 c 128,-1,82
 1036 -1075 1036 -1075 1273 -1078 c 0,4,5
EndSplineSet
Substitution2: "'fina' Terminal Forms in Arabic lookup 3 subtable" khahfinal
Substitution2: "'medi' Medial Forms in Arabic lookup 2 subtable" khahmedial
Substitution2: "'init' Initial Forms in Arabic lookup 1 subtable" khahinitial
Substitution2: "'isol' Isolated Forms in Arabic lookup 0 subtable" khahisolated
EndChar

StartChar: dal
Encoding: 1583 1583 18
Width: 911
Flags: W
AnchorPoint: "ArabicBelow" 455 -329 basechar 0
AnchorPoint: "ArabicAbove" 455 1143 basechar 0
LayerCount: 2
Fore
SplineSet
901 218 m 2,0,1
 898 164 898 164 874.5 117.5 c 128,-1,2
 851 71 851 71 816 29 c 0,3,4
 806 16 806 16 777.5 3 c 128,-1,5
 749 -10 749 -10 709.5 -22 c 128,-1,6
 670 -34 670 -34 623 -44.5 c 128,-1,7
 576 -55 576 -55 528 -62.5 c 128,-1,8
 480 -70 480 -70 435.5 -74.5 c 128,-1,9
 391 -79 391 -79 356 -79 c 0,10,11
 323 -78 323 -78 294 -68 c 128,-1,12
 265 -58 265 -58 244 -37 c 128,-1,13
 223 -16 223 -16 210.5 17.5 c 128,-1,14
 198 51 198 51 198 100 c 0,15,16
 205 169 205 169 218.5 206 c 128,-1,17
 232 243 232 243 263 243 c 0,18,19
 264 243 264 243 269.5 234.5 c 128,-1,20
 275 226 275 226 290 214.5 c 128,-1,21
 305 203 305 203 331 190.5 c 128,-1,22
 357 178 357 178 399 170 c 1,23,24
 450 168 450 168 510.5 170.5 c 128,-1,25
 571 173 571 173 628.5 181.5 c 128,-1,26
 686 190 686 190 734 205.5 c 128,-1,27
 782 221 782 221 807 244 c 1,28,29
 806 260 806 260 793.5 295 c 128,-1,30
 781 330 781 330 760.5 374.5 c 128,-1,31
 740 419 740 419 713 466.5 c 128,-1,32
 686 514 686 514 655.5 554 c 128,-1,33
 625 594 625 594 592 621.5 c 128,-1,34
 559 649 559 649 528 653 c 0,35,36
 511 653 511 653 504 652 c 128,-1,37
 497 651 497 651 493.5 649 c 128,-1,38
 490 647 490 647 487.5 644.5 c 128,-1,39
 485 642 485 642 476 638 c 1,40,41
 461 627 461 627 451.5 661 c 128,-1,42
 442 695 442 695 446 770 c 1,43,44
 460 828 460 828 491 862 c 128,-1,45
 522 896 522 896 567.5 893 c 128,-1,46
 613 890 613 890 671 844.5 c 128,-1,47
 729 799 729 799 797 697 c 1,48,49
 818 651 818 651 838 601 c 128,-1,50
 858 551 858 551 873.5 499.5 c 128,-1,51
 889 448 889 448 898 396.5 c 128,-1,52
 907 345 907 345 905 296 c 2,53,-1
 901 218 l 2,0,1
EndSplineSet
Substitution2: "'fina' Terminal Forms in Arabic lookup 3 subtable" dalfinal
Substitution2: "'isol' Isolated Forms in Arabic lookup 0 subtable" dalisolated
EndChar

StartChar: thal
Encoding: 1584 1584 19
Width: 909
Flags: W
AnchorPoint: "ArabicBelow" 454 -329 basechar 0
AnchorPoint: "ArabicAbove" 454 1718 basechar 0
LayerCount: 2
Fore
SplineSet
901 218 m 2,0,1
 898 164 898 164 874.5 117.5 c 128,-1,2
 851 71 851 71 816 29 c 0,3,4
 806 16 806 16 777.5 3 c 128,-1,5
 749 -10 749 -10 709.5 -22 c 128,-1,6
 670 -34 670 -34 623 -44.5 c 128,-1,7
 576 -55 576 -55 528 -62.5 c 128,-1,8
 480 -70 480 -70 435.5 -74.5 c 128,-1,9
 391 -79 391 -79 356 -79 c 0,10,11
 323 -78 323 -78 294 -68 c 128,-1,12
 265 -58 265 -58 244 -37 c 128,-1,13
 223 -16 223 -16 210.5 17.5 c 128,-1,14
 198 51 198 51 198 100 c 0,15,16
 205 172 205 172 218.5 207.5 c 128,-1,17
 232 243 232 243 263 243 c 0,18,19
 264 243 264 243 270 234.5 c 128,-1,20
 276 226 276 226 291 214.5 c 128,-1,21
 306 203 306 203 332 190.5 c 128,-1,22
 358 178 358 178 399 170 c 1,23,24
 450 168 450 168 510.5 170.5 c 128,-1,25
 571 173 571 173 628.5 181.5 c 128,-1,26
 686 190 686 190 734 205.5 c 128,-1,27
 782 221 782 221 807 244 c 1,28,29
 806 260 806 260 793.5 295 c 128,-1,30
 781 330 781 330 760.5 374.5 c 128,-1,31
 740 419 740 419 713 466.5 c 128,-1,32
 686 514 686 514 655.5 554 c 128,-1,33
 625 594 625 594 592 621.5 c 128,-1,34
 559 649 559 649 528 653 c 0,35,36
 511 653 511 653 504 652 c 128,-1,37
 497 651 497 651 493.5 649 c 128,-1,38
 490 647 490 647 487.5 644.5 c 128,-1,39
 485 642 485 642 476 638 c 1,40,41
 461 627 461 627 451.5 661 c 128,-1,42
 442 695 442 695 446 770 c 1,43,44
 460 828 460 828 491 862 c 128,-1,45
 522 896 522 896 567 893 c 128,-1,46
 612 890 612 890 670 844 c 128,-1,47
 728 798 728 798 797 697 c 1,48,49
 817 652 817 652 837 601.5 c 128,-1,50
 857 551 857 551 873 499.5 c 128,-1,51
 889 448 889 448 898 396 c 128,-1,52
 907 344 907 344 905 296 c 2,53,-1
 901 218 l 2,0,1
521 1349 m 1,54,-1
 387 1210 l 1,55,-1
 243 1326 l 1,56,-1
 364 1468 l 1,57,-1
 521 1349 l 1,54,-1
EndSplineSet
Substitution2: "'fina' Terminal Forms in Arabic lookup 3 subtable" thalfinal
Substitution2: "'isol' Isolated Forms in Arabic lookup 0 subtable" thalisolated
EndChar

StartChar: reh
Encoding: 1585 1585 20
Width: 1087
Flags: W
AnchorPoint: "ArabicBelow" 543 -793 basechar 0
AnchorPoint: "ArabicAbove" 543 818 basechar 0
LayerCount: 2
Fore
SplineSet
922 239 m 0,0,1
 922 173 922 173 910.5 98.5 c 128,-1,2
 899 24 899 24 877 -51.5 c 128,-1,3
 855 -127 855 -127 824 -199.5 c 128,-1,4
 793 -272 793 -272 754 -334.5 c 128,-1,5
 715 -397 715 -397 668 -445 c 128,-1,6
 621 -493 621 -493 569 -519 c 0,7,8
 548 -531 548 -531 512.5 -538 c 128,-1,9
 477 -545 477 -545 417 -543.5 c 128,-1,10
 357 -542 357 -542 266 -530.5 c 128,-1,11
 175 -519 175 -519 43 -493 c 0,12,13
 34 -490 34 -490 24 -480 c 128,-1,14
 14 -470 14 -470 3 -439 c 1,15,-1
 218 -428 l 2,16,17
 272 -427 272 -427 334 -407.5 c 128,-1,18
 396 -388 396 -388 459 -353.5 c 128,-1,19
 522 -319 522 -319 582.5 -272.5 c 128,-1,20
 643 -226 643 -226 693 -170.5 c 128,-1,21
 743 -115 743 -115 780 -53 c 128,-1,22
 817 9 817 9 833 74 c 1,23,24
 776 180 776 180 743 245 c 128,-1,25
 710 310 710 310 693.5 347.5 c 128,-1,26
 677 385 677 385 672.5 401 c 128,-1,27
 668 417 668 417 668 426 c 0,28,29
 668 430 668 430 676.5 451.5 c 128,-1,30
 685 473 685 473 696 497.5 c 128,-1,31
 707 522 707 522 719 543 c 128,-1,32
 731 564 731 564 737 568 c 1,33,34
 749 568 749 568 767.5 549.5 c 128,-1,35
 786 531 786 531 806.5 501 c 128,-1,36
 827 471 827 471 847.5 434 c 128,-1,37
 868 397 868 397 884.5 360.5 c 128,-1,38
 901 324 901 324 911.5 291.5 c 128,-1,39
 922 259 922 259 922 239 c 0,0,1
EndSplineSet
Substitution2: "'fina' Terminal Forms in Arabic lookup 3 subtable" rehfinal
Substitution2: "'isol' Isolated Forms in Arabic lookup 0 subtable" rehisolated
EndChar

StartChar: zain
Encoding: 1586 1586 21
Width: 1087
Flags: W
AnchorPoint: "ArabicBelow" 543 -793 basechar 0
AnchorPoint: "ArabicAbove" 543 1439 basechar 0
LayerCount: 2
Fore
SplineSet
922 239 m 0,0,1
 922 259 922 259 911.5 291.5 c 128,-1,2
 901 324 901 324 884.5 360.5 c 128,-1,3
 868 397 868 397 847.5 434 c 128,-1,4
 827 471 827 471 806.5 501 c 128,-1,5
 786 531 786 531 767.5 549.5 c 128,-1,6
 749 568 749 568 737 568 c 1,7,8
 730 564 730 564 718.5 543 c 128,-1,9
 707 522 707 522 695.5 497.5 c 128,-1,10
 684 473 684 473 676 451.5 c 128,-1,11
 668 430 668 430 668 426 c 0,12,13
 668 417 668 417 672.5 401 c 128,-1,14
 677 385 677 385 693.5 348 c 128,-1,15
 710 311 710 311 743 246 c 128,-1,16
 776 181 776 181 833 74 c 1,17,18
 817 9 817 9 780 -53 c 128,-1,19
 743 -115 743 -115 693 -170.5 c 128,-1,20
 643 -226 643 -226 582.5 -272.5 c 128,-1,21
 522 -319 522 -319 459 -353.5 c 128,-1,22
 396 -388 396 -388 334 -407.5 c 128,-1,23
 272 -427 272 -427 218 -428 c 2,24,-1
 3 -439 l 1,25,26
 14 -470 14 -470 24 -480 c 128,-1,27
 34 -490 34 -490 43 -493 c 0,28,29
 176 -519 176 -519 266.5 -530.5 c 128,-1,30
 357 -542 357 -542 417 -543.5 c 128,-1,31
 477 -545 477 -545 512 -538 c 128,-1,32
 547 -531 547 -531 569 -519 c 0,33,34
 621 -493 621 -493 668 -445 c 128,-1,35
 715 -397 715 -397 754 -334.5 c 128,-1,36
 793 -272 793 -272 824 -199.5 c 128,-1,37
 855 -127 855 -127 877 -51.5 c 128,-1,38
 899 24 899 24 910.5 98.5 c 128,-1,39
 922 173 922 173 922 239 c 0,0,1
742 1071 m 1,40,-1
 608 932 l 1,41,-1
 464 1048 l 1,42,-1
 585 1189 l 1,43,-1
 742 1071 l 1,40,-1
EndSplineSet
Substitution2: "'fina' Terminal Forms in Arabic lookup 3 subtable" zainfinal
Substitution2: "'isol' Isolated Forms in Arabic lookup 0 subtable" zainisolated
EndChar

StartChar: seen
Encoding: 1587 1587 22
Width: 1721
Flags: W
AnchorPoint: "ArabicBelow" 860 -770 basechar 0
AnchorPoint: "ArabicAbove" 860 1073 basechar 0
LayerCount: 2
Fore
SplineSet
1719 636 m 0,0,1
 1719 623 1719 623 1716 600.5 c 128,-1,2
 1713 578 1713 578 1708 551 c 128,-1,3
 1703 524 1703 524 1697 495 c 128,-1,4
 1691 466 1691 466 1684 441 c 128,-1,5
 1677 416 1677 416 1670 397.5 c 128,-1,6
 1663 379 1663 379 1657 372 c 2,7,8
 1645 347 1645 347 1621.5 332 c 128,-1,9
 1598 317 1598 317 1568.5 310.5 c 128,-1,10
 1539 304 1539 304 1506.5 305 c 128,-1,11
 1474 306 1474 306 1444.5 313 c 128,-1,12
 1415 320 1415 320 1391 333 c 128,-1,13
 1367 346 1367 346 1355 363 c 1,14,15
 1333 329 1333 329 1309.5 303.5 c 128,-1,16
 1286 278 1286 278 1250 260.5 c 128,-1,17
 1214 243 1214 243 1160 234.5 c 128,-1,18
 1106 226 1106 226 1024 226 c 1,19,20
 1042 72 1042 72 1014 -53.5 c 128,-1,21
 986 -179 986 -179 909 -273.5 c 128,-1,22
 832 -368 832 -368 702.5 -430.5 c 128,-1,23
 573 -493 573 -493 389 -520 c 0,24,25
 297 -523 297 -523 224.5 -489 c 128,-1,26
 152 -455 152 -455 101.5 -396.5 c 128,-1,27
 51 -338 51 -338 24 -260 c 128,-1,28
 -3 -182 -3 -182 -3 -96 c 0,29,30
 -3 -71 -3 -71 5 -31.5 c 128,-1,31
 13 8 13 8 25.5 52 c 128,-1,32
 38 96 38 96 53.5 140 c 128,-1,33
 69 184 69 184 84 219.5 c 128,-1,34
 99 255 99 255 112.5 277.5 c 128,-1,35
 126 300 126 300 135 300 c 0,36,37
 149 300 149 300 149 272 c 0,38,39
 149 263 149 263 141.5 246.5 c 128,-1,40
 134 230 134 230 125 199.5 c 128,-1,41
 116 169 116 169 109 120 c 128,-1,42
 102 71 102 71 104 -3 c 0,43,44
 104 -151 104 -151 183.5 -233 c 128,-1,45
 263 -315 263 -315 426 -315 c 0,46,47
 513 -315 513 -315 599 -289.5 c 128,-1,48
 685 -264 685 -264 756.5 -220.5 c 128,-1,49
 828 -177 828 -177 877.5 -118.5 c 128,-1,50
 927 -60 927 -60 942 5 c 1,51,52
 942 43 942 43 939 81 c 128,-1,53
 936 119 936 119 923.5 166 c 128,-1,54
 911 213 911 213 886 274 c 128,-1,55
 861 335 861 335 818 419 c 1,56,57
 818 422 818 422 820 439 c 128,-1,58
 822 456 822 456 825.5 479 c 128,-1,59
 829 502 829 502 834 528 c 128,-1,60
 839 554 839 554 845.5 576 c 128,-1,61
 852 598 852 598 860 612.5 c 128,-1,62
 868 627 868 627 877 627 c 0,63,64
 889 627 889 627 899.5 618.5 c 128,-1,65
 910 610 910 610 922.5 589 c 128,-1,66
 935 568 935 568 950.5 533.5 c 128,-1,67
 966 499 966 499 988 447 c 1,68,69
 1067 447 1067 447 1122.5 453.5 c 128,-1,70
 1178 460 1178 460 1216 473.5 c 128,-1,71
 1254 487 1254 487 1278 507.5 c 128,-1,72
 1302 528 1302 528 1319 556 c 1,73,-1
 1405 762 l 1,74,75
 1423 763 1423 763 1431.5 758 c 128,-1,76
 1440 753 1440 753 1444 744.5 c 128,-1,77
 1448 736 1448 736 1450.5 726 c 128,-1,78
 1453 716 1453 716 1459 708 c 1,79,-1
 1422 584 l 1,80,81
 1425 571 1425 571 1441 561.5 c 128,-1,82
 1457 552 1457 552 1478 546 c 128,-1,83
 1499 540 1499 540 1522.5 537 c 128,-1,84
 1546 534 1546 534 1564 534 c 0,85,86
 1583 534 1583 534 1593 537 c 128,-1,87
 1603 540 1603 540 1599 545 c 1,88,89
 1600 549 1600 549 1601 552.5 c 128,-1,90
 1602 556 1602 556 1602 560 c 0,91,92
 1602 575 1602 575 1593 595.5 c 128,-1,93
 1584 616 1584 616 1566 660 c 1,94,-1
 1628 823 l 1,95,96
 1671 800 1671 800 1695 751.5 c 128,-1,97
 1719 703 1719 703 1719 636 c 0,0,1
EndSplineSet
Substitution2: "'fina' Terminal Forms in Arabic lookup 3 subtable" seenfinal
Substitution2: "'medi' Medial Forms in Arabic lookup 2 subtable" seenmedial
Substitution2: "'init' Initial Forms in Arabic lookup 1 subtable" seeninitial
Substitution2: "'isol' Isolated Forms in Arabic lookup 0 subtable" seenisolated
EndChar

StartChar: sheen
Encoding: 1588 1588 23
Width: 1729
Flags: W
AnchorPoint: "ArabicBelow" 864 -770 basechar 0
AnchorPoint: "ArabicAbove" 864 1768 basechar 0
LayerCount: 2
Fore
SplineSet
1282 1430 m 0,0,1
 1282 1422 1282 1422 1280 1414.5 c 128,-1,2
 1278 1407 1278 1407 1270.5 1391.5 c 128,-1,3
 1263 1376 1263 1376 1249.5 1348.5 c 128,-1,4
 1236 1321 1236 1321 1213 1274 c 1,5,6
 1203 1277 1203 1277 1186.5 1286.5 c 128,-1,7
 1170 1296 1170 1296 1150.5 1307 c 128,-1,8
 1131 1318 1131 1318 1112 1330.5 c 128,-1,9
 1093 1343 1093 1343 1079.5 1352 c 128,-1,10
 1066 1361 1066 1361 1060 1366 c 128,-1,11
 1054 1371 1054 1371 1061 1369 c 1,12,13
 1095 1435 1095 1435 1115 1476.5 c 128,-1,14
 1135 1518 1135 1518 1147 1518 c 1,15,16
 1145 1518 1145 1518 1154.5 1512.5 c 128,-1,17
 1164 1507 1164 1507 1179 1498 c 128,-1,18
 1194 1489 1194 1489 1212 1478.5 c 128,-1,19
 1230 1468 1230 1468 1245.5 1458.5 c 128,-1,20
 1261 1449 1261 1449 1271.5 1441 c 128,-1,21
 1282 1433 1282 1433 1282 1430 c 0,0,1
1466 1173 m 0,22,23
 1466 1159 1466 1159 1456.5 1132.5 c 128,-1,24
 1447 1106 1447 1106 1433 1080 c 128,-1,25
 1419 1054 1419 1054 1404 1034 c 128,-1,26
 1389 1014 1389 1014 1377 1014 c 0,27,28
 1368 1014 1368 1014 1343 1030 c 128,-1,29
 1318 1046 1318 1046 1291.5 1068 c 128,-1,30
 1265 1090 1265 1090 1245 1112.5 c 128,-1,31
 1225 1135 1225 1135 1225 1148 c 1,32,-1
 1316 1296 l 1,33,34
 1352 1270 1352 1270 1380 1251.5 c 128,-1,35
 1408 1233 1408 1233 1427 1218.5 c 128,-1,36
 1446 1204 1446 1204 1456 1193.5 c 128,-1,37
 1466 1183 1466 1183 1466 1173 c 0,22,23
1210 1149 m 1,38,39
 1190 1105 1190 1105 1174.5 1074.5 c 128,-1,40
 1159 1044 1159 1044 1147 1024.5 c 128,-1,41
 1135 1005 1135 1005 1127 994.5 c 128,-1,42
 1119 984 1119 984 1115 980 c 0,43,44
 1113 978 1113 978 1105.5 980.5 c 128,-1,45
 1098 983 1098 983 1081.5 993 c 128,-1,46
 1065 1003 1065 1003 1038.5 1022 c 128,-1,47
 1012 1041 1012 1041 972 1072 c 1,48,49
 976 1077 976 1077 984 1092 c 128,-1,50
 992 1107 992 1107 1001.5 1126.5 c 128,-1,51
 1011 1146 1011 1146 1022 1167 c 128,-1,52
 1033 1188 1033 1188 1043 1206 c 128,-1,53
 1053 1224 1053 1224 1062 1236 c 128,-1,54
 1071 1248 1071 1248 1076 1249 c 1,55,-1
 1210 1149 l 1,38,39
1719 636 m 0,56,57
 1719 623 1719 623 1716 600.5 c 128,-1,58
 1713 578 1713 578 1708 551 c 128,-1,59
 1703 524 1703 524 1697 495 c 128,-1,60
 1691 466 1691 466 1684 441 c 128,-1,61
 1677 416 1677 416 1670 397.5 c 128,-1,62
 1663 379 1663 379 1657 372 c 2,63,64
 1645 347 1645 347 1621.5 332 c 128,-1,65
 1598 317 1598 317 1568.5 310.5 c 128,-1,66
 1539 304 1539 304 1506.5 305 c 128,-1,67
 1474 306 1474 306 1444.5 313 c 128,-1,68
 1415 320 1415 320 1391 333 c 128,-1,69
 1367 346 1367 346 1355 363 c 1,70,71
 1333 329 1333 329 1309.5 303.5 c 128,-1,72
 1286 278 1286 278 1250 260.5 c 128,-1,73
 1214 243 1214 243 1160 234.5 c 128,-1,74
 1106 226 1106 226 1024 226 c 1,75,76
 1042 72 1042 72 1014 -53.5 c 128,-1,77
 986 -179 986 -179 909 -273.5 c 128,-1,78
 832 -368 832 -368 702.5 -430.5 c 128,-1,79
 573 -493 573 -493 389 -520 c 0,80,81
 297 -523 297 -523 224.5 -489 c 128,-1,82
 152 -455 152 -455 101.5 -396.5 c 128,-1,83
 51 -338 51 -338 24 -260 c 128,-1,84
 -3 -182 -3 -182 -3 -96 c 0,85,86
 -3 -71 -3 -71 5 -31.5 c 128,-1,87
 13 8 13 8 25.5 52 c 128,-1,88
 38 96 38 96 53.5 140 c 128,-1,89
 69 184 69 184 84 219.5 c 128,-1,90
 99 255 99 255 112.5 277.5 c 128,-1,91
 126 300 126 300 135 300 c 0,92,93
 149 300 149 300 149 272 c 0,94,95
 149 263 149 263 141.5 246.5 c 128,-1,96
 134 230 134 230 125 199.5 c 128,-1,97
 116 169 116 169 109 120 c 128,-1,98
 102 71 102 71 104 -3 c 0,99,100
 104 -151 104 -151 183.5 -233 c 128,-1,101
 263 -315 263 -315 426 -315 c 0,102,103
 513 -315 513 -315 599 -289.5 c 128,-1,104
 685 -264 685 -264 756.5 -220.5 c 128,-1,105
 828 -177 828 -177 877.5 -118.5 c 128,-1,106
 927 -60 927 -60 942 5 c 1,107,108
 942 43 942 43 939 81 c 128,-1,109
 936 119 936 119 923.5 166 c 128,-1,110
 911 213 911 213 886 274 c 128,-1,111
 861 335 861 335 818 419 c 1,112,113
 818 422 818 422 820 439 c 128,-1,114
 822 456 822 456 825.5 479 c 128,-1,115
 829 502 829 502 834 528 c 128,-1,116
 839 554 839 554 845.5 576 c 128,-1,117
 852 598 852 598 860 612.5 c 128,-1,118
 868 627 868 627 877 627 c 0,119,120
 889 627 889 627 899.5 618.5 c 128,-1,121
 910 610 910 610 922.5 589 c 128,-1,122
 935 568 935 568 950.5 533.5 c 128,-1,123
 966 499 966 499 988 447 c 1,124,125
 1067 447 1067 447 1122.5 453.5 c 128,-1,126
 1178 460 1178 460 1216 473.5 c 128,-1,127
 1254 487 1254 487 1278 507.5 c 128,-1,128
 1302 528 1302 528 1319 556 c 1,129,-1
 1405 762 l 1,130,131
 1423 763 1423 763 1431.5 758 c 128,-1,132
 1440 753 1440 753 1444 744.5 c 128,-1,133
 1448 736 1448 736 1450.5 726 c 128,-1,134
 1453 716 1453 716 1459 708 c 1,135,-1
 1422 584 l 1,136,137
 1425 571 1425 571 1441 561.5 c 128,-1,138
 1457 552 1457 552 1478 546 c 128,-1,139
 1499 540 1499 540 1522.5 537 c 128,-1,140
 1546 534 1546 534 1564 534 c 0,141,142
 1583 534 1583 534 1593 537 c 128,-1,143
 1603 540 1603 540 1599 545 c 1,144,145
 1600 549 1600 549 1601 552.5 c 128,-1,146
 1602 556 1602 556 1602 560 c 0,147,148
 1602 575 1602 575 1593 595.5 c 128,-1,149
 1584 616 1584 616 1566 660 c 1,150,-1
 1628 823 l 1,151,152
 1671 800 1671 800 1695 751.5 c 128,-1,153
 1719 703 1719 703 1719 636 c 0,56,57
EndSplineSet
Substitution2: "'fina' Terminal Forms in Arabic lookup 3 subtable" sheenfinal
Substitution2: "'medi' Medial Forms in Arabic lookup 2 subtable" sheenmedial
Substitution2: "'init' Initial Forms in Arabic lookup 1 subtable" sheeninitial
Substitution2: "'isol' Isolated Forms in Arabic lookup 0 subtable" sheenisolated
EndChar

StartChar: sad
Encoding: 1589 1589 24
Width: 2122
Flags: W
AnchorPoint: "ArabicBelow" 1061 -809 basechar 0
AnchorPoint: "ArabicAbove" 1061 1157 basechar 0
LayerCount: 2
Fore
SplineSet
2113.71 714 m 0,0,1
 2113.71 644 2113.71 644 2085.71 575.5 c 128,-1,2
 2057.71 507 2057.71 507 2006.21 445 c 128,-1,3
 1954.71 383 1954.71 383 1883.21 330 c 128,-1,4
 1811.71 277 1811.71 277 1723.71 238.5 c 128,-1,5
 1635.71 200 1635.71 200 1534.21 178 c 128,-1,6
 1432.71 156 1432.71 156 1322.71 156 c 0,7,8
 1266.71 156 1266.71 156 1218.71 164 c 128,-1,9
 1170.71 172 1170.71 172 1116.71 195 c 1,10,11
 1103.71 87 1103.71 87 1085.21 -10.5 c 128,-1,12
 1066.71 -108 1066.71 -108 1036.21 -191.5 c 128,-1,13
 1005.71 -275 1005.71 -275 959.71 -343 c 128,-1,14
 913.71 -411 913.71 -411 847.21 -459 c 128,-1,15
 780.71 -507 780.71 -507 689.21 -533 c 128,-1,16
 597.71 -559 597.71 -559 475.71 -559 c 0,17,18
 348.71 -559 348.71 -559 262.71 -516 c 128,-1,19
 176.71 -473 176.71 -473 125.71 -401.5 c 128,-1,20
 74.71 -330 74.71 -330 55.21 -239 c 128,-1,21
 35.71 -148 35.71 -148 41.21 -52 c 128,-1,22
 46.71 44 46.71 44 74.21 137 c 128,-1,23
 101.71 230 101.71 230 144.71 305 c 1,24,25
 166.71 303 166.71 303 170.21 291 c 128,-1,26
 173.71 279 173.71 279 173.71 266 c 0,27,28
 173.71 264 173.71 264 169.21 248 c 128,-1,29
 164.71 232 164.71 232 157.71 208 c 128,-1,30
 150.71 184 150.71 184 143.21 154.5 c 128,-1,31
 135.71 125 135.71 125 128.71 96.5 c 128,-1,32
 121.71 68 121.71 68 117.21 43 c 128,-1,33
 112.71 18 112.71 18 112.71 3 c 0,34,35
 112.71 -56 112.71 -56 131.71 -115 c 128,-1,36
 150.71 -174 150.71 -174 194.71 -221 c 128,-1,37
 238.71 -268 238.71 -268 312.21 -298 c 128,-1,38
 385.71 -328 385.71 -328 494.71 -328 c 0,39,40
 578.71 -328 578.71 -328 667.71 -306 c 128,-1,41
 756.71 -284 756.71 -284 831.21 -245.5 c 128,-1,42
 905.71 -207 905.71 -207 957.21 -155 c 128,-1,43
 1008.71 -103 1008.71 -103 1018.71 -43 c 1,44,45
 1018.71 39 1018.71 39 1011.21 103 c 128,-1,46
 1003.71 167 1003.71 167 986.71 220.5 c 128,-1,47
 969.71 274 969.71 274 942.21 319.5 c 128,-1,48
 914.71 365 914.71 365 874.71 412 c 1,49,50
 871.71 418 871.71 418 877.71 429 c 128,-1,51
 883.71 440 883.71 440 894.71 462.5 c 128,-1,52
 905.71 485 905.71 485 920.71 521.5 c 128,-1,53
 935.71 558 935.71 558 950.71 615 c 1,54,55
 963.71 615 963.71 615 972.21 612.5 c 128,-1,56
 980.71 610 980.71 610 992.71 595 c 128,-1,57
 1004.71 580 1004.71 580 1024.21 547.5 c 128,-1,58
 1043.71 515 1043.71 515 1077.71 455 c 1,59,-1
 1204.71 415 l 1,60,61
 1339.71 560 1339.71 560 1437.71 655.5 c 128,-1,62
 1535.71 751 1535.71 751 1607.21 806.5 c 128,-1,63
 1678.71 862 1678.71 862 1728.71 884.5 c 128,-1,64
 1778.71 907 1778.71 907 1818.71 907 c 0,65,66
 1873.71 907 1873.71 907 1927.21 892.5 c 128,-1,67
 1980.71 878 1980.71 878 2021.71 852 c 128,-1,68
 2062.71 826 2062.71 826 2088.21 791 c 128,-1,69
 2113.71 756 2113.71 756 2113.71 714 c 0,0,1
1959.71 569 m 1,70,71
 1952.71 624 1952.71 624 1898.71 651.5 c 128,-1,72
 1844.71 679 1844.71 679 1732.71 679 c 0,73,74
 1708.71 679 1708.71 679 1678.71 668 c 128,-1,75
 1648.71 657 1648.71 657 1602.71 625.5 c 128,-1,76
 1556.71 594 1556.71 594 1488.71 537 c 128,-1,77
 1420.71 480 1420.71 480 1318.71 389 c 1,78,79
 1424.71 389 1424.71 389 1524.21 405.5 c 128,-1,80
 1623.71 422 1623.71 422 1707.71 448 c 128,-1,81
 1791.71 474 1791.71 474 1856.71 506 c 128,-1,82
 1921.71 538 1921.71 538 1959.71 569 c 1,70,71
EndSplineSet
Substitution2: "'fina' Terminal Forms in Arabic lookup 3 subtable" sadfinal
Substitution2: "'medi' Medial Forms in Arabic lookup 2 subtable" sadmedial
Substitution2: "'init' Initial Forms in Arabic lookup 1 subtable" sadinitial
Substitution2: "'isol' Isolated Forms in Arabic lookup 0 subtable" sadisolated
EndChar

StartChar: dad
Encoding: 1590 1590 25
Width: 2122
Flags: W
AnchorPoint: "ArabicBelow" 1061 -809 basechar 0
AnchorPoint: "ArabicAbove" 1061 1599 basechar 0
LayerCount: 2
Fore
SplineSet
2109.41 714 m 0,0,1
 2109.41 644 2109.41 644 2081.41 575.5 c 128,-1,2
 2053.41 507 2053.41 507 2001.91 445 c 128,-1,3
 1950.41 383 1950.41 383 1878.91 330 c 128,-1,4
 1807.41 277 1807.41 277 1719.41 238.5 c 128,-1,5
 1631.41 200 1631.41 200 1529.91 178 c 128,-1,6
 1428.41 156 1428.41 156 1318.41 156 c 0,7,8
 1262.41 156 1262.41 156 1214.41 164 c 128,-1,9
 1166.41 172 1166.41 172 1112.41 195 c 1,10,11
 1099.41 87 1099.41 87 1080.91 -10.5 c 128,-1,12
 1062.41 -108 1062.41 -108 1031.91 -191.5 c 128,-1,13
 1001.41 -275 1001.41 -275 955.912 -343 c 128,-1,14
 910.412 -411 910.412 -411 843.412 -459 c 128,-1,15
 776.412 -507 776.412 -507 684.912 -533 c 128,-1,16
 593.412 -559 593.412 -559 471.412 -559 c 0,17,18
 344.412 -559 344.412 -559 258.412 -516 c 128,-1,19
 172.412 -473 172.412 -473 121.412 -402 c 128,-1,20
 70.4121 -331 70.4121 -331 50.9121 -239.5 c 128,-1,21
 31.4121 -148 31.4121 -148 37.4121 -52 c 128,-1,22
 43.4121 44 43.4121 44 70.9121 137 c 128,-1,23
 98.4121 230 98.4121 230 141.412 305 c 1,24,25
 163.412 303 163.412 303 166.412 291 c 128,-1,26
 169.412 279 169.412 279 169.412 266 c 0,27,28
 169.412 264 169.412 264 164.912 248 c 128,-1,29
 160.412 232 160.412 232 153.412 208 c 128,-1,30
 146.412 184 146.412 184 138.912 154.5 c 128,-1,31
 131.412 125 131.412 125 124.412 96.5 c 128,-1,32
 117.412 68 117.412 68 112.912 43 c 128,-1,33
 108.412 18 108.412 18 108.412 3 c 0,34,35
 108.412 -56 108.412 -56 127.412 -115 c 128,-1,36
 146.412 -174 146.412 -174 190.412 -221 c 128,-1,37
 234.412 -268 234.412 -268 307.912 -298 c 128,-1,38
 381.412 -328 381.412 -328 490.412 -328 c 0,39,40
 574.412 -328 574.412 -328 663.412 -306 c 128,-1,41
 752.412 -284 752.412 -284 826.912 -245.5 c 128,-1,42
 901.412 -207 901.412 -207 952.912 -155 c 128,-1,43
 1004.41 -103 1004.41 -103 1014.41 -43 c 1,44,45
 1014.41 39 1014.41 39 1006.91 103 c 128,-1,46
 999.412 167 999.412 167 982.412 220.5 c 128,-1,47
 965.412 274 965.412 274 937.912 319.5 c 128,-1,48
 910.412 365 910.412 365 870.412 412 c 1,49,50
 867.412 419 867.412 419 873.412 430 c 128,-1,51
 879.412 441 879.412 441 890.912 462.5 c 128,-1,52
 902.412 484 902.412 484 917.412 520.5 c 128,-1,53
 932.412 557 932.412 557 947.412 615 c 1,54,55
 959.412 615 959.412 615 967.912 612.5 c 128,-1,56
 976.412 610 976.412 610 988.412 595 c 128,-1,57
 1000.41 580 1000.41 580 1019.91 547.5 c 128,-1,58
 1039.41 515 1039.41 515 1073.41 455 c 1,59,-1
 1200.41 415 l 1,60,61
 1335.41 560 1335.41 560 1433.41 655.5 c 128,-1,62
 1531.41 751 1531.41 751 1602.91 806.5 c 128,-1,63
 1674.41 862 1674.41 862 1724.41 884.5 c 128,-1,64
 1774.41 907 1774.41 907 1814.41 907 c 0,65,66
 1869.41 907 1869.41 907 1922.91 892.5 c 128,-1,67
 1976.41 878 1976.41 878 2017.41 852 c 128,-1,68
 2058.41 826 2058.41 826 2083.91 791 c 128,-1,69
 2109.41 756 2109.41 756 2109.41 714 c 0,0,1
1955.41 569 m 1,70,71
 1948.41 624 1948.41 624 1894.41 651.5 c 128,-1,72
 1840.41 679 1840.41 679 1728.41 679 c 0,73,74
 1705.41 679 1705.41 679 1675.41 668 c 128,-1,75
 1645.41 657 1645.41 657 1598.91 625.5 c 128,-1,76
 1552.41 594 1552.41 594 1483.91 537.5 c 128,-1,77
 1415.41 481 1415.41 481 1314.41 389 c 1,78,79
 1420.41 389 1420.41 389 1519.91 405.5 c 128,-1,80
 1619.41 422 1619.41 422 1703.41 448 c 128,-1,81
 1787.41 474 1787.41 474 1852.41 506 c 128,-1,82
 1917.41 538 1917.41 538 1955.41 569 c 1,70,71
1363.41 1231 m 1,83,-1
 1229.41 1092 l 1,84,-1
 1084.41 1208 l 1,85,-1
 1205.41 1349 l 1,86,-1
 1363.41 1231 l 1,83,-1
EndSplineSet
Substitution2: "'fina' Terminal Forms in Arabic lookup 3 subtable" dadfinal
Substitution2: "'medi' Medial Forms in Arabic lookup 2 subtable" dadmedial
Substitution2: "'init' Initial Forms in Arabic lookup 1 subtable" dadinitial
Substitution2: "'isol' Isolated Forms in Arabic lookup 0 subtable" dadisolated
EndChar

StartChar: tah
Encoding: 1591 1591 26
Width: 1810
Flags: W
AnchorPoint: "ArabicBelow" 905 -318 basechar 0
AnchorPoint: "ArabicAbove" 905 2049 basechar 0
LayerCount: 2
Fore
SplineSet
1806.6 472 m 0,0,1
 1806.6 401 1806.6 401 1793.6 356.5 c 128,-1,2
 1780.6 312 1780.6 312 1757.6 278 c 128,-1,3
 1734.6 244 1734.6 244 1702.1 213.5 c 128,-1,4
 1669.6 183 1669.6 183 1629.6 139 c 0,5,6
 1581.6 93 1581.6 93 1496.1 57.5 c 128,-1,7
 1410.6 22 1410.6 22 1302.6 -3.5 c 128,-1,8
 1194.6 -29 1194.6 -29 1070.6 -44.5 c 128,-1,9
 946.6 -60 946.6 -60 821.6 -65.5 c 128,-1,10
 696.6 -71 696.6 -71 577.6 -66.5 c 128,-1,11
 458.6 -62 458.6 -62 359.6 -48 c 0,12,13
 357.6 -48 357.6 -48 352.6 -46.5 c 128,-1,14
 347.6 -45 347.6 -45 334.6 -38 c 128,-1,15
 321.6 -31 321.6 -31 298.1 -18 c 128,-1,16
 274.6 -5 274.6 -5 235.1 18 c 128,-1,17
 195.6 41 195.6 41 138.6 75.5 c 128,-1,18
 81.5996 110 81.5996 110 0.599609 159 c 0,19,20
 -0.400391 160 -0.400391 160 -1.90039 165.5 c 128,-1,21
 -3.40039 171 -3.40039 171 -3.90039 178 c 128,-1,22
 -4.40039 185 -4.40039 185 -2.40039 190.5 c 128,-1,23
 -0.400391 196 -0.400391 196 5.59961 196 c 0,24,25
 95.5996 186 95.5996 186 159.1 180 c 128,-1,26
 222.6 174 222.6 174 275.1 170.5 c 128,-1,27
 327.6 167 327.6 167 377.1 166 c 128,-1,28
 426.6 165 426.6 165 489.6 165 c 2,29,-1
 605.6 165 l 1,30,-1
 746.6 250 l 1,31,32
 736.6 447 736.6 447 722.1 609 c 128,-1,33
 707.6 771 707.6 771 692.6 910.5 c 128,-1,34
 677.6 1050 677.6 1050 664.1 1173 c 128,-1,35
 650.6 1296 650.6 1296 642.6 1416 c 1,36,37
 591.6 1479 591.6 1479 574.1 1532.5 c 128,-1,38
 556.6 1586 556.6 1586 564.6 1616 c 0,39,40
 567.6 1634 567.6 1634 581.1 1665 c 128,-1,41
 594.6 1696 594.6 1696 610.6 1726 c 128,-1,42
 626.6 1756 626.6 1756 640.1 1777.5 c 128,-1,43
 653.6 1799 653.6 1799 655.6 1799 c 1,44,45
 646.6 1799 646.6 1799 651.1 1784.5 c 128,-1,46
 655.6 1770 655.6 1770 668.1 1748 c 128,-1,47
 680.6 1726 680.6 1726 699.1 1701 c 128,-1,48
 717.6 1676 717.6 1676 737.1 1654 c 128,-1,49
 756.6 1632 756.6 1632 774.6 1617.5 c 128,-1,50
 792.6 1603 792.6 1603 804.6 1603 c 1,51,52
 811.6 1563 811.6 1563 813.6 1538 c 128,-1,53
 815.6 1513 815.6 1513 811.1 1493.5 c 128,-1,54
 806.6 1474 806.6 1474 793.6 1456 c 128,-1,55
 780.6 1438 780.6 1438 758.6 1413 c 1,56,57
 759.6 1412 759.6 1412 765.1 1365.5 c 128,-1,58
 770.6 1319 770.6 1319 778.6 1241 c 128,-1,59
 786.6 1163 786.6 1163 796.1 1060 c 128,-1,60
 805.6 957 805.6 957 815.1 843 c 128,-1,61
 824.6 729 824.6 729 832.6 610.5 c 128,-1,62
 840.6 492 840.6 492 845.6 383 c 0,63,64
 845.6 380 845.6 380 845.1 375.5 c 128,-1,65
 844.6 371 844.6 371 842.6 362 c 128,-1,66
 840.6 353 840.6 353 836.6 338 c 128,-1,67
 832.6 323 832.6 323 824.6 298 c 1,68,69
 850.6 325 850.6 325 901.6 366.5 c 128,-1,70
 952.6 408 952.6 408 1016.6 453.5 c 128,-1,71
 1080.6 499 1080.6 499 1150.6 543.5 c 128,-1,72
 1220.6 588 1220.6 588 1284.6 620.5 c 128,-1,73
 1348.6 653 1348.6 653 1399.6 668.5 c 128,-1,74
 1450.6 684 1450.6 684 1476.6 672 c 1,75,76
 1507.6 669 1507.6 669 1544.1 659.5 c 128,-1,77
 1580.6 650 1580.6 650 1617.6 635.5 c 128,-1,78
 1654.6 621 1654.6 621 1688.6 602.5 c 128,-1,79
 1722.6 584 1722.6 584 1748.6 562.5 c 128,-1,80
 1774.6 541 1774.6 541 1790.6 518 c 128,-1,81
 1806.6 495 1806.6 495 1806.6 472 c 0,0,1
1610.6 312 m 0,82,83
 1631.6 324 1631.6 324 1614.1 343 c 128,-1,84
 1596.6 362 1596.6 362 1560.1 381.5 c 128,-1,85
 1523.6 401 1523.6 401 1476.6 417.5 c 128,-1,86
 1429.6 434 1429.6 434 1390.6 442 c 1,87,88
 1345.6 442 1345.6 442 1283.6 423 c 128,-1,89
 1221.6 404 1221.6 404 1149.1 369 c 128,-1,90
 1076.6 334 1076.6 334 997.6 283.5 c 128,-1,91
 918.6 233 918.6 233 839.6 169 c 1,92,93
 946.6 173 946.6 173 1022.1 176.5 c 128,-1,94
 1097.6 180 1097.6 180 1148.6 183 c 128,-1,95
 1199.6 186 1199.6 186 1230.6 188.5 c 128,-1,96
 1261.6 191 1261.6 191 1279.6 193 c 128,-1,97
 1297.6 195 1297.6 195 1305.1 196.5 c 128,-1,98
 1312.6 198 1312.6 198 1318.6 199 c 0,99,100
 1344.6 204 1344.6 204 1365.1 207.5 c 128,-1,101
 1385.6 211 1385.6 211 1404.1 215 c 128,-1,102
 1422.6 219 1422.6 219 1441.6 225.5 c 128,-1,103
 1460.6 232 1460.6 232 1484.1 243 c 128,-1,104
 1507.6 254 1507.6 254 1538.1 270.5 c 128,-1,105
 1568.6 287 1568.6 287 1610.6 312 c 0,82,83
EndSplineSet
Substitution2: "'fina' Terminal Forms in Arabic lookup 3 subtable" tahfinal
Substitution2: "'medi' Medial Forms in Arabic lookup 2 subtable" tahmedial
Substitution2: "'init' Initial Forms in Arabic lookup 1 subtable" tahinitial
Substitution2: "'isol' Isolated Forms in Arabic lookup 0 subtable" tahisolated
EndChar

StartChar: zah
Encoding: 1592 1592 27
Width: 1828
Flags: W
AnchorPoint: "ArabicBelow" 914 -318 basechar 0
AnchorPoint: "ArabicAbove" 914 2049 basechar 0
LayerCount: 2
Fore
SplineSet
1816 472 m 0,0,1
 1816 401 1816 401 1803 356.5 c 128,-1,2
 1790 312 1790 312 1767 278 c 128,-1,3
 1744 244 1744 244 1711.5 213.5 c 128,-1,4
 1679 183 1679 183 1639 139 c 0,5,6
 1591 93 1591 93 1505.5 57.5 c 128,-1,7
 1420 22 1420 22 1312 -3.5 c 128,-1,8
 1204 -29 1204 -29 1080 -44.5 c 128,-1,9
 956 -60 956 -60 831 -65.5 c 128,-1,10
 706 -71 706 -71 587 -66.5 c 128,-1,11
 468 -62 468 -62 369 -48 c 0,12,13
 367 -48 367 -48 362 -46.5 c 128,-1,14
 357 -45 357 -45 344 -38 c 128,-1,15
 331 -31 331 -31 307.5 -18 c 128,-1,16
 284 -5 284 -5 244.5 18 c 128,-1,17
 205 41 205 41 148 75.5 c 128,-1,18
 91 110 91 110 10 159 c 0,19,20
 9 160 9 160 7.5 165.5 c 128,-1,21
 6 171 6 171 6 178 c 256,22,23
 6 185 6 185 8 190.5 c 128,-1,24
 10 196 10 196 16 196 c 0,25,26
 106 186 106 186 169 180 c 128,-1,27
 232 174 232 174 284.5 170.5 c 128,-1,28
 337 167 337 167 386.5 166 c 128,-1,29
 436 165 436 165 499 165 c 2,30,-1
 615 165 l 1,31,-1
 757 250 l 1,32,33
 746 447 746 447 731 609 c 128,-1,34
 716 771 716 771 701 910.5 c 128,-1,35
 686 1050 686 1050 673 1173 c 128,-1,36
 660 1296 660 1296 653 1416 c 1,37,38
 602 1479 602 1479 584 1532.5 c 128,-1,39
 566 1586 566 1586 575 1616 c 1,40,41
 577 1634 577 1634 590.5 1665 c 128,-1,42
 604 1696 604 1696 620 1726 c 128,-1,43
 636 1756 636 1756 650 1777.5 c 128,-1,44
 664 1799 664 1799 666 1799 c 1,45,46
 657 1799 657 1799 661 1784.5 c 128,-1,47
 665 1770 665 1770 677.5 1748 c 128,-1,48
 690 1726 690 1726 708.5 1701 c 128,-1,49
 727 1676 727 1676 746.5 1654 c 128,-1,50
 766 1632 766 1632 784 1617.5 c 128,-1,51
 802 1603 802 1603 814 1603 c 1,52,53
 822 1564 822 1564 824.5 1538.5 c 128,-1,54
 827 1513 827 1513 821.5 1493.5 c 128,-1,55
 816 1474 816 1474 803 1456 c 128,-1,56
 790 1438 790 1438 768 1413 c 1,57,58
 769 1412 769 1412 774.5 1365.5 c 128,-1,59
 780 1319 780 1319 788 1241 c 128,-1,60
 796 1163 796 1163 805.5 1060 c 128,-1,61
 815 957 815 957 824.5 843 c 128,-1,62
 834 729 834 729 842 610.5 c 128,-1,63
 850 492 850 492 855 383 c 0,64,65
 855 381 855 381 854.5 376.5 c 128,-1,66
 854 372 854 372 852 362.5 c 128,-1,67
 850 353 850 353 846 337.5 c 128,-1,68
 842 322 842 322 835 298 c 1,69,70
 861 325 861 325 912 366.5 c 128,-1,71
 963 408 963 408 1027 453.5 c 128,-1,72
 1091 499 1091 499 1160.5 543.5 c 128,-1,73
 1230 588 1230 588 1294 620.5 c 128,-1,74
 1358 653 1358 653 1409 668.5 c 128,-1,75
 1460 684 1460 684 1486 672 c 1,76,77
 1517 669 1517 669 1553.5 659.5 c 128,-1,78
 1590 650 1590 650 1627 635.5 c 128,-1,79
 1664 621 1664 621 1698 602.5 c 128,-1,80
 1732 584 1732 584 1758 562.5 c 128,-1,81
 1784 541 1784 541 1800 518 c 128,-1,82
 1816 495 1816 495 1816 472 c 0,0,1
1620 312 m 0,83,84
 1641 324 1641 324 1623.5 343 c 128,-1,85
 1606 362 1606 362 1569.5 381.5 c 128,-1,86
 1533 401 1533 401 1486 417.5 c 128,-1,87
 1439 434 1439 434 1400 442 c 1,88,89
 1355 442 1355 442 1293 423 c 128,-1,90
 1231 404 1231 404 1158.5 369 c 128,-1,91
 1086 334 1086 334 1007 283.5 c 128,-1,92
 928 233 928 233 849 169 c 1,93,94
 956 173 956 173 1031.5 176.5 c 128,-1,95
 1107 180 1107 180 1158.5 183 c 128,-1,96
 1210 186 1210 186 1241 188.5 c 128,-1,97
 1272 191 1272 191 1289.5 193 c 128,-1,98
 1307 195 1307 195 1315 196.5 c 128,-1,99
 1323 198 1323 198 1329 199 c 0,100,101
 1355 204 1355 204 1375.5 207.5 c 128,-1,102
 1396 211 1396 211 1414 215 c 128,-1,103
 1432 219 1432 219 1451 225.5 c 128,-1,104
 1470 232 1470 232 1493.5 243 c 128,-1,105
 1517 254 1517 254 1547.5 270.5 c 128,-1,106
 1578 287 1578 287 1620 312 c 0,83,84
1332 1327 m 1,107,-1
 1231 1162 l 1,108,-1
 1066 1245 l 1,109,-1
 1153 1409 l 1,110,-1
 1332 1327 l 1,107,-1
EndSplineSet
Substitution2: "'fina' Terminal Forms in Arabic lookup 3 subtable" zahfinal
Substitution2: "'medi' Medial Forms in Arabic lookup 2 subtable" zahmedial
Substitution2: "'init' Initial Forms in Arabic lookup 1 subtable" zahinitial
Substitution2: "'isol' Isolated Forms in Arabic lookup 0 subtable" zahisolated
EndChar

StartChar: ain
Encoding: 1593 1593 28
Width: 1010
Flags: W
AnchorPoint: "ArabicBelow" 505 -1586 basechar 0
AnchorPoint: "ArabicAbove" 505 1250 basechar 0
LayerCount: 2
Fore
SplineSet
1540.01 -1134 m 1,0,1
 1475.01 -1182 1475.01 -1182 1386.51 -1221.5 c 128,-1,2
 1298.01 -1261 1298.01 -1261 1196.01 -1288 c 128,-1,3
 1094.01 -1315 1094.01 -1315 983.511 -1327.5 c 128,-1,4
 873.011 -1340 873.011 -1340 763.011 -1336 c 128,-1,5
 653.011 -1332 653.011 -1332 548.011 -1309 c 128,-1,6
 443.011 -1286 443.011 -1286 352.011 -1241 c 128,-1,7
 261.011 -1196 261.011 -1196 189.511 -1127 c 128,-1,8
 118.011 -1058 118.011 -1058 75.0107 -963 c 0,9,10
 32.0107 -872 32.0107 -872 20.5107 -770.5 c 128,-1,11
 9.01074 -669 9.01074 -669 21.5107 -563 c 128,-1,12
 34.0107 -457 34.0107 -457 67.5107 -350 c 128,-1,13
 101.011 -243 101.011 -243 147.511 -141.5 c 128,-1,14
 194.011 -40 194.011 -40 250.011 52 c 128,-1,15
 306.011 144 306.011 144 364.011 220 c 1,16,17
 264.011 250 264.011 250 200.011 309.5 c 128,-1,18
 136.011 369 136.011 369 106.011 443 c 128,-1,19
 76.0107 517 76.0107 517 79.5107 599.5 c 128,-1,20
 83.0107 682 83.0107 682 118.011 758.5 c 128,-1,21
 153.011 835 153.011 835 217.511 899 c 128,-1,22
 282.011 963 282.011 963 374.011 1000 c 1,23,24
 448.011 1002 448.011 1002 500.511 993 c 128,-1,25
 553.011 984 553.011 984 595.011 963 c 128,-1,26
 637.011 942 637.011 942 673.511 908.5 c 128,-1,27
 710.011 875 710.011 875 753.011 828 c 0,28,29
 770.011 810 770.011 810 769.511 796 c 128,-1,30
 769.011 782 769.011 782 759.511 774 c 128,-1,31
 750.011 766 750.011 766 734.511 764.5 c 128,-1,32
 719.011 763 719.011 763 706.011 771 c 0,33,34
 675.011 790 675.011 790 645.511 805 c 128,-1,35
 616.011 820 616.011 820 578.011 827 c 128,-1,36
 540.011 834 540.011 834 489.011 832 c 128,-1,37
 438.011 830 438.011 830 363.011 816 c 0,38,39
 326.011 812 326.011 812 296.011 798.5 c 128,-1,40
 266.011 785 266.011 785 244.511 768 c 128,-1,41
 223.011 751 223.011 751 210.011 733 c 128,-1,42
 197.011 715 197.011 715 194.011 701 c 0,43,44
 190.011 665 190.011 665 212.011 619 c 128,-1,45
 234.011 573 234.011 573 284.511 530.5 c 128,-1,46
 335.011 488 335.011 488 414.511 455 c 128,-1,47
 494.011 422 494.011 422 605.011 412 c 1,48,49
 703.011 469 703.011 469 771.511 508.5 c 128,-1,50
 840.011 548 840.011 548 885.511 574 c 128,-1,51
 931.011 600 931.011 600 957.011 614 c 128,-1,52
 983.011 628 983.011 628 996.511 635 c 128,-1,53
 1010.01 642 1010.01 642 1014.01 643.5 c 128,-1,54
 1018.01 645 1018.01 645 1020.01 645 c 0,55,56
 1031.01 645 1031.01 645 1032.01 626.5 c 128,-1,57
 1033.01 608 1033.01 608 1027.01 580.5 c 128,-1,58
 1021.01 553 1021.01 553 1010.51 522 c 128,-1,59
 1000.01 491 1000.01 491 989.011 465.5 c 128,-1,60
 978.011 440 978.011 440 968.511 425 c 128,-1,61
 959.011 410 959.011 410 955.011 415 c 1,62,63
 844.011 343 844.011 343 765.511 296.5 c 128,-1,64
 687.011 250 687.011 250 630.511 218 c 128,-1,65
 574.011 186 574.011 186 536.011 163 c 128,-1,66
 498.011 140 498.011 140 468.011 116 c 128,-1,67
 438.011 92 438.011 92 412.511 60.5 c 128,-1,68
 387.011 29 387.011 29 356.011 -19.5 c 128,-1,69
 325.011 -68 325.011 -68 284.511 -139 c 128,-1,70
 244.011 -210 244.011 -210 184.011 -315 c 1,71,72
 133.011 -455 133.011 -455 127.011 -577 c 128,-1,73
 121.011 -699 121.011 -699 172.011 -798 c 128,-1,74
 223.011 -897 223.011 -897 337.511 -971.5 c 128,-1,75
 452.011 -1046 452.011 -1046 641.011 -1091 c 0,76,77
 761.011 -1106 761.011 -1106 850.011 -1116.5 c 128,-1,78
 939.011 -1127 939.011 -1127 1009.51 -1132.5 c 128,-1,79
 1080.01 -1138 1080.01 -1138 1138.01 -1139 c 128,-1,80
 1196.01 -1140 1196.01 -1140 1254.51 -1136.5 c 128,-1,81
 1313.01 -1133 1313.01 -1133 1378.01 -1125.5 c 128,-1,82
 1443.01 -1118 1443.01 -1118 1528.01 -1106 c 1,83,84
 1540.01 -1120 1540.01 -1120 1540.01 -1134 c 1,0,1
EndSplineSet
Substitution2: "'fina' Terminal Forms in Arabic lookup 3 subtable" ainfinal
Substitution2: "'medi' Medial Forms in Arabic lookup 2 subtable" ainmedial
Substitution2: "'init' Initial Forms in Arabic lookup 1 subtable" aininitial
Substitution2: "'isol' Isolated Forms in Arabic lookup 0 subtable" ainisolated
EndChar

StartChar: ghain
Encoding: 1594 1594 29
Width: 1043
Flags: W
AnchorPoint: "ArabicBelow" 521 -1586 basechar 0
AnchorPoint: "ArabicAbove" 521 1910 basechar 0
LayerCount: 2
Fore
SplineSet
1523.9 -1134 m 1,0,1
 1523.9 -1120 1523.9 -1120 1511.9 -1106 c 1,2,3
 1427.9 -1118 1427.9 -1118 1363.4 -1126 c 128,-1,4
 1298.9 -1134 1298.9 -1134 1239.9 -1137.5 c 128,-1,5
 1180.9 -1141 1180.9 -1141 1122.4 -1140.5 c 128,-1,6
 1063.9 -1140 1063.9 -1140 993.398 -1134 c 128,-1,7
 922.898 -1128 922.898 -1128 833.898 -1117.5 c 128,-1,8
 744.898 -1107 744.898 -1107 625.898 -1091 c 0,9,10
 436.898 -1046 436.898 -1046 322.398 -971.5 c 128,-1,11
 207.898 -897 207.898 -897 156.398 -798 c 128,-1,12
 104.898 -699 104.898 -699 110.898 -577 c 128,-1,13
 116.898 -455 116.898 -455 167.898 -315 c 1,14,15
 227.898 -210 227.898 -210 268.398 -139 c 128,-1,16
 308.898 -68 308.898 -68 339.898 -19.5 c 128,-1,17
 370.898 29 370.898 29 396.898 60.5 c 128,-1,18
 422.898 92 422.898 92 452.398 116 c 128,-1,19
 481.898 140 481.898 140 520.398 163 c 128,-1,20
 558.898 186 558.898 186 614.898 218 c 128,-1,21
 670.898 250 670.898 250 749.898 296.5 c 128,-1,22
 828.898 343 828.898 343 938.898 415 c 1,23,24
 942.898 410 942.898 410 952.898 425 c 128,-1,25
 962.898 440 962.898 440 973.898 465.5 c 128,-1,26
 984.898 491 984.898 491 995.398 522 c 128,-1,27
 1005.9 553 1005.9 553 1011.9 580.5 c 128,-1,28
 1017.9 608 1017.9 608 1016.9 626.5 c 128,-1,29
 1015.9 645 1015.9 645 1003.9 645 c 0,30,31
 1001.9 645 1001.9 645 997.898 643.5 c 128,-1,32
 993.898 642 993.898 642 980.398 635 c 128,-1,33
 966.898 628 966.898 628 940.898 614 c 128,-1,34
 914.898 600 914.898 600 869.398 574 c 128,-1,35
 823.898 548 823.898 548 755.398 508.5 c 128,-1,36
 686.898 469 686.898 469 588.898 412 c 1,37,38
 477.898 422 477.898 422 398.398 455 c 128,-1,39
 318.898 488 318.898 488 268.898 530.5 c 128,-1,40
 218.898 573 218.898 573 196.898 619 c 128,-1,41
 174.898 665 174.898 665 178.898 701 c 0,42,43
 180.898 715 180.898 715 193.398 733 c 128,-1,44
 205.898 751 205.898 751 227.898 768 c 128,-1,45
 249.898 785 249.898 785 280.398 798.5 c 128,-1,46
 310.898 812 310.898 812 347.898 816 c 0,47,48
 421.898 830 421.898 830 473.398 832 c 128,-1,49
 524.898 834 524.898 834 562.898 826.5 c 128,-1,50
 600.898 819 600.898 819 630.398 804.5 c 128,-1,51
 659.898 790 659.898 790 690.898 771 c 0,52,53
 703.898 763 703.898 763 718.898 764 c 128,-1,54
 733.898 765 733.898 765 743.898 773.5 c 128,-1,55
 753.898 782 753.898 782 754.398 796 c 128,-1,56
 754.898 810 754.898 810 737.898 828 c 0,57,58
 694.898 875 694.898 875 657.898 908.5 c 128,-1,59
 620.898 942 620.898 942 579.398 963 c 128,-1,60
 537.898 984 537.898 984 485.398 993 c 128,-1,61
 432.898 1002 432.898 1002 357.898 1000 c 1,62,63
 265.898 963 265.898 963 201.398 899 c 128,-1,64
 136.898 835 136.898 835 102.398 758.5 c 128,-1,65
 67.8984 682 67.8984 682 64.3984 599.5 c 128,-1,66
 60.8984 517 60.8984 517 90.3984 442.5 c 128,-1,67
 119.898 368 119.898 368 183.898 309 c 128,-1,68
 247.898 250 247.898 250 348.898 220 c 1,69,70
 290.898 143 290.898 143 234.898 51 c 128,-1,71
 178.898 -41 178.898 -41 131.898 -142 c 128,-1,72
 84.8984 -243 84.8984 -243 51.8984 -350 c 128,-1,73
 18.8984 -457 18.8984 -457 5.89844 -562.5 c 128,-1,74
 -7.10156 -668 -7.10156 -668 4.39844 -770 c 128,-1,75
 15.8984 -872 15.8984 -872 58.8984 -963 c 0,76,77
 101.898 -1058 101.898 -1058 173.398 -1127 c 128,-1,78
 244.898 -1196 244.898 -1196 335.898 -1241 c 128,-1,79
 426.898 -1286 426.898 -1286 531.898 -1309 c 128,-1,80
 636.898 -1332 636.898 -1332 746.898 -1336 c 128,-1,81
 856.898 -1340 856.898 -1340 967.898 -1327 c 128,-1,82
 1078.9 -1314 1078.9 -1314 1180.4 -1287 c 128,-1,83
 1281.9 -1260 1281.9 -1260 1370.4 -1221 c 128,-1,84
 1458.9 -1182 1458.9 -1182 1523.9 -1134 c 1,0,1
471.898 1542 m 1,85,-1
 337.898 1403 l 1,86,-1
 193.898 1518 l 1,87,-1
 314.898 1660 l 1,88,-1
 471.898 1542 l 1,85,-1
EndSplineSet
Substitution2: "'fina' Terminal Forms in Arabic lookup 3 subtable" ghainfinal
Substitution2: "'medi' Medial Forms in Arabic lookup 2 subtable" ghainmedial
Substitution2: "'init' Initial Forms in Arabic lookup 1 subtable" ghaininitial
Substitution2: "'isol' Isolated Forms in Arabic lookup 0 subtable" ghainisolated
EndChar

StartChar: tatweel
Encoding: 1600 1600 30
Width: 354
Flags: W
LayerCount: 2
Fore
SplineSet
399 207 m 1,0,-1
 399 -1 l 1,1,-1
 -46 -1 l 1,2,-1
 -46 207 l 1,3,-1
 399 207 l 1,0,-1
EndSplineSet
EndChar

StartChar: feh
Encoding: 1601 1601 31
Width: 1790
Flags: W
AnchorPoint: "ArabicBelow" 895 -324 basechar 0
AnchorPoint: "ArabicAbove" 895 1666 basechar 0
LayerCount: 2
Fore
SplineSet
1779 491 m 0,0,1
 1779 361 1779 361 1700.5 256.5 c 128,-1,2
 1622 152 1622 152 1476.5 78.5 c 128,-1,3
 1331 5 1331 5 1125 -34.5 c 128,-1,4
 919 -74 919 -74 663 -74 c 0,5,6
 529 -74 529 -74 415.5 -51.5 c 128,-1,7
 302 -29 302 -29 216.5 17 c 128,-1,8
 131 63 131 63 76 131.5 c 128,-1,9
 21 200 21 200 4 292 c 0,10,11
 -6 352 -6 352 9 409.5 c 128,-1,12
 24 467 24 467 49.5 517 c 128,-1,13
 75 567 75 567 103.5 605.5 c 128,-1,14
 132 644 132 644 147 667 c 1,15,-1
 184 667 l 1,16,17
 192 664 192 664 185.5 634.5 c 128,-1,18
 179 605 179 605 168 566.5 c 128,-1,19
 157 528 157 528 146.5 488.5 c 128,-1,20
 136 449 136 449 136 425 c 0,21,22
 136 359 136 359 173.5 301 c 128,-1,23
 211 243 211 243 280 200.5 c 128,-1,24
 349 158 349 158 446.5 133.5 c 128,-1,25
 544 109 544 109 663 109 c 0,26,27
 848 114 848 114 995.5 132 c 128,-1,28
 1143 150 1143 150 1256.5 175.5 c 128,-1,29
 1370 201 1370 201 1451 232.5 c 128,-1,30
 1532 264 1532 264 1584 296 c 128,-1,31
 1636 328 1636 328 1660 358.5 c 128,-1,32
 1684 389 1684 389 1684 412 c 0,33,34
 1684 418 1684 418 1680 429 c 128,-1,35
 1676 440 1676 440 1668.5 453 c 128,-1,36
 1661 466 1661 466 1650 479.5 c 128,-1,37
 1639 493 1639 493 1625 503 c 1,38,39
 1568 446 1568 446 1509.5 429.5 c 128,-1,40
 1451 413 1451 413 1403 432 c 128,-1,41
 1355 451 1355 451 1325 501.5 c 128,-1,42
 1295 552 1295 552 1295 629 c 0,43,44
 1295 656 1295 656 1304 693 c 128,-1,45
 1313 730 1313 730 1329 769.5 c 128,-1,46
 1345 809 1345 809 1365 847.5 c 128,-1,47
 1385 886 1385 886 1408 916.5 c 128,-1,48
 1431 947 1431 947 1454 965.5 c 128,-1,49
 1477 984 1477 984 1498 984 c 0,50,51
 1520 984 1520 984 1549.5 957 c 128,-1,52
 1579 930 1579 930 1610 886.5 c 128,-1,53
 1641 843 1641 843 1671.5 788.5 c 128,-1,54
 1702 734 1702 734 1726 679 c 128,-1,55
 1750 624 1750 624 1764.5 574.5 c 128,-1,56
 1779 525 1779 525 1779 491 c 0,0,1
1531 676 m 0,57,58
 1531 681 1531 681 1531.5 687 c 128,-1,59
 1532 693 1532 693 1527.5 703.5 c 128,-1,60
 1523 714 1523 714 1511 730 c 128,-1,61
 1499 746 1499 746 1475 770 c 1,62,63
 1452 765 1452 765 1435.5 750 c 128,-1,64
 1419 735 1419 735 1412 693 c 0,65,66
 1410 680 1410 680 1416 666 c 128,-1,67
 1422 652 1422 652 1432.5 641 c 128,-1,68
 1443 630 1443 630 1456.5 624.5 c 128,-1,69
 1470 619 1470 619 1484 623 c 2,70,71
 1489 623 1489 623 1497 627 c 128,-1,72
 1505 631 1505 631 1512.5 638 c 128,-1,73
 1520 645 1520 645 1525.5 654.5 c 128,-1,74
 1531 664 1531 664 1531 676 c 0,57,58
1579 1297 m 1,75,-1
 1445 1158 l 1,76,-1
 1300 1274 l 1,77,-1
 1421 1416 l 1,78,-1
 1579 1297 l 1,75,-1
EndSplineSet
Substitution2: "'fina' Terminal Forms in Arabic lookup 3 subtable" fehfinal
Substitution2: "'medi' Medial Forms in Arabic lookup 2 subtable" fehmedial
Substitution2: "'init' Initial Forms in Arabic lookup 1 subtable" fehinitial
Substitution2: "'isol' Isolated Forms in Arabic lookup 0 subtable" fehisolated
EndChar

StartChar: qaf
Encoding: 1602 1602 32
Width: 1382
Flags: W
AnchorPoint: "ArabicBelow" 691 -921 basechar 0
AnchorPoint: "ArabicAbove" 691 1371 basechar 0
LayerCount: 2
Fore
SplineSet
1163 1009 m 1,0,1
 1125 964 1125 964 1101 936 c 128,-1,2
 1077 908 1077 908 1063 892 c 128,-1,3
 1049 876 1049 876 1042.5 869.5 c 128,-1,4
 1036 863 1036 863 1033 862 c 1,5,6
 1016 871 1016 871 995.5 887.5 c 128,-1,7
 975 904 975 904 956 919 c 128,-1,8
 937 934 937 934 922 944 c 128,-1,9
 907 954 907 954 901 952 c 0,10,11
 896 951 896 951 887 941.5 c 128,-1,12
 878 932 878 932 867.5 919 c 128,-1,13
 857 906 857 906 846 890 c 128,-1,14
 835 874 835 874 826 861 c 128,-1,15
 817 848 817 848 810.5 838.5 c 128,-1,16
 804 829 804 829 803 828 c 1,17,-1
 650 937 l 1,18,19
 650 949 650 949 665.5 971 c 128,-1,20
 681 993 681 993 700.5 1015.5 c 128,-1,21
 720 1038 720 1038 737 1055 c 128,-1,22
 754 1072 754 1072 757 1074 c 1,23,24
 761 1083 761 1083 776.5 1073 c 128,-1,25
 792 1063 792 1063 812.5 1045.5 c 128,-1,26
 833 1028 833 1028 855 1008.5 c 128,-1,27
 877 989 877 989 894 979 c 1,28,-1
 919 1004 l 2,29,30
 932 1018 932 1018 946 1037 c 128,-1,31
 960 1056 960 1056 973.5 1073.5 c 128,-1,32
 987 1091 987 1091 999 1104.5 c 128,-1,33
 1011 1118 1011 1118 1020 1121 c 1,34,-1
 1163 1009 l 1,0,1
1377 -14 m 0,35,36
 1379 -115 1379 -115 1346.5 -203 c 128,-1,37
 1314 -291 1314 -291 1256 -364 c 128,-1,38
 1198 -437 1198 -437 1119.5 -494 c 128,-1,39
 1041 -551 1041 -551 951 -590.5 c 128,-1,40
 861 -630 861 -630 764 -650.5 c 128,-1,41
 667 -671 667 -671 573 -671 c 0,42,43
 459 -671 459 -671 360 -640 c 128,-1,44
 261 -609 261 -609 188 -552 c 128,-1,45
 115 -495 115 -495 73 -415.5 c 128,-1,46
 31 -336 31 -336 31 -238 c 0,47,48
 31 -199 31 -199 45.5 -141 c 128,-1,49
 60 -83 60 -83 86 -20 c 128,-1,50
 112 43 112 43 147.5 103.5 c 128,-1,51
 183 164 183 164 225 208 c 1,52,53
 234 199 234 199 232.5 185 c 128,-1,54
 231 171 231 171 223.5 149 c 128,-1,55
 216 127 216 127 205 96 c 128,-1,56
 194 65 194 65 184.5 23 c 128,-1,57
 175 -19 175 -19 170 -74 c 128,-1,58
 165 -129 165 -129 169 -198 c 1,59,60
 209 -325 209 -325 316.5 -392.5 c 128,-1,61
 424 -460 424 -460 595 -460 c 0,62,63
 651 -460 651 -460 723 -448.5 c 128,-1,64
 795 -437 795 -437 870 -415 c 128,-1,65
 945 -393 945 -393 1016.5 -360 c 128,-1,66
 1088 -327 1088 -327 1144 -284 c 128,-1,67
 1200 -241 1200 -241 1234.5 -188 c 128,-1,68
 1269 -135 1269 -135 1269 -72 c 0,69,70
 1269 -33 1269 -33 1256 3.5 c 128,-1,71
 1243 40 1243 40 1212 78 c 1,72,73
 1188 50 1188 50 1153.5 28 c 128,-1,74
 1119 6 1119 6 1085.5 -7.5 c 128,-1,75
 1052 -21 1052 -21 1025 -25 c 128,-1,76
 998 -29 998 -29 989 -21 c 1,77,78
 948 -21 948 -21 912.5 -2 c 128,-1,79
 877 17 877 17 850.5 51.5 c 128,-1,80
 824 86 824 86 808.5 133.5 c 128,-1,81
 793 181 793 181 793 237 c 1,82,83
 810 348 810 348 833.5 428 c 128,-1,84
 857 508 857 508 884 559.5 c 128,-1,85
 911 611 911 611 940 635 c 128,-1,86
 969 659 969 659 998 659 c 0,87,88
 1043 659 1043 659 1084 635.5 c 128,-1,89
 1125 612 1125 612 1164 558.5 c 128,-1,90
 1203 505 1203 505 1242 418.5 c 128,-1,91
 1281 332 1281 332 1323 205 c 0,92,93
 1351 118 1351 118 1363 64 c 128,-1,94
 1375 10 1375 10 1377 -14 c 0,35,36
1102 265 m 0,95,96
 1102 286 1102 286 1090.5 306 c 128,-1,97
 1079 326 1079 326 1061.5 344.5 c 128,-1,98
 1044 363 1044 363 1024 379 c 128,-1,99
 1004 395 1004 395 988 406 c 1,100,101
 961 387 961 387 942 358.5 c 128,-1,102
 923 330 923 330 919 307 c 1,103,104
 919 291 919 291 926.5 271 c 128,-1,105
 934 251 934 251 966 222 c 1,106,107
 1032 218 1032 218 1067 229.5 c 128,-1,108
 1102 241 1102 241 1102 265 c 0,95,96
EndSplineSet
Substitution2: "'fina' Terminal Forms in Arabic lookup 3 subtable" qaffinal
Substitution2: "'medi' Medial Forms in Arabic lookup 2 subtable" qafmedial
Substitution2: "'init' Initial Forms in Arabic lookup 1 subtable" qafinitial
Substitution2: "'isol' Isolated Forms in Arabic lookup 0 subtable" qafisolated
EndChar

StartChar: arabickaf
Encoding: 1603 1603 33
Width: 1603
Flags: W
AnchorPoint: "ArabicBelow" 801 -250 basechar 0
AnchorPoint: "ArabicAbove" 801 1967 basechar 0
LayerCount: 2
Fore
SplineSet
461 0 m 2,0,1
 362 -2 362 -2 281.5 26.5 c 128,-1,2
 201 55 201 55 144.5 112 c 128,-1,3
 88 169 88 169 57.5 253 c 128,-1,4
 27 337 27 337 27 447 c 0,5,6
 30 479 30 479 39 525.5 c 128,-1,7
 48 572 48 572 65.5 620.5 c 128,-1,8
 83 669 83 669 109.5 714.5 c 128,-1,9
 136 760 136 760 174 790 c 0,10,11
 193 804 193 804 201 805 c 128,-1,12
 209 806 209 806 209 799 c 256,13,14
 209 792 209 792 203.5 778.5 c 128,-1,15
 198 765 198 765 191.5 750 c 128,-1,16
 185 735 185 735 179 721 c 128,-1,17
 173 707 173 707 172 698 c 2,18,19
 146 620 146 620 143 559 c 128,-1,20
 140 498 140 498 153.5 451 c 128,-1,21
 167 404 167 404 194 369 c 128,-1,22
 221 334 221 334 255 308 c 0,23,24
 306 270 306 270 367.5 246.5 c 128,-1,25
 429 223 429 223 507 214 c 0,26,27
 581 208 581 208 661 214.5 c 128,-1,28
 741 221 741 221 820.5 237 c 128,-1,29
 900 253 900 253 977 277 c 128,-1,30
 1054 301 1054 301 1122.5 330 c 128,-1,31
 1191 359 1191 359 1247.5 391 c 128,-1,32
 1304 423 1304 423 1344 456 c 0,33,34
 1379 488 1379 488 1399.5 530 c 128,-1,35
 1420 572 1420 572 1420 620 c 2,36,-1
 1384 1565 l 2,37,38
 1385 1588 1385 1588 1396 1609 c 128,-1,39
 1407 1630 1407 1630 1423 1648 c 128,-1,40
 1439 1666 1439 1666 1456 1680 c 128,-1,41
 1473 1694 1473 1694 1486 1703 c 128,-1,42
 1499 1712 1499 1712 1505 1715.5 c 128,-1,43
 1511 1719 1511 1719 1505 1716 c 1,44,45
 1507 1456 1507 1456 1512.5 1259.5 c 128,-1,46
 1518 1063 1518 1063 1526 919 c 0,47,48
 1531 847 1531 847 1535 798 c 128,-1,49
 1539 749 1539 749 1543 720 c 0,50,51
 1553 669 1553 669 1544 589 c 0,52,53
 1542 537 1542 537 1516.5 482.5 c 128,-1,54
 1491 428 1491 428 1445 375 c 128,-1,55
 1399 322 1399 322 1335.5 272 c 128,-1,56
 1272 222 1272 222 1195 179 c 0,57,58
 1092 122 1092 122 959 80 c 128,-1,59
 826 38 826 38 654 3 c 1,60,-1
 461 0 l 2,0,1
1030 879 m 1,61,62
 1007 810 1007 810 987 765 c 128,-1,63
 967 720 967 720 945.5 688.5 c 128,-1,64
 924 657 924 657 898 633 c 128,-1,65
 872 609 872 609 838 582 c 1,66,-1
 526 556 l 1,67,68
 547 577 547 577 584.5 599.5 c 128,-1,69
 622 622 622 622 665 643 c 128,-1,70
 708 664 708 664 751 683 c 128,-1,71
 794 702 794 702 827 716 c 128,-1,72
 860 730 860 730 876.5 738.5 c 128,-1,73
 893 747 893 747 884 747 c 1,74,75
 832 778 832 778 800.5 801.5 c 128,-1,76
 769 825 769 825 752 844.5 c 128,-1,77
 735 864 735 864 729.5 881.5 c 128,-1,78
 724 899 724 899 724 918 c 0,79,80
 724 947 724 947 736.5 982 c 128,-1,81
 749 1017 749 1017 770.5 1053 c 128,-1,82
 792 1089 792 1089 822 1123 c 128,-1,83
 852 1157 852 1157 888 1183 c 1,84,85
 887 1180 887 1180 887 1163 c 2,86,-1
 887 1154 l 2,87,88
 887 1151 887 1151 885 1145 c 1,89,90
 867 1115 867 1115 848 1085 c 128,-1,91
 829 1055 829 1055 810 1024 c 0,92,93
 801 1007 801 1007 813 996 c 128,-1,94
 825 985 825 985 849.5 977.5 c 128,-1,95
 874 970 874 970 905.5 965.5 c 128,-1,96
 937 961 937 961 967 957 c 1,97,98
 1030 937 1030 937 1030 879 c 1,61,62
EndSplineSet
Substitution2: "'fina' Terminal Forms in Arabic lookup 3 subtable" arabickaffinal
Substitution2: "'medi' Medial Forms in Arabic lookup 2 subtable" kafmedial
Substitution2: "'init' Initial Forms in Arabic lookup 1 subtable" kafinitial
Substitution2: "'isol' Isolated Forms in Arabic lookup 0 subtable" kafisolated
EndChar

StartChar: lam
Encoding: 1604 1604 34
Width: 1248
Flags: W
AnchorPoint: "ArabicBelow" 624 -791 basechar 0
AnchorPoint: "ArabicAbove" 624 1839 basechar 0
LayerCount: 2
Fore
SplineSet
1187 64 m 2,0,1
 1187 -74 1187 -74 1131 -186 c 128,-1,2
 1075 -298 1075 -298 977 -376.5 c 128,-1,3
 879 -455 879 -455 745 -498 c 128,-1,4
 611 -541 611 -541 455 -541 c 0,5,6
 369 -541 369 -541 288.5 -513.5 c 128,-1,7
 208 -486 208 -486 145.5 -436.5 c 128,-1,8
 83 -387 83 -387 45.5 -318.5 c 128,-1,9
 8 -250 8 -250 8 -168 c 0,10,11
 8 -126 8 -126 23.5 -73 c 128,-1,12
 39 -20 39 -20 62 34 c 128,-1,13
 85 88 85 88 111.5 139 c 128,-1,14
 138 190 138 190 160 229 c 0,15,16
 172 248 172 248 187.5 263 c 128,-1,17
 203 278 203 278 218 287.5 c 128,-1,18
 233 297 233 297 245.5 300 c 128,-1,19
 258 303 258 303 264 299 c 1,20,21
 277 293 277 293 277 278 c 0,22,23
 277 272 277 272 274 259 c 1,24,25
 238 212 238 212 214.5 169.5 c 128,-1,26
 191 127 191 127 176 85.5 c 128,-1,27
 161 44 161 44 151.5 3.5 c 128,-1,28
 142 -37 142 -37 134 -79 c 1,29,30
 134 -120 134 -120 167.5 -165 c 128,-1,31
 201 -210 201 -210 256.5 -247.5 c 128,-1,32
 312 -285 312 -285 383 -309 c 128,-1,33
 454 -333 454 -333 528 -333 c 0,34,35
 554 -333 554 -333 591 -326 c 128,-1,36
 628 -319 628 -319 670 -306.5 c 128,-1,37
 712 -294 712 -294 757.5 -275.5 c 128,-1,38
 803 -257 803 -257 846 -234 c 0,39,40
 891 -211 891 -211 927 -184.5 c 128,-1,41
 963 -158 963 -158 987 -128 c 128,-1,42
 1011 -98 1011 -98 1020.5 -64.5 c 128,-1,43
 1030 -31 1030 -31 1022 6 c 1,44,45
 1023 18 1023 18 1023.5 44.5 c 128,-1,46
 1024 71 1024 71 1023 127 c 0,47,48
 1023 155 1023 155 1020 447 c 128,-1,49
 1017 739 1017 739 1013 1296 c 0,50,51
 1013 1302 1013 1302 1014 1311.5 c 128,-1,52
 1015 1321 1015 1321 1017.5 1337 c 128,-1,53
 1020 1353 1020 1353 1023 1377 c 128,-1,54
 1026 1401 1026 1401 1030 1436 c 0,55,56
 1035 1474 1035 1474 1039.5 1497 c 128,-1,57
 1044 1520 1044 1520 1046 1531 c 1,58,59
 1050 1543 1050 1543 1055.5 1554.5 c 128,-1,60
 1061 1566 1061 1566 1067 1574.5 c 128,-1,61
 1073 1583 1073 1583 1078.5 1587 c 128,-1,62
 1084 1591 1084 1591 1087 1589 c 1,63,64
 1093 1575 1093 1575 1092 1564 c 0,65,66
 1091 1544 1091 1544 1102 1514.5 c 128,-1,67
 1113 1485 1113 1485 1127 1451 c 0,68,69
 1134 1435 1134 1435 1138.5 1425.5 c 128,-1,70
 1143 1416 1143 1416 1144 1413 c 0,71,72
 1147 1406 1147 1406 1158.5 1395 c 128,-1,73
 1170 1384 1170 1384 1201 1361 c 0,74,75
 1236 1341 1236 1341 1236 1288 c 0,76,77
 1236 1279 1236 1279 1234 1266.5 c 128,-1,78
 1232 1254 1232 1254 1224.5 1231 c 128,-1,79
 1217 1208 1217 1208 1203 1170.5 c 128,-1,80
 1189 1133 1189 1133 1166 1074 c 1,81,-1
 1187 64 l 2,0,1
EndSplineSet
Substitution2: "'fina' Terminal Forms in Arabic lookup 3 subtable" lamfinal
Substitution2: "'medi' Medial Forms in Arabic lookup 2 subtable" lammedial
Substitution2: "'init' Initial Forms in Arabic lookup 1 subtable" laminitial
Substitution2: "'isol' Isolated Forms in Arabic lookup 0 subtable" lamisolated
EndChar

StartChar: meem
Encoding: 1605 1605 35
Width: 749
Flags: W
AnchorPoint: "ArabicBelow" 374 -1520 basechar 0
AnchorPoint: "ArabicAbove" 374 808 basechar 0
LayerCount: 2
Fore
SplineSet
689 73 m 0,0,1
 675 55 675 55 651 55 c 0,2,3
 584 64 584 64 532.5 66 c 128,-1,4
 481 68 481 68 439.5 64 c 128,-1,5
 398 60 398 60 365 50 c 128,-1,6
 332 40 332 40 302 26 c 0,7,8
 257 4 257 4 225 -15 c 128,-1,9
 193 -34 193 -34 172 -54.5 c 128,-1,10
 151 -75 151 -75 138.5 -99 c 128,-1,11
 126 -123 126 -123 120 -155 c 1,12,-1
 195 -1093 l 2,13,14
 195 -1132 195 -1132 193.5 -1156 c 128,-1,15
 192 -1180 192 -1180 183.5 -1198 c 128,-1,16
 175 -1216 175 -1216 156.5 -1232 c 128,-1,17
 138 -1248 138 -1248 105 -1270 c 1,18,-1
 34 -252 l 2,19,20
 34 -203 34 -203 35.5 -169 c 128,-1,21
 37 -135 37 -135 43 -106.5 c 128,-1,22
 49 -78 49 -78 60.5 -49.5 c 128,-1,23
 72 -21 72 -21 92 17 c 0,24,25
 97 27 97 27 105.5 41 c 128,-1,26
 114 55 114 55 130 76 c 128,-1,27
 146 97 146 97 171 126 c 128,-1,28
 196 155 196 155 234 195 c 1,29,30
 242 264 242 264 261.5 331.5 c 128,-1,31
 281 399 281 399 320 469 c 0,32,33
 333 495 333 495 348.5 511.5 c 128,-1,34
 364 528 364 528 380 538 c 128,-1,35
 396 548 396 548 413 552 c 128,-1,36
 430 556 430 556 446 558 c 1,37,38
 469 556 469 556 499.5 537 c 128,-1,39
 530 518 530 518 562 472 c 0,40,41
 623 393 623 393 657 348 c 128,-1,42
 691 303 691 303 708.5 279.5 c 128,-1,43
 726 256 726 256 730.5 248.5 c 128,-1,44
 735 241 735 241 737 238 c 1,45,46
 738 216 738 216 734 191 c 128,-1,47
 730 166 730 166 722.5 143 c 128,-1,48
 715 120 715 120 706 101 c 128,-1,49
 697 82 697 82 689 73 c 0,0,1
507 244 m 1,50,51
 518 253 518 253 506 271 c 128,-1,52
 494 289 494 289 475.5 307 c 128,-1,53
 457 325 457 325 438.5 338 c 128,-1,54
 420 351 420 351 419 351 c 0,55,56
 408 351 408 351 397.5 348 c 128,-1,57
 387 345 387 345 373.5 332.5 c 128,-1,58
 360 320 360 320 343 295 c 128,-1,59
 326 270 326 270 303 226 c 1,60,-1
 507 244 l 1,50,51
EndSplineSet
Substitution2: "'fina' Terminal Forms in Arabic lookup 3 subtable" meemfinal
Substitution2: "'medi' Medial Forms in Arabic lookup 2 subtable" meemmedial
Substitution2: "'init' Initial Forms in Arabic lookup 1 subtable" meeminitial
Substitution2: "'isol' Isolated Forms in Arabic lookup 0 subtable" meemisolated
EndChar

StartChar: noon
Encoding: 1606 1606 36
Width: 1247
Flags: W
AnchorPoint: "ArabicBelow" 623 -834 basechar 0
AnchorPoint: "ArabicAbove" 623 973 basechar 0
LayerCount: 2
Fore
SplineSet
1208 -53 m 2,0,1
 1208 -147 1208 -147 1179.5 -222.5 c 128,-1,2
 1151 -298 1151 -298 1092 -360 c 128,-1,3
 1033 -422 1033 -422 942.5 -472.5 c 128,-1,4
 852 -523 852 -523 729 -566 c 0,5,6
 701 -576 701 -576 655.5 -581 c 128,-1,7
 610 -586 610 -586 554.5 -584 c 128,-1,8
 499 -582 499 -582 437.5 -572.5 c 128,-1,9
 376 -563 376 -563 316.5 -544 c 128,-1,10
 257 -525 257 -525 202.5 -496 c 128,-1,11
 148 -467 148 -467 106.5 -425.5 c 128,-1,12
 65 -384 65 -384 40.5 -330 c 128,-1,13
 16 -276 16 -276 16 -207 c 0,14,15
 16 -158 16 -158 29.5 -93.5 c 128,-1,16
 43 -29 43 -29 68.5 38 c 128,-1,17
 94 105 94 105 130 167.5 c 128,-1,18
 166 230 166 230 212 276 c 1,19,20
 231 260 231 260 239 251 c 128,-1,21
 247 242 247 242 248.5 235.5 c 128,-1,22
 250 229 250 229 248.5 223 c 128,-1,23
 247 217 247 217 247 207 c 1,24,25
 208 136 208 136 189 89 c 128,-1,26
 170 42 170 42 163 11.5 c 128,-1,27
 156 -19 156 -19 156.5 -36 c 128,-1,28
 157 -53 157 -53 157 -64 c 0,29,30
 157 -122 157 -122 181.5 -175 c 128,-1,31
 206 -228 206 -228 252 -268.5 c 128,-1,32
 298 -309 298 -309 363.5 -333.5 c 128,-1,33
 429 -358 429 -358 512 -358 c 0,34,35
 543 -358 543 -358 599.5 -349.5 c 128,-1,36
 656 -341 656 -341 719 -327 c 128,-1,37
 782 -313 782 -313 842.5 -295.5 c 128,-1,38
 903 -278 903 -278 942 -260 c 0,39,40
 1017 -226 1017 -226 1056 -191 c 128,-1,41
 1095 -156 1095 -156 1093 -108 c 2,42,-1
 1093 -78 l 1,43,44
 1087 -54 1087 -54 1081 -33.5 c 128,-1,45
 1075 -13 1075 -13 1066 9.5 c 128,-1,46
 1057 32 1057 32 1044.5 60 c 128,-1,47
 1032 88 1032 88 1013 126.5 c 128,-1,48
 994 165 994 165 967 217 c 128,-1,49
 940 269 940 269 903 341 c 1,50,-1
 993 515 l 1,51,52
 1013 492 1013 492 1034 463 c 128,-1,53
 1055 434 1055 434 1078 395 c 0,54,55
 1089 376 1089 376 1100.5 353 c 128,-1,56
 1112 330 1112 330 1124 303 c 0,57,58
 1137 277 1137 277 1152.5 226 c 128,-1,59
 1168 175 1168 175 1188 97 c 2,60,-1
 1208 -53 l 2,0,1
658 604 m 1,61,-1
 524 465 l 1,62,-1
 380 581 l 1,63,-1
 500 723 l 1,64,-1
 658 604 l 1,61,-1
EndSplineSet
Substitution2: "'fina' Terminal Forms in Arabic lookup 3 subtable" noonfinal
Substitution2: "'medi' Medial Forms in Arabic lookup 2 subtable" noonmedial
Substitution2: "'init' Initial Forms in Arabic lookup 1 subtable" nooninitial
Substitution2: "'isol' Isolated Forms in Arabic lookup 0 subtable" noonisolated
EndChar

StartChar: heh
Encoding: 1607 1607 37
Width: 498
Flags: W
AnchorPoint: "ArabicBelow" 249 -290 basechar 0
AnchorPoint: "ArabicAbove" 249 956 basechar 0
LayerCount: 2
Fore
SplineSet
498 356 m 0,0,1
 498 307 498 307 487.5 257 c 128,-1,2
 477 207 477 207 456 160.5 c 128,-1,3
 435 114 435 114 403.5 74 c 128,-1,4
 372 34 372 34 330 5 c 1,5,6
 283 -9 283 -9 253.5 -17.5 c 128,-1,7
 224 -26 224 -26 205.5 -31 c 128,-1,8
 187 -36 187 -36 176.5 -38 c 128,-1,9
 166 -40 166 -40 157 -40 c 0,10,11
 127 -40 127 -40 98.5 -23.5 c 128,-1,12
 70 -7 70 -7 48.5 21.5 c 128,-1,13
 27 50 27 50 13.5 89 c 128,-1,14
 0 128 0 128 0 173 c 0,15,16
 0 194 0 194 11 237.5 c 128,-1,17
 22 281 22 281 40 335 c 128,-1,18
 58 389 58 389 80.5 448 c 128,-1,19
 103 507 103 507 127 559.5 c 128,-1,20
 151 612 151 612 173.5 651.5 c 128,-1,21
 196 691 196 691 213 706 c 1,22,23
 296 664 296 664 351 625 c 128,-1,24
 406 586 406 586 438.5 545 c 128,-1,25
 471 504 471 504 484.5 458 c 128,-1,26
 498 412 498 412 498 356 c 0,0,1
341 253 m 1,27,28
 341 280 341 280 329 306 c 128,-1,29
 317 332 317 332 295.5 353.5 c 128,-1,30
 274 375 274 375 245 391.5 c 128,-1,31
 216 408 216 408 183 415 c 1,32,33
 177 409 177 409 171 400.5 c 128,-1,34
 165 392 165 392 158 377.5 c 128,-1,35
 151 363 151 363 142.5 339.5 c 128,-1,36
 134 316 134 316 122 279 c 1,37,38
 122 261 122 261 132 248.5 c 128,-1,39
 142 236 142 236 158.5 227.5 c 128,-1,40
 175 219 175 219 195.5 215.5 c 128,-1,41
 216 212 216 212 237 212 c 0,42,43
 257 212 257 212 276.5 215 c 128,-1,44
 296 218 296 218 311 223.5 c 128,-1,45
 326 229 326 229 334.5 236.5 c 128,-1,46
 343 244 343 244 341 253 c 1,27,28
EndSplineSet
Substitution2: "'fina' Terminal Forms in Arabic lookup 3 subtable" hehfinal
Substitution2: "'medi' Medial Forms in Arabic lookup 2 subtable" hehmedial
Substitution2: "'init' Initial Forms in Arabic lookup 1 subtable" hehinitial
Substitution2: "'isol' Isolated Forms in Arabic lookup 0 subtable" hehisolated
EndChar

StartChar: waw
Encoding: 1608 1608 38
Width: 863
Flags: W
AnchorPoint: "ArabicBelow" 431 -806 basechar 0
AnchorPoint: "ArabicAbove" 431 906 basechar 0
LayerCount: 2
Fore
SplineSet
860.5 312 m 0,0,1
 860.5 226 860.5 226 840.5 128.5 c 128,-1,2
 820.5 31 820.5 31 782.5 -65.5 c 128,-1,3
 744.5 -162 744.5 -162 690.5 -250.5 c 128,-1,4
 636.5 -339 636.5 -339 568.5 -407 c 128,-1,5
 500.5 -475 500.5 -475 420 -515.5 c 128,-1,6
 339.5 -556 339.5 -556 249.5 -556 c 0,7,8
 204.5 -556 204.5 -556 109 -543.5 c 128,-1,9
 13.5 -531 13.5 -531 -145.5 -499 c 0,10,11
 -168.5 -496 -168.5 -496 -171.5 -481 c 128,-1,12
 -174.5 -466 -174.5 -466 -159.5 -451 c 1,13,14
 -60.5 -442 -60.5 -442 13 -436 c 128,-1,15
 86.5 -430 86.5 -430 142 -422.5 c 128,-1,16
 197.5 -415 197.5 -415 240.5 -404.5 c 128,-1,17
 283.5 -394 283.5 -394 322.5 -377 c 128,-1,18
 361.5 -360 361.5 -360 400.5 -334 c 128,-1,19
 439.5 -308 439.5 -308 488.5 -269 c 0,20,21
 645.5 -142 645.5 -142 754.5 116 c 1,22,23
 755.5 121 755.5 121 755.5 131 c 2,24,-1
 755.5 144 l 2,25,26
 755.5 165 755.5 165 750 184 c 128,-1,27
 744.5 203 744.5 203 733.5 238 c 1,28,29
 716.5 189 716.5 189 702 157 c 128,-1,30
 687.5 125 687.5 125 672 106.5 c 128,-1,31
 656.5 88 656.5 88 637 80.5 c 128,-1,32
 617.5 73 617.5 73 590.5 73 c 0,33,34
 530.5 73 530.5 73 492.5 96 c 128,-1,35
 454.5 119 454.5 119 434.5 157 c 128,-1,36
 414.5 195 414.5 195 410.5 243.5 c 128,-1,37
 406.5 292 406.5 292 415.5 344.5 c 128,-1,38
 424.5 397 424.5 397 443.5 448.5 c 128,-1,39
 462.5 500 462.5 500 489.5 542.5 c 128,-1,40
 516.5 585 516.5 585 548.5 615.5 c 128,-1,41
 580.5 646 580.5 646 614.5 656 c 1,42,43
 655.5 656 655.5 656 699 622 c 128,-1,44
 742.5 588 742.5 588 778.5 536.5 c 128,-1,45
 814.5 485 814.5 485 837.5 424.5 c 128,-1,46
 860.5 364 860.5 364 860.5 312 c 0,0,1
650.5 342 m 1,47,48
 638.5 373 638.5 373 620 381.5 c 128,-1,49
 601.5 390 601.5 390 565.5 390 c 1,50,-1
 542.5 342 l 1,51,52
 542.5 326 542.5 326 575.5 313 c 2,53,-1
 608.5 305 l 1,54,55
 618.5 305 618.5 305 629.5 316 c 2,56,-1
 650.5 342 l 1,47,48
EndSplineSet
Substitution2: "'fina' Terminal Forms in Arabic lookup 3 subtable" wawfinal
Substitution2: "'isol' Isolated Forms in Arabic lookup 0 subtable" wawisolated
EndChar

StartChar: alefmaksura
Encoding: 1609 1609 39
Width: 1427
Flags: W
AnchorPoint: "ArabicBelow" 713 -842 basechar 0
AnchorPoint: "ArabicAbove" 713 1198 basechar 0
LayerCount: 2
Fore
SplineSet
1452 798 m 0,0,1
 1452 694 1452 694 1432 646.5 c 128,-1,2
 1412 599 1412 599 1390 599 c 0,3,4
 1387 599 1387 599 1379 607.5 c 128,-1,5
 1371 616 1371 616 1361 626.5 c 128,-1,6
 1351 637 1351 637 1338.5 647.5 c 128,-1,7
 1326 658 1326 658 1314 662 c 1,8,9
 1298 686 1298 686 1260 675.5 c 128,-1,10
 1222 665 1222 665 1174.5 632.5 c 128,-1,11
 1127 600 1127 600 1076 552 c 128,-1,12
 1025 504 1025 504 982.5 452.5 c 128,-1,13
 940 401 940 401 912.5 352 c 128,-1,14
 885 303 885 303 885 269 c 0,15,16
 885 239 885 239 906 221 c 1,17,-1
 1206 178 l 1,18,19
 1261 158 1261 158 1293.5 140 c 128,-1,20
 1326 122 1326 122 1343 104.5 c 128,-1,21
 1360 87 1360 87 1365.5 69 c 128,-1,22
 1371 51 1371 51 1371 31 c 0,23,24
 1371 -55 1371 -55 1327.5 -134.5 c 128,-1,25
 1284 -214 1284 -214 1212.5 -283 c 128,-1,26
 1141 -352 1141 -352 1048.5 -409 c 128,-1,27
 956 -466 956 -466 858 -506.5 c 128,-1,28
 760 -547 760 -547 663.5 -569.5 c 128,-1,29
 567 -592 567 -592 487 -592 c 0,30,31
 368 -592 368 -592 273 -552 c 128,-1,32
 178 -512 178 -512 111 -441.5 c 128,-1,33
 44 -371 44 -371 8.5 -275.5 c 128,-1,34
 -27 -180 -27 -180 -27 -69 c 0,35,36
 -27 -62 -27 -62 -19.5 -22.5 c 128,-1,37
 -12 17 -12 17 1 71.5 c 128,-1,38
 14 126 14 126 30.5 188 c 128,-1,39
 47 250 47 250 66 302.5 c 128,-1,40
 85 355 85 355 104 390 c 128,-1,41
 123 425 123 425 140 426 c 0,42,43
 158 425 158 425 160.5 417 c 128,-1,44
 163 409 163 409 157 392 c 128,-1,45
 151 375 151 375 138 346.5 c 128,-1,46
 125 318 125 318 113 277 c 128,-1,47
 101 236 101 236 91.5 180 c 128,-1,48
 82 124 82 124 82 51 c 0,49,50
 82 -25 82 -25 108.5 -97 c 128,-1,51
 135 -169 135 -169 193 -225.5 c 128,-1,52
 251 -282 251 -282 342 -316 c 128,-1,53
 433 -350 433 -350 562 -350 c 0,54,55
 613 -350 613 -350 677.5 -338 c 128,-1,56
 742 -326 742 -326 810.5 -305 c 128,-1,57
 879 -284 879 -284 947.5 -254.5 c 128,-1,58
 1016 -225 1016 -225 1074.5 -190.5 c 128,-1,59
 1133 -156 1133 -156 1177 -117 c 128,-1,60
 1221 -78 1221 -78 1241 -38 c 1,61,62
 1210 -28 1210 -28 1165.5 -21 c 128,-1,63
 1121 -14 1121 -14 1072.5 -7 c 128,-1,64
 1024 0 1024 0 974.5 9 c 128,-1,65
 925 18 925 18 884.5 32 c 128,-1,66
 844 46 844 46 816.5 67.5 c 128,-1,67
 789 89 789 89 783 120 c 1,68,69
 781 200 781 200 803 289 c 128,-1,70
 825 378 825 378 864 465.5 c 128,-1,71
 903 553 903 553 957 634 c 128,-1,72
 1011 715 1011 715 1073 780.5 c 128,-1,73
 1135 846 1135 846 1202.5 890 c 128,-1,74
 1270 934 1270 934 1336 948 c 1,75,76
 1396 920 1396 920 1424 884.5 c 128,-1,77
 1452 849 1452 849 1452 798 c 0,0,1
EndSplineSet
Substitution2: "'fina' Terminal Forms in Arabic lookup 3 subtable" alefmaksurafinal
Substitution2: "'isol' Isolated Forms in Arabic lookup 0 subtable" alefmaksuraisolated
EndChar

StartChar: yeh
Encoding: 1610 1610 40
Width: 1496
Flags: W
AnchorPoint: "ArabicBelow" 748 -1350 basechar 0
AnchorPoint: "ArabicAbove" 748 1177 basechar 0
LayerCount: 2
Fore
SplineSet
575 -1100 m 1,0,-1
 415 -996 l 1,1,-1
 526 -837 l 1,2,-1
 680 -946 l 1,3,-1
 575 -1100 l 1,0,-1
849 -1052 m 1,4,-1
 689 -948 l 1,5,-1
 801 -789 l 1,6,-1
 954 -898 l 1,7,-1
 849 -1052 l 1,4,-1
1491 798 m 0,8,9
 1491 693 1491 693 1471 646 c 128,-1,10
 1451 599 1451 599 1429 599 c 0,11,12
 1426 599 1426 599 1418 607.5 c 128,-1,13
 1410 616 1410 616 1400 626.5 c 128,-1,14
 1390 637 1390 637 1377.5 647.5 c 128,-1,15
 1365 658 1365 658 1353 662 c 1,16,17
 1337 686 1337 686 1299 675.5 c 128,-1,18
 1261 665 1261 665 1213.5 632.5 c 128,-1,19
 1166 600 1166 600 1115 552 c 128,-1,20
 1064 504 1064 504 1021.5 452.5 c 128,-1,21
 979 401 979 401 951.5 352 c 128,-1,22
 924 303 924 303 924 269 c 0,23,24
 924 239 924 239 945 221 c 1,25,-1
 1245 178 l 1,26,27
 1300 158 1300 158 1332.5 140 c 128,-1,28
 1365 122 1365 122 1382 104 c 128,-1,29
 1399 86 1399 86 1404.5 68 c 128,-1,30
 1410 50 1410 50 1410 31 c 0,31,32
 1410 -55 1410 -55 1366.5 -134.5 c 128,-1,33
 1323 -214 1323 -214 1251.5 -283 c 128,-1,34
 1180 -352 1180 -352 1087.5 -409 c 128,-1,35
 995 -466 995 -466 897 -506.5 c 128,-1,36
 799 -547 799 -547 702.5 -569.5 c 128,-1,37
 606 -592 606 -592 526 -592 c 0,38,39
 407 -592 407 -592 312 -552 c 128,-1,40
 217 -512 217 -512 150 -441.5 c 128,-1,41
 83 -371 83 -371 47.5 -275.5 c 128,-1,42
 12 -180 12 -180 12 -69 c 0,43,44
 12 -62 12 -62 19.5 -22.5 c 128,-1,45
 27 17 27 17 40 71.5 c 128,-1,46
 53 126 53 126 69.5 188 c 128,-1,47
 86 250 86 250 105 302.5 c 128,-1,48
 124 355 124 355 143 390 c 128,-1,49
 162 425 162 425 179 426 c 1,50,51
 193 422 193 422 194 413 c 128,-1,52
 195 404 195 404 188.5 386.5 c 128,-1,53
 182 369 182 369 170.5 341.5 c 128,-1,54
 159 314 159 314 148 274 c 128,-1,55
 137 234 137 234 129 179 c 128,-1,56
 121 124 121 124 121 51 c 0,57,58
 121 -25 121 -25 147.5 -97 c 128,-1,59
 174 -169 174 -169 232 -225.5 c 128,-1,60
 290 -282 290 -282 381 -316 c 128,-1,61
 472 -350 472 -350 601 -350 c 0,62,63
 651 -350 651 -350 715.5 -338 c 128,-1,64
 780 -326 780 -326 849 -305 c 128,-1,65
 918 -284 918 -284 986.5 -254.5 c 128,-1,66
 1055 -225 1055 -225 1114 -190.5 c 128,-1,67
 1173 -156 1173 -156 1217 -117 c 128,-1,68
 1261 -78 1261 -78 1280 -38 c 1,69,70
 1248 -27 1248 -27 1203.5 -20 c 128,-1,71
 1159 -13 1159 -13 1110.5 -6 c 128,-1,72
 1062 1 1062 1 1013.5 9.5 c 128,-1,73
 965 18 965 18 924.5 32 c 128,-1,74
 884 46 884 46 856.5 67 c 128,-1,75
 829 88 829 88 822 120 c 1,76,77
 820 200 820 200 842.5 289 c 128,-1,78
 865 378 865 378 904.5 465.5 c 128,-1,79
 944 553 944 553 997.5 634 c 128,-1,80
 1051 715 1051 715 1111 780 c 0,81,82
 1171 841 1171 841 1240 889 c 0,83,84
 1305 933 1305 933 1370 927 c 0,85,86
 1434 920 1434 920 1462.5 884.5 c 128,-1,87
 1491 849 1491 849 1491 798 c 0,8,9
EndSplineSet
Substitution2: "'fina' Terminal Forms in Arabic lookup 3 subtable" yehfinal
Substitution2: "'medi' Medial Forms in Arabic lookup 2 subtable" yehmedial
Substitution2: "'init' Initial Forms in Arabic lookup 1 subtable" yehinitial
Substitution2: "'isol' Isolated Forms in Arabic lookup 0 subtable" yehisolated
EndChar

StartChar: fathatan
Encoding: 1611 1611 41
Width: 0
Flags: W
AnchorPoint: "ArabicAboveLigature" 230 1275 mark 0
AnchorPoint: "ArabicAbove" 230 1275 mark 0
LayerCount: 2
Fore
SplineSet
530 2410 m 1,0,1
 530 2323 530 2323 485 2298 c 2,2,-1
 91 2075 l 1,3,4
 92 2103 92 2103 96 2122 c 128,-1,5
 100 2141 100 2141 109.5 2155 c 128,-1,6
 119 2169 119 2169 135 2180.5 c 128,-1,7
 151 2192 151 2192 177 2206 c 2,8,-1
 530 2410 l 1,0,1
530 2220 m 1,9,10
 530 2133 530 2133 485 2109 c 2,11,-1
 91 1885 l 1,12,13
 92 1913 92 1913 96 1932 c 128,-1,14
 100 1951 100 1951 109.5 1965 c 128,-1,15
 119 1979 119 1979 135 1990.5 c 128,-1,16
 151 2002 151 2002 177 2016 c 2,17,-1
 530 2220 l 1,9,10
EndSplineSet
EndChar

StartChar: dammatan
Encoding: 1612 1612 42
Width: 0
Flags: W
AnchorPoint: "ArabicAboveLigature" 230 1275 mark 0
AnchorPoint: "ArabicAbove" 230 1275 mark 0
LayerCount: 2
Fore
SplineSet
602 2057 m 0,0,1
 602 2011 602 2011 599 1980 c 1,2,3
 573 1994 573 1994 543.5 2013 c 128,-1,4
 514 2032 514 2032 480 2057 c 1,5,6
 316 1889 316 1889 168 1868 c 1,7,8
 224 1988 224 1988 224 2036 c 0,9,10
 224 2107 224 2107 160 2107 c 0,11,12
 106 2107 106 2107 96 2008 c 1,13,14
 83 2044 83 2044 83 2076 c 0,15,16
 83 2106 83 2106 91.5 2132 c 128,-1,17
 100 2158 100 2158 114.5 2177.5 c 128,-1,18
 129 2197 129 2197 149 2208 c 128,-1,19
 169 2219 169 2219 192 2219 c 0,20,21
 234 2219 234 2219 259 2187 c 128,-1,22
 284 2155 284 2155 279 2089 c 2,23,-1
 272 1969 l 1,24,25
 357 2004 357 2004 433 2086 c 1,26,27
 347 2143 347 2143 347 2209 c 0,28,29
 347 2242 347 2242 361.5 2276 c 128,-1,30
 376 2310 376 2310 399.5 2337.5 c 128,-1,31
 423 2365 423 2365 451 2382.5 c 128,-1,32
 479 2400 479 2400 506 2400 c 0,33,34
 520 2400 520 2400 535.5 2390 c 128,-1,35
 551 2380 551 2380 564 2365 c 128,-1,36
 577 2350 577 2350 585.5 2331.5 c 128,-1,37
 594 2313 594 2313 594 2296 c 0,38,39
 594 2257 594 2257 580 2220.5 c 128,-1,40
 566 2184 566 2184 551 2148 c 1,41,42
 602 2109 602 2109 602 2057 c 0,0,1
503 2244 m 0,43,44
 503 2313 503 2313 450 2313 c 0,45,46
 416 2313 416 2313 416 2283 c 0,47,48
 416 2250 416 2250 498 2193 c 1,49,50
 503 2205 503 2205 503 2244 c 0,43,44
EndSplineSet
EndChar

StartChar: kasratan
Encoding: 1613 1613 43
Width: 0
Flags: W
AnchorPoint: "ArabicBelowLigature" 165 -500 mark 0
AnchorPoint: "ArabicBelow" 165 -500 mark 0
LayerCount: 2
Fore
SplineSet
1108 -598 m 1,0,1
 1108 -685 1108 -685 1062 -710 c 2,2,-1
 668 -933 l 1,3,4
 669 -906 669 -906 673 -887 c 128,-1,5
 677 -868 677 -868 686.5 -854 c 128,-1,6
 696 -840 696 -840 712 -828 c 128,-1,7
 728 -816 728 -816 754 -802 c 2,8,-1
 1108 -598 l 1,0,1
1108 -737 m 1,9,10
 1108 -824 1108 -824 1062 -849 c 2,11,-1
 668 -1073 l 1,12,13
 669 -1045 669 -1045 673 -1026.5 c 128,-1,14
 677 -1008 677 -1008 686.5 -994 c 128,-1,15
 696 -980 696 -980 712 -968 c 128,-1,16
 728 -956 728 -956 754 -941 c 2,17,-1
 1108 -737 l 1,9,10
EndSplineSet
EndChar

StartChar: fatha
Encoding: 1614 1614 44
Width: 0
Flags: W
AnchorPoint: "ArabicAboveLigature" 230 1275 mark 0
AnchorPoint: "ArabicAbove" 230 1275 mark 0
LayerCount: 2
Fore
SplineSet
558 2332 m 1,0,1
 558 2261 558 2261 520 2240 c 2,2,-1
 194 2054 l 1,3,4
 195 2077 195 2077 199 2092.5 c 128,-1,5
 203 2108 203 2108 211 2120 c 128,-1,6
 219 2132 219 2132 232 2141.5 c 128,-1,7
 245 2151 245 2151 265 2163 c 2,8,-1
 558 2332 l 1,0,1
EndSplineSet
EndChar

StartChar: damma
Encoding: 1615 1615 45
Width: 0
Flags: W
AnchorPoint: "ArabicAboveLigature" 230 1275 mark 0
AnchorPoint: "ArabicAbove" 230 1275 mark 0
LayerCount: 2
Fore
SplineSet
363 1930 m 1,0,-1
 278 1986 l 1,1,2
 149 1833 149 1833 68 1833 c 0,3,4
 34 1833 34 1833 5 1846 c 1,5,6
 60 1876 60 1876 116.5 1917 c 128,-1,7
 173 1958 173 1958 233 2012 c 1,8,9
 168 2060 168 2060 168 2107 c 0,10,11
 168 2130 168 2130 176.5 2161 c 128,-1,12
 185 2192 185 2192 200.5 2220 c 128,-1,13
 216 2248 216 2248 239 2267.5 c 128,-1,14
 262 2287 262 2287 291 2287 c 0,15,16
 363 2287 363 2287 363 2193 c 0,17,18
 363 2132 363 2132 330 2068 c 1,19,20
 338 2063 338 2063 348.5 2055 c 128,-1,21
 359 2047 359 2047 372 2036 c 1,22,-1
 363 1930 l 1,0,-1
298 2131 m 0,23,24
 298 2143 298 2143 293 2154.5 c 128,-1,25
 288 2166 288 2166 280 2175 c 128,-1,26
 272 2184 272 2184 261.5 2190 c 128,-1,27
 251 2196 251 2196 240 2196 c 0,28,29
 221 2196 221 2196 221 2174 c 0,30,31
 221 2140 221 2140 291 2094 c 1,32,33
 294 2109 294 2109 296 2117.5 c 128,-1,34
 298 2126 298 2126 298 2131 c 0,23,24
EndSplineSet
EndChar

StartChar: kasra
Encoding: 1616 1616 46
Width: 0
Flags: W
AnchorPoint: "ArabicBelowLigature" 165 -500 mark 0
AnchorPoint: "ArabicBelow" 165 -500 mark 0
LayerCount: 2
Fore
SplineSet
1002 -676 m 1,0,1
 1002 -763 1002 -763 957 -788 c 2,2,-1
 563 -1011 l 1,3,4
 564 -983 564 -983 568 -964.5 c 128,-1,5
 572 -946 572 -946 581.5 -932 c 128,-1,6
 591 -918 591 -918 607 -906.5 c 128,-1,7
 623 -895 623 -895 649 -880 c 2,8,-1
 1002 -676 l 1,0,1
EndSplineSet
EndChar

StartChar: shadda
Encoding: 1617 1617 47
Width: 0
Flags: W
AnchorPoint: "ArabicAboveLigature" 300 1650 mark 0
AnchorPoint: "ArabicAbove" 300 1650 mark 0
LayerCount: 2
Fore
SplineSet
546 2188 m 0,0,1
 546 1969 546 1969 411 1969 c 0,2,3
 365 1969 365 1969 328 1997 c 1,4,5
 322 1974 322 1974 308.5 1954 c 128,-1,6
 295 1934 295 1934 276.5 1918.5 c 128,-1,7
 258 1903 258 1903 236 1894 c 128,-1,8
 214 1885 214 1885 192 1885 c 0,9,10
 86 1885 86 1885 86 2025 c 0,11,12
 86 2058 86 2058 114 2157 c 1,13,-1
 144 2162 l 1,14,15
 144 2018 144 2018 195 2018 c 0,16,17
 279 2018 279 2018 312 2228 c 1,18,-1
 335 2236 l 1,19,20
 365 2109 365 2109 411 2109 c 0,21,22
 486 2109 486 2109 498 2300 c 1,23,-1
 528 2313 l 1,24,25
 536 2275 536 2275 541 2243.5 c 128,-1,26
 546 2212 546 2212 546 2188 c 0,0,1
EndSplineSet
EndChar

StartChar: sukun
Encoding: 1618 1618 48
Width: 0
Flags: W
AnchorPoint: "ArabicAboveLigature" 230 1275 mark 0
AnchorPoint: "ArabicAbove" 230 1275 mark 0
LayerCount: 2
Fore
SplineSet
525 2189 m 0,0,1
 525 2148 525 2148 508.5 2109.5 c 128,-1,2
 492 2071 492 2071 465 2041.5 c 128,-1,3
 438 2012 438 2012 402.5 1994 c 128,-1,4
 367 1976 367 1976 329 1976 c 0,5,6
 190 1976 190 1976 190 2133 c 0,7,8
 190 2186 190 2186 203 2231.5 c 128,-1,9
 216 2277 216 2277 239 2310.5 c 128,-1,10
 262 2344 262 2344 295 2363 c 128,-1,11
 328 2382 328 2382 368 2382 c 0,12,13
 397 2382 397 2382 425.5 2365.5 c 128,-1,14
 454 2349 454 2349 476 2322 c 128,-1,15
 498 2295 498 2295 511.5 2260.5 c 128,-1,16
 525 2226 525 2226 525 2189 c 0,0,1
454 2158 m 0,17,18
 454 2174 454 2174 438 2193.5 c 128,-1,19
 422 2213 422 2213 399 2230 c 128,-1,20
 376 2247 376 2247 351.5 2258.5 c 128,-1,21
 327 2270 327 2270 309 2270 c 0,22,23
 233 2270 233 2270 233 2181 c 0,24,25
 233 2105 233 2105 352 2105 c 0,26,27
 454 2105 454 2105 454 2158 c 0,17,18
EndSplineSet
EndChar

StartChar: arabicindicdigitzero
Encoding: 1632 1632 49
Width: 552
Flags: W
LayerCount: 2
Fore
SplineSet
338 350 m 1,0,-1
 129 503 l 1,1,-1
 205 780 l 1,2,-1
 415 627 l 1,3,-1
 338 350 l 1,0,-1
EndSplineSet
EndChar

StartChar: arabicindicdigitone
Encoding: 1633 1633 50
Width: 703
Flags: W
LayerCount: 2
Fore
SplineSet
558 269 m 2,0,-1
 554 149 l 1,1,-1
 554 134 l 1,2,-1
 551 112 l 1,3,-1
 538 62 l 2,4,5
 523 -17 523 -17 484 -17 c 1,6,-1
 473 -1 l 1,7,-1
 471 19 l 1,8,-1
 469 64 l 2,9,10
 469 315 469 315 376 614 c 0,11,12
 328 764 328 764 268 893 c 128,-1,13
 208 1022 208 1022 133 1134 c 1,14,15
 133 1145 133 1145 140.5 1170.5 c 128,-1,16
 148 1196 148 1196 166 1241 c 0,17,18
 203 1329 203 1329 230 1360 c 1,19,20
 370 1224 370 1224 472 853 c 0,21,22
 558 533 558 533 558 269 c 2,0,-1
EndSplineSet
EndChar

StartChar: arabicindicdigittwo
Encoding: 1634 1634 51
Width: 974
Flags: W
LayerCount: 2
Fore
SplineSet
266 1049 m 1,0,-1
 266 1143 l 1,1,2
 270 1170 270 1170 274.5 1200 c 128,-1,3
 279 1230 279 1230 294 1253 c 0,4,5
 316 1288 316 1288 355 1310 c 128,-1,6
 394 1332 394 1332 444.5 1343.5 c 128,-1,7
 495 1355 495 1355 553 1358.5 c 128,-1,8
 611 1362 611 1362 668.5 1361 c 128,-1,9
 726 1360 726 1360 780.5 1356.5 c 128,-1,10
 835 1353 835 1353 879 1351 c 0,11,12
 887 1350 887 1350 887.5 1331.5 c 128,-1,13
 888 1313 888 1313 884.5 1284 c 128,-1,14
 881 1255 881 1255 876.5 1220.5 c 128,-1,15
 872 1186 872 1186 872 1154 c 1,16,17
 843 1158 843 1158 805 1159 c 128,-1,18
 767 1160 767 1160 730 1159 c 128,-1,19
 693 1158 693 1158 663.5 1156.5 c 128,-1,20
 634 1155 634 1155 624 1154 c 0,21,22
 554 1148 554 1148 517.5 1125 c 128,-1,23
 481 1102 481 1102 468 1067.5 c 128,-1,24
 455 1033 455 1033 461 990.5 c 128,-1,25
 467 948 467 948 483.5 902 c 128,-1,26
 500 856 500 856 520.5 809 c 128,-1,27
 541 762 541 762 558 719 c 1,28,29
 559 714 559 714 562 708 c 128,-1,30
 565 702 565 702 570.5 684 c 128,-1,31
 576 666 576 666 585.5 631.5 c 128,-1,32
 595 597 595 597 611 535 c 2,33,-1
 632 406 l 1,34,-1
 641 303 l 1,35,-1
 646 195 l 2,36,37
 646 -5 646 -5 605 -5 c 0,38,39
 579 -5 579 -5 556 123 c 0,40,41
 537 224 537 224 512 333 c 0,42,43
 503 377 503 377 484 425 c 2,44,-1
 459 509 l 2,45,46
 417 629 417 629 375.5 725 c 128,-1,47
 334 821 334 821 301 931 c 2,48,-1
 266 1049 l 1,0,-1
EndSplineSet
EndChar

StartChar: arabicindicdigitthree
Encoding: 1635 1635 52
Width: 1287
Flags: W
LayerCount: 2
Fore
SplineSet
1154 1253 m 0,0,1
 1154 1140 1154 1140 1111 1033 c 0,2,3
 1061 910 1061 910 967 910 c 2,4,-1
 894 914 l 2,5,6
 880 916 880 916 866 920 c 128,-1,7
 852 924 852 924 836 929 c 1,8,9
 816 940 816 940 787.5 955 c 128,-1,10
 759 970 759 970 724 993 c 1,11,12
 712 945 712 945 649 900 c 0,13,14
 617 876 617 876 585 864.5 c 128,-1,15
 553 853 553 853 523 853 c 1,16,-1
 555 701 l 1,17,-1
 584 537 l 1,18,-1
 598 429 l 1,19,-1
 606 344 l 1,20,-1
 608 269 l 2,21,22
 608 190 608 190 602.5 138.5 c 128,-1,23
 597 87 597 87 584 62 c 2,24,25
 565 -17 565 -17 528 -17 c 0,26,27
 520 -17 520 -17 508 26 c 0,28,29
 504 49 504 49 502 85.5 c 128,-1,30
 500 122 500 122 500 173 c 2,31,-1
 500 204 l 2,32,33
 500 216 500 216 499.5 224.5 c 128,-1,34
 499 233 499 233 498 240 c 2,35,-1
 490 300 l 2,36,37
 482 375 482 375 462 451.5 c 128,-1,38
 442 528 442 528 415 612 c 0,39,40
 410 629 410 629 402 650 c 128,-1,41
 394 671 394 671 383 697 c 0,42,43
 372 721 372 721 361.5 745 c 128,-1,44
 351 769 351 769 342 786 c 2,45,-1
 321 833 l 1,46,-1
 294 885 l 1,47,-1
 250 967 l 1,48,-1
 194 1046 l 1,49,-1
 126 1130 l 1,50,-1
 162 1208 l 1,51,-1
 190 1257 l 2,52,53
 201 1276 201 1276 214 1296 c 128,-1,54
 227 1316 227 1316 242 1336 c 1,55,56
 438 1096 438 1096 532 1096 c 0,57,58
 648 1096 648 1096 723 1228 c 0,59,60
 785 1365 785 1365 807 1365 c 0,61,62
 832 1365 832 1365 832 1317 c 2,63,-1
 832 1296 l 1,64,-1
 832 1282 l 1,65,-1
 829 1269 l 1,66,67
 829 1145 829 1145 984 1145 c 0,68,69
 1042 1145 1042 1145 1071 1199 c 2,70,-1
 1126 1317 l 1,71,72
 1154 1317 1154 1317 1154 1253 c 0,0,1
EndSplineSet
EndChar

StartChar: arabicindicdigitfour
Encoding: 1636 1636 53
Width: 844
Flags: W
LayerCount: 2
Fore
SplineSet
711 169 m 1,0,-1
 634 -34 l 1,1,2
 588 -30 588 -30 551 -23.5 c 128,-1,3
 514 -17 514 -17 484 -8 c 2,4,-1
 447 0 l 1,5,-1
 417 9 l 1,6,-1
 376 23 l 1,7,-1
 335 40 l 2,8,9
 129 123 129 123 129 230 c 0,10,11
 129 321 129 321 274 502 c 2,12,-1
 421 682 l 1,13,14
 366 717 366 717 319 750 c 128,-1,15
 272 783 272 783 230 815 c 0,16,17
 149 879 149 879 149 932 c 0,18,19
 149 1032 149 1032 291 1174 c 0,20,21
 434 1319 434 1319 585 1365 c 1,22,-1
 542 1213 l 1,23,24
 494 1193 494 1193 453.5 1172 c 128,-1,25
 413 1151 413 1151 378 1128 c 0,26,27
 309 1081 309 1081 309 1058 c 0,28,29
 309 1027 309 1027 468 936 c 0,30,31
 621 859 621 859 630 825 c 1,32,33
 630 737 630 737 469 576 c 0,34,35
 309 415 309 415 309 347 c 0,36,37
 309 320 309 320 482 243 c 2,38,-1
 606 200 l 1,39,-1
 711 169 l 1,0,-1
EndSplineSet
EndChar

StartChar: arabicindicdigitfive
Encoding: 1637 1637 54
Width: 935
Flags: W
LayerCount: 2
Fore
SplineSet
805 603 m 2,0,-1
 801 506 l 1,1,-1
 801 486 l 1,2,3
 798 478 798 478 797.5 472.5 c 128,-1,4
 797 467 797 467 796 463 c 2,5,-1
 786 417 l 2,6,7
 769 334 769 334 733 295 c 0,8,9
 724 283 724 283 708.5 266.5 c 128,-1,10
 693 250 693 250 669 230 c 2,11,-1
 634 200 l 1,12,-1
 595 173 l 2,13,14
 492 109 492 109 417 109 c 0,15,16
 292 109 292 109 214 172 c 0,17,18
 131 240 131 240 131 378 c 0,19,20
 131 466 131 466 138 534 c 128,-1,21
 145 602 145 602 160 653 c 0,22,23
 167 685 167 685 175.5 716 c 128,-1,24
 184 747 184 747 195 779 c 0,25,26
 206 810 206 810 218 839.5 c 128,-1,27
 230 869 230 869 248 901 c 0,28,29
 308 1019 308 1019 371 1079 c 128,-1,30
 434 1139 434 1139 498 1139 c 0,31,32
 614 1139 614 1139 719 929 c 0,33,34
 805 749 805 749 805 603 c 2,0,-1
721 549 m 0,35,36
 721 593 721 593 640 737 c 0,37,38
 548 898 548 898 469 898 c 0,39,40
 413 898 413 898 307 768 c 0,41,42
 214 634 214 634 214 539 c 0,43,44
 214 457 214 457 272 402 c 0,45,46
 299 378 299 378 334 363 c 0,47,48
 359 350 359 350 409 350 c 0,49,50
 460 350 460 350 512.5 365.5 c 128,-1,51
 565 381 565 381 616 419 c 0,52,53
 721 488 721 488 721 549 c 0,35,36
EndSplineSet
EndChar

StartChar: arabicindicdigitsix
Encoding: 1638 1638 55
Width: 1039
Flags: W
LayerCount: 2
Fore
SplineSet
913 240 m 1,0,1
 913 190 913 190 884 109 c 0,2,3
 858 6 858 6 844 -17 c 1,4,5
 696 122 696 122 645 333 c 0,6,7
 637 369 637 369 630 411 c 128,-1,8
 623 453 623 453 617 504 c 2,9,-1
 612 604 l 1,10,-1
 608 744 l 2,11,12
 608 787 608 787 610 824.5 c 128,-1,13
 612 862 612 862 616 896 c 2,14,-1
 621 944 l 1,15,-1
 637 1030 l 1,16,-1
 590 1028 l 2,17,18
 573 1028 573 1028 572 1027 c 1,19,20
 567 1027 567 1027 555 1025 c 128,-1,21
 543 1023 543 1023 523 1019 c 2,22,-1
 419 1010 l 1,23,-1
 367 1011 l 1,24,-1
 324 1020 l 2,25,26
 279 1030 279 1030 226 1056 c 0,27,28
 131 1098 131 1098 131 1165 c 2,29,-1
 131 1215 l 1,30,-1
 135 1274 l 1,31,-1
 144 1327 l 2,32,33
 148 1352 148 1352 161 1365 c 1,34,35
 176 1350 176 1350 193 1338 c 128,-1,36
 210 1326 210 1326 230 1313 c 2,37,-1
 316 1269 l 2,38,39
 408 1234 408 1234 493 1234 c 0,40,41
 617 1234 617 1234 649 1251 c 1,42,43
 734 1270 734 1270 740 1279 c 1,44,-1
 718 1065 l 1,45,-1
 711 913 l 2,46,47
 711 798 711 798 727 706 c 2,48,-1
 747 606 l 2,49,50
 755 577 755 577 763 551.5 c 128,-1,51
 771 526 771 526 780 502 c 0,52,53
 837 334 837 334 913 240 c 1,0,1
EndSplineSet
EndChar

StartChar: arabicindicdigitseven
Encoding: 1639 1639 56
Width: 1236
Flags: W
LayerCount: 2
Fore
SplineSet
1111 1131 m 1,0,1
 1076 1089 1076 1089 1029 1007.5 c 128,-1,2
 982 926 982 926 922 798 c 2,3,-1
 837 603 l 1,4,-1
 759 395 l 2,5,6
 733 317 733 317 712 245 c 128,-1,7
 691 173 691 173 672 104 c 0,8,9
 657 32 657 32 645 10 c 0,10,11
 635 -11 635 -11 617 -17 c 1,12,13
 604 -17 604 -17 586 31 c 2,14,-1
 538 200 l 2,15,16
 529 242 529 242 515 289 c 128,-1,17
 501 336 501 336 481 393 c 256,18,19
 461 450 461 450 440 502.5 c 128,-1,20
 419 555 419 555 396 606 c 0,21,22
 268 896 268 896 127 1067 c 1,23,24
 143 1134 143 1134 167.5 1195 c 128,-1,25
 192 1256 192 1256 227 1310 c 1,26,27
 254 1282 254 1282 278 1249 c 128,-1,28
 302 1216 302 1216 325 1180 c 2,29,-1
 373 1097 l 1,30,-1
 426 992 l 2,31,32
 447 949 447 949 471.5 890.5 c 128,-1,33
 496 832 496 832 526 757 c 2,34,-1
 572 625 l 1,35,-1
 603 530 l 1,36,-1
 614 486 l 1,37,-1
 629 439 l 2,38,39
 632 428 632 428 637.5 417.5 c 128,-1,40
 643 407 643 407 650 396 c 1,41,-1
 659 412 l 1,42,-1
 681 459 l 1,43,-1
 762 714 l 2,44,45
 789 807 789 807 825 889.5 c 128,-1,46
 861 972 861 972 911 1062 c 2,47,-1
 954 1139 l 1,48,-1
 997 1209 l 2,49,50
 1013 1234 1013 1234 1036.5 1265.5 c 128,-1,51
 1060 1297 1060 1297 1091 1336 c 1,52,-1
 1111 1131 l 1,0,1
EndSplineSet
EndChar

StartChar: arabicindicdigiteight
Encoding: 1640 1640 57
Width: 1245
Flags: W
LayerCount: 2
Fore
SplineSet
1117 252 m 1,0,1
 1111 225 1111 225 1100.5 193 c 128,-1,2
 1090 161 1090 161 1074 125 c 0,3,4
 1051 62 1051 62 1017 9 c 1,5,6
 992 36 992 36 968 69.5 c 128,-1,7
 944 103 944 103 919 142 c 0,8,9
 896 178 896 178 870 225.5 c 128,-1,10
 844 273 844 273 818 328 c 0,11,12
 714 551 714 551 642 786 c 2,13,-1
 614 877 l 2,14,15
 602 915 602 915 594 922 c 1,16,-1
 585 907 l 1,17,-1
 563 861 l 1,18,-1
 482 606 l 2,19,20
 454 510 454 510 418.5 429 c 128,-1,21
 383 348 383 348 337 265 c 0,22,23
 291 178 291 178 246 110.5 c 128,-1,24
 201 43 201 43 155 -17 c 1,25,26
 133 70 133 70 133 187 c 1,27,28
 194 259 194 259 263.5 392.5 c 128,-1,29
 333 526 333 526 411 725 c 2,30,-1
 463 863 l 1,31,-1
 507 987 l 2,32,33
 527 1053 527 1053 543.5 1109.5 c 128,-1,34
 560 1166 560 1166 573 1214 c 0,35,36
 589 1284 589 1284 604 1310 c 128,-1,37
 619 1336 619 1336 628 1336 c 0,38,39
 635 1336 635 1336 658 1288 c 1,40,-1
 706 1119 l 2,41,42
 720 1062 720 1062 734 1012.5 c 128,-1,43
 748 963 748 963 767 915 c 0,44,45
 781 870 781 870 802 822 c 128,-1,46
 823 774 823 774 849 714 c 0,47,48
 912 560 912 560 977 447 c 128,-1,49
 1042 334 1042 334 1117 252 c 1,0,1
EndSplineSet
EndChar

StartChar: arabicindicdigitnine
Encoding: 1641 1641 58
Width: 989
Flags: W
LayerCount: 2
Fore
SplineSet
835 224 m 1,0,-1
 759 -7 l 1,1,2
 717 22 717 22 681.5 80.5 c 128,-1,3
 646 139 646 139 616 233 c 2,4,-1
 597 315 l 1,5,-1
 580 411 l 1,6,-1
 568 513 l 1,7,-1
 564 617 l 1,8,-1
 521 607 l 1,9,-1
 476 603 l 1,10,-1
 403 602 l 2,11,12
 289 602 289 602 217 649 c 0,13,14
 134 705 134 705 134 812 c 0,15,16
 134 943 134 943 238 1134 c 0,17,18
 354 1340 354 1340 461 1340 c 0,19,20
 541 1340 541 1340 607 1184 c 0,21,22
 653 1031 653 1031 653 955 c 0,23,24
 653 684 653 684 681 571 c 0,25,26
 685 546 685 546 694 510 c 128,-1,27
 703 474 703 474 718 426 c 2,28,-1
 738 382 l 2,29,30
 778 294 778 294 835 224 c 1,0,-1
550 846 m 0,31,32
 550 913 550 913 515 1015 c 0,33,34
 471 1119 471 1119 409 1119 c 0,35,36
 367 1119 367 1119 307 1040 c 0,37,38
 248 960 248 960 248 894 c 0,39,40
 248 881 248 881 329 841 c 1,41,-1
 411 820 l 2,42,43
 431 816 431 816 447.5 814 c 128,-1,44
 464 812 464 812 478 812 c 0,45,46
 550 812 550 812 550 846 c 0,31,32
EndSplineSet
EndChar

StartChar: arabicpercentsign
Encoding: 1642 1642 59
Width: 1010
Flags: W
LayerCount: 2
Fore
SplineSet
43 1342 m 1,0,-1
 43 1620 l 1,1,-1
 300 1620 l 1,2,-1
 300 1342 l 1,3,-1
 43 1342 l 1,0,-1
164 13 m 1,4,-1
 21 13 l 1,5,-1
 655 1620 l 1,6,-1
 799 1620 l 1,7,-1
 164 13 l 1,4,-1
521 -9 m 1,8,-1
 521 268 l 1,9,-1
 780 268 l 1,10,-1
 780 -9 l 1,11,-1
 521 -9 l 1,8,-1
EndSplineSet
EndChar

StartChar: arabicfivepointedstar
Encoding: 1645 1645 60
Width: 3051
Flags: W
LayerCount: 2
Fore
SplineSet
2827.19 655 m 1,0,1
 2833.19 637 2833.19 637 2847.69 628 c 128,-1,2
 2862.19 619 2862.19 619 2880.69 615 c 128,-1,3
 2899.19 611 2899.19 611 2918.69 610.5 c 128,-1,4
 2938.19 610 2938.19 610 2955.19 610 c 0,5,6
 2973.19 610 2973.19 610 2987.19 606 c 128,-1,7
 3001.19 602 3001.19 602 3008.19 591.5 c 128,-1,8
 3015.19 581 3015.19 581 3013.19 562 c 128,-1,9
 3011.19 543 3011.19 543 2997.19 512 c 1,10,11
 2964.19 471 2964.19 471 2946.69 411 c 128,-1,12
 2929.19 351 2929.19 351 2919.19 282 c 128,-1,13
 2909.19 213 2909.19 213 2903.19 140 c 128,-1,14
 2897.19 67 2897.19 67 2888.19 0.5 c 128,-1,15
 2879.19 -66 2879.19 -66 2861.69 -121 c 128,-1,16
 2844.19 -176 2844.19 -176 2812.19 -210 c 128,-1,17
 2780.19 -244 2780.19 -244 2728.69 -251.5 c 128,-1,18
 2677.19 -259 2677.19 -259 2599.19 -230 c 1,19,20
 2539.19 -427 2539.19 -427 2429.19 -575 c 128,-1,21
 2319.19 -723 2319.19 -723 2178.19 -823.5 c 128,-1,22
 2037.19 -924 2037.19 -924 1874.69 -977 c 128,-1,23
 1712.19 -1030 1712.19 -1030 1548.19 -1036 c 2,24,-1
 1480.19 -1036 l 2,25,26
 1316.19 -1030 1316.19 -1030 1153.19 -977 c 128,-1,27
 990.194 -924 990.194 -924 848.694 -823.5 c 128,-1,28
 707.194 -723 707.194 -723 596.694 -575 c 128,-1,29
 486.194 -427 486.194 -427 426.194 -230 c 1,30,31
 348.194 -257 348.194 -257 296.694 -249 c 128,-1,32
 245.194 -241 245.194 -241 212.694 -207.5 c 128,-1,33
 180.194 -174 180.194 -174 163.694 -120 c 128,-1,34
 147.194 -66 147.194 -66 137.694 -0.5 c 128,-1,35
 128.194 65 128.194 65 122.694 137 c 128,-1,36
 117.194 209 117.194 209 107.694 278 c 128,-1,37
 98.1943 347 98.1943 347 80.1943 407.5 c 128,-1,38
 62.1943 468 62.1943 468 29.1943 512 c 1,39,40
 15.1943 543 15.1943 543 12.6943 562 c 128,-1,41
 10.1943 581 10.1943 581 16.6943 591.5 c 128,-1,42
 23.1943 602 23.1943 602 37.1943 606 c 128,-1,43
 51.1943 610 51.1943 610 69.1943 610 c 0,44,45
 86.1943 610 86.1943 610 106.194 610.5 c 128,-1,46
 126.194 611 126.194 611 144.694 615 c 128,-1,47
 163.194 619 163.194 619 177.694 628 c 128,-1,48
 192.194 637 192.194 637 198.194 655 c 1,49,50
 198.194 720 198.194 720 213.194 778 c 128,-1,51
 228.194 836 228.194 836 251.694 891 c 128,-1,52
 275.194 946 275.194 946 302.194 999 c 128,-1,53
 329.194 1052 329.194 1052 353.694 1107 c 128,-1,54
 378.194 1162 378.194 1162 396.194 1220 c 128,-1,55
 414.194 1278 414.194 1278 418.194 1343 c 0,56,57
 423.194 1370 423.194 1370 434.694 1380.5 c 128,-1,58
 446.194 1391 446.194 1391 461.694 1391.5 c 128,-1,59
 477.194 1392 477.194 1392 495.694 1385.5 c 128,-1,60
 514.194 1379 514.194 1379 533.694 1372 c 128,-1,61
 553.194 1365 553.194 1365 572.194 1361 c 128,-1,62
 591.194 1357 591.194 1357 608.194 1362 c 1,63,64
 669.194 1420 669.194 1420 736.694 1465.5 c 128,-1,65
 804.194 1511 804.194 1511 873.194 1553 c 128,-1,66
 942.194 1595 942.194 1595 1010.19 1638 c 128,-1,67
 1078.19 1681 1078.19 1681 1141.19 1733 c 1,68,69
 1129.19 1762 1129.19 1762 1111.19 1790.5 c 128,-1,70
 1093.19 1819 1093.19 1819 1075.69 1849.5 c 128,-1,71
 1058.19 1880 1058.19 1880 1043.69 1915 c 128,-1,72
 1029.19 1950 1029.19 1950 1024.19 1992 c 1,73,74
 1031.19 2022 1031.19 2022 1042.19 2052 c 128,-1,75
 1053.19 2082 1053.19 2082 1069.19 2109 c 128,-1,76
 1085.19 2136 1085.19 2136 1107.19 2158 c 128,-1,77
 1129.19 2180 1129.19 2180 1158.19 2194 c 1,78,79
 1210.19 2209 1210.19 2209 1259.69 2201 c 128,-1,80
 1309.19 2193 1309.19 2193 1354.19 2166.5 c 128,-1,81
 1399.19 2140 1399.19 2140 1439.19 2097 c 128,-1,82
 1479.19 2054 1479.19 2054 1512.19 1999 c 1,83,84
 1546.19 2054 1546.19 2054 1586.69 2097 c 128,-1,85
 1627.19 2140 1627.19 2140 1672.69 2166.5 c 128,-1,86
 1718.19 2193 1718.19 2193 1767.19 2201 c 128,-1,87
 1816.19 2209 1816.19 2209 1867.19 2194 c 1,88,89
 1896.19 2180 1896.19 2180 1918.19 2158 c 128,-1,90
 1940.19 2136 1940.19 2136 1956.19 2109 c 128,-1,91
 1972.19 2082 1972.19 2082 1983.19 2052 c 128,-1,92
 1994.19 2022 1994.19 2022 2001.19 1992 c 1,93,94
 1999.19 1951 1999.19 1951 1985.69 1916 c 128,-1,95
 1972.19 1881 1972.19 1881 1954.19 1850 c 128,-1,96
 1936.19 1819 1936.19 1819 1917.69 1790 c 128,-1,97
 1899.19 1761 1899.19 1761 1887.19 1733 c 1,98,99
 1952.19 1682 1952.19 1682 2020.69 1639.5 c 128,-1,100
 2157.69 1554.5 l 128,-1,101
 2226.19 1512 2226.19 1512 2292.69 1466 c 128,-1,102
 2359.19 1420 2359.19 1420 2420.19 1362 c 1,103,104
 2436.19 1358 2436.19 1358 2455.19 1362 c 128,-1,105
 2474.19 1366 2474.19 1366 2493.69 1372.5 c 128,-1,106
 2513.19 1379 2513.19 1379 2532.19 1385.5 c 128,-1,107
 2551.19 1392 2551.19 1392 2566.69 1391 c 128,-1,108
 2582.19 1390 2582.19 1390 2593.19 1379.5 c 128,-1,109
 2604.19 1369 2604.19 1369 2608.19 1343 c 0,110,111
 2614.19 1278 2614.19 1278 2632.69 1220 c 128,-1,112
 2651.19 1162 2651.19 1162 2675.69 1107 c 128,-1,113
 2700.19 1052 2700.19 1052 2726.69 999 c 128,-1,114
 2753.19 946 2753.19 946 2775.69 891 c 128,-1,115
 2798.19 836 2798.19 836 2812.69 778 c 128,-1,116
 2827.19 720 2827.19 720 2827.19 655 c 1,0,1
1912.19 1989 m 1,117,118
 1896.19 2047 1896.19 2047 1855.19 2067.5 c 128,-1,119
 1814.19 2088 1814.19 2088 1759.19 2088 c 1,120,121
 1720.19 2080 1720.19 2080 1685.19 2056.5 c 128,-1,122
 1650.19 2033 1650.19 2033 1624.19 1998.5 c 128,-1,123
 1598.19 1964 1598.19 1964 1582.69 1921.5 c 128,-1,124
 1567.19 1879 1567.19 1879 1567.19 1834 c 0,125,126
 1567.19 1772 1567.19 1772 1605.19 1722 c 0,127,128
 1662.19 1651 1662.19 1651 1727.19 1599.5 c 128,-1,129
 1792.19 1548 1792.19 1548 1860.19 1504 c 128,-1,130
 1928.19 1460 1928.19 1460 1996.69 1419 c 128,-1,131
 2065.19 1378 2065.19 1378 2129.69 1327.5 c 128,-1,132
 2194.19 1277 2194.19 1277 2251.69 1212 c 128,-1,133
 2309.19 1147 2309.19 1147 2355.19 1056 c 1,134,135
 2346.19 1073 2346.19 1073 2350.69 1099 c 128,-1,136
 2355.19 1125 2355.19 1125 2362.19 1154 c 128,-1,137
 2369.19 1183 2369.19 1183 2373.19 1212 c 128,-1,138
 2377.19 1241 2377.19 1241 2367.19 1264 c 1,139,140
 2285.19 1326 2285.19 1326 2209.19 1378.5 c 128,-1,141
 2133.19 1431 2133.19 1431 2059.19 1480.5 c 128,-1,142
 1985.19 1530 1985.19 1530 1911.19 1580 c 128,-1,143
 1837.19 1630 1837.19 1630 1759.19 1687 c 1,144,145
 1737.19 1725 1737.19 1725 1741.19 1750 c 128,-1,146
 1745.19 1775 1745.19 1775 1763.69 1794 c 128,-1,147
 1782.19 1813 1782.19 1813 1809.69 1829 c 128,-1,148
 1837.19 1845 1837.19 1845 1861.69 1866 c 128,-1,149
 1886.19 1887 1886.19 1887 1901.69 1916 c 128,-1,150
 1917.19 1945 1917.19 1945 1912.19 1989 c 1,117,118
1272.19 2088 m 1,151,152
 1212.19 2088 1212.19 2088 1174.19 2067.5 c 128,-1,153
 1136.19 2047 1136.19 2047 1121.19 1989 c 0,154,155
 1113.19 1943 1113.19 1943 1127.19 1914 c 128,-1,156
 1141.19 1885 1141.19 1885 1165.69 1864.5 c 128,-1,157
 1190.19 1844 1190.19 1844 1217.69 1828.5 c 128,-1,158
 1245.19 1813 1245.19 1813 1264.69 1794.5 c 128,-1,159
 1284.19 1776 1284.19 1776 1289.19 1751 c 128,-1,160
 1294.19 1726 1294.19 1726 1272.19 1687 c 1,161,162
 1194.19 1630 1194.19 1630 1119.69 1580 c 128,-1,163
 1045.19 1530 1045.19 1530 971.694 1480.5 c 128,-1,164
 898.194 1431 898.194 1431 822.694 1378.5 c 128,-1,165
 747.194 1326 747.194 1326 666.194 1264 c 1,166,167
 654.194 1240 654.194 1240 657.694 1211 c 128,-1,168
 661.194 1182 661.194 1182 667.694 1153 c 128,-1,169
 674.194 1124 674.194 1124 678.694 1098 c 128,-1,170
 683.194 1072 683.194 1072 674.194 1056 c 1,171,172
 718.194 1147 718.194 1147 775.694 1212.5 c 128,-1,173
 833.194 1278 833.194 1278 897.694 1328.5 c 128,-1,174
 962.194 1379 962.194 1379 1031.69 1420.5 c 128,-1,175
 1101.19 1462 1101.19 1462 1169.69 1505.5 c 128,-1,176
 1238.19 1549 1238.19 1549 1303.19 1600.5 c 128,-1,177
 1368.19 1652 1368.19 1652 1424.19 1722 c 0,178,179
 1463.19 1773 1463.19 1773 1463.19 1834 c 0,180,181
 1463.19 1879 1463.19 1879 1448.19 1921.5 c 128,-1,182
 1433.19 1964 1433.19 1964 1407.69 1998.5 c 128,-1,183
 1382.19 2033 1382.19 2033 1347.19 2056.5 c 128,-1,184
 1312.19 2080 1312.19 2080 1272.19 2088 c 1,151,152
1567.19 1603 m 1,185,186
 1558.19 1616 1558.19 1616 1547.19 1631 c 128,-1,187
 1536.19 1646 1536.19 1646 1522.69 1652 c 128,-1,188
 1509.19 1658 1509.19 1658 1492.19 1648.5 c 128,-1,189
 1475.19 1639 1475.19 1639 1454.19 1603 c 1,190,-1
 1567.19 1603 l 1,185,186
601.194 413 m 0,191,192
 601.194 264 601.194 264 633.194 125.5 c 128,-1,193
 665.194 -13 665.194 -13 723.694 -133.5 c 128,-1,194
 782.194 -254 782.194 -254 864.194 -353 c 128,-1,195
 946.194 -452 946.194 -452 1046.19 -522.5 c 128,-1,196
 1146.19 -593 1146.19 -593 1261.69 -632 c 128,-1,197
 1377.19 -671 1377.19 -671 1502.19 -671 c 256,198,199
 1627.19 -671 1627.19 -671 1742.69 -632 c 128,-1,200
 1858.19 -593 1858.19 -593 1958.69 -522.5 c 128,-1,201
 2059.19 -452 2059.19 -452 2141.69 -353 c 128,-1,202
 2224.19 -254 2224.19 -254 2283.19 -133.5 c 128,-1,203
 2342.19 -13 2342.19 -13 2374.69 125.5 c 128,-1,204
 2407.19 264 2407.19 264 2407.19 413 c 0,205,206
 2407.19 561 2407.19 561 2374.69 698.5 c 128,-1,207
 2342.19 836 2342.19 836 2283.19 956 c 128,-1,208
 2224.19 1076 2224.19 1076 2141.69 1174.5 c 128,-1,209
 2059.19 1273 2059.19 1273 1958.69 1343.5 c 128,-1,210
 1858.19 1414 1858.19 1414 1742.69 1453 c 128,-1,211
 1627.19 1492 1627.19 1492 1502.19 1492 c 256,212,213
 1377.19 1492 1377.19 1492 1261.69 1453 c 128,-1,214
 1146.19 1414 1146.19 1414 1046.19 1343.5 c 128,-1,215
 946.194 1273 946.194 1273 864.194 1174.5 c 128,-1,216
 782.194 1076 782.194 1076 723.694 956 c 128,-1,217
 665.194 836 665.194 836 633.194 698.5 c 128,-1,218
 601.194 561 601.194 561 601.194 413 c 0,191,192
2810.19 429 m 1,219,220
 2826.19 429 2826.19 429 2836.69 449 c 128,-1,221
 2847.19 469 2847.19 469 2840.19 498 c 0,222,223
 2829.19 528 2829.19 528 2821.19 535 c 128,-1,224
 2813.19 542 2813.19 542 2806.19 535.5 c 128,-1,225
 2799.19 529 2799.19 529 2792.19 513 c 128,-1,226
 2785.19 497 2785.19 497 2775.69 480.5 c 128,-1,227
 2766.19 464 2766.19 464 2753.69 451.5 c 128,-1,228
 2741.19 439 2741.19 439 2723.19 439 c 1,229,230
 2716.19 432 2716.19 432 2716.19 413 c 0,231,232
 2716.19 402 2716.19 402 2718.19 395 c 128,-1,233
 2720.19 388 2720.19 388 2723.19 381 c 1,234,-1
 2751.19 406 l 1,235,-1
 2772.19 381 l 1,236,237
 2779.19 341 2779.19 341 2770.19 307 c 128,-1,238
 2761.19 273 2761.19 273 2723.19 244 c 1,239,240
 2697.19 236 2697.19 236 2670.19 248.5 c 128,-1,241
 2643.19 261 2643.19 261 2608.19 290 c 1,242,243
 2596.19 309 2596.19 309 2589.19 334 c 128,-1,244
 2582.19 359 2582.19 359 2580.19 387 c 128,-1,245
 2578.19 415 2578.19 415 2580.69 443.5 c 128,-1,246
 2583.19 472 2583.19 472 2591.19 498 c 1,247,248
 2606.19 511 2606.19 511 2614.69 535 c 128,-1,249
 2623.19 559 2623.19 559 2632.19 580 c 128,-1,250
 2641.19 601 2641.19 601 2655.69 613 c 128,-1,251
 2670.19 625 2670.19 625 2697.19 615 c 1,252,253
 2722.19 706 2722.19 706 2710.19 797 c 128,-1,254
 2698.19 888 2698.19 888 2664.69 973.5 c 128,-1,255
 2631.19 1059 2631.19 1059 2584.69 1137.5 c 128,-1,256
 2538.19 1216 2538.19 1216 2495.19 1282 c 1,257,258
 2478.19 1257 2478.19 1257 2474.69 1233 c 128,-1,259
 2471.19 1209 2471.19 1209 2473.69 1185 c 128,-1,260
 2476.19 1161 2476.19 1161 2482.19 1137 c 128,-1,261
 2488.19 1113 2488.19 1113 2491.19 1089.5 c 128,-1,262
 2494.19 1066 2494.19 1066 2490.19 1042 c 128,-1,263
 2486.19 1018 2486.19 1018 2469.19 994 c 1,264,265
 2453.19 994 2453.19 994 2443.19 993 c 128,-1,266
 2433.19 992 2433.19 992 2422.19 994 c 1,267,268
 2424.19 986 2424.19 986 2426.19 983 c 128,-1,269
 2428.19 980 2428.19 980 2438.19 964.5 c 128,-1,270
 2448.19 949 2448.19 949 2464.19 901 c 128,-1,271
 2480.19 853 2480.19 853 2491.19 781 c 0,272,273
 2510.19 699 2510.19 699 2520.19 617.5 c 128,-1,274
 2530.19 536 2530.19 536 2530.19 445 c 0,275,276
 2530.19 275 2530.19 275 2493.19 118.5 c 128,-1,277
 2456.19 -38 2456.19 -38 2389.19 -175 c 128,-1,278
 2322.19 -312 2322.19 -312 2228.69 -424 c 128,-1,279
 2135.19 -536 2135.19 -536 2021.19 -616 c 128,-1,280
 1907.19 -696 1907.19 -696 1776.69 -740 c 128,-1,281
 1646.19 -784 1646.19 -784 1506.19 -784 c 0,282,283
 1363.19 -784 1363.19 -784 1231.19 -740 c 128,-1,284
 1099.19 -696 1099.19 -696 985.194 -616 c 128,-1,285
 871.194 -536 871.194 -536 777.694 -424 c 128,-1,286
 684.194 -312 684.194 -312 617.694 -175 c 128,-1,287
 551.194 -38 551.194 -38 514.694 119 c 128,-1,288
 478.194 276 478.194 276 478.194 445 c 0,289,290
 478.194 532 478.194 532 488.694 615 c 128,-1,291
 499.194 698 499.194 698 519.194 785 c 0,292,293
 528.194 848 528.194 848 543.194 893.5 c 128,-1,294
 558.194 939 558.194 939 578.194 974 c 2,295,296
 581.194 982 581.194 982 582.694 982.5 c 128,-1,297
 584.194 983 584.194 983 587.194 991 c 1,298,299
 575.194 988 575.194 988 565.194 989.5 c 128,-1,300
 555.194 991 555.194 991 540.194 991 c 1,301,302
 524.194 1017 524.194 1017 520.694 1041 c 128,-1,303
 517.194 1065 517.194 1065 519.694 1088.5 c 128,-1,304
 522.194 1112 522.194 1112 528.194 1134.5 c 128,-1,305
 534.194 1157 534.194 1157 536.194 1180.5 c 128,-1,306
 538.194 1204 538.194 1204 533.194 1228 c 128,-1,307
 528.194 1252 528.194 1252 510.194 1278 c 1,308,309
 468.194 1210 468.194 1210 422.194 1132.5 c 128,-1,310
 376.194 1055 376.194 1055 343.194 970.5 c 128,-1,311
 310.194 886 310.194 886 298.694 795.5 c 128,-1,312
 287.194 705 287.194 705 313.194 611 c 1,313,314
 341.194 621 341.194 621 354.694 609.5 c 128,-1,315
 368.194 598 368.194 598 376.694 577.5 c 128,-1,316
 385.194 557 385.194 557 393.194 533 c 128,-1,317
 401.194 509 401.194 509 418.194 495 c 1,318,319
 426.194 469 426.194 469 429.194 440.5 c 128,-1,320
 432.194 412 432.194 412 430.194 384.5 c 128,-1,321
 428.194 357 428.194 357 420.194 332.5 c 128,-1,322
 412.194 308 412.194 308 397.194 290 c 0,323,324
 371.194 261 371.194 261 344.194 247.5 c 128,-1,325
 317.194 234 317.194 234 283.194 242 c 1,326,327
 248.194 270 248.194 270 238.694 304 c 128,-1,328
 229.194 338 229.194 338 236.194 381 c 1,329,-1
 257.194 402 l 1,330,-1
 283.194 381 l 1,331,332
 292.194 388 292.194 388 292.194 409 c 0,333,334
 292.194 432 292.194 432 283.194 437 c 1,335,336
 268.194 437 268.194 437 256.194 449.5 c 128,-1,337
 244.194 462 244.194 462 234.694 478.5 c 128,-1,338
 225.194 495 225.194 495 216.694 511 c 128,-1,339
 208.194 527 208.194 527 200.694 533.5 c 128,-1,340
 193.194 540 193.194 540 185.194 532.5 c 128,-1,341
 177.194 525 177.194 525 168.194 495 c 0,342,343
 161.194 467 161.194 467 172.694 446.5 c 128,-1,344
 184.194 426 184.194 426 198.194 426 c 1,345,346
 189.194 363 189.194 363 186.694 289 c 128,-1,347
 184.194 215 184.194 215 193.694 141.5 c 128,-1,348
 203.194 68 203.194 68 226.694 1.5 c 128,-1,349
 250.194 -65 250.194 -65 294.194 -113 c 1,350,351
 315.194 -116 315.194 -116 326.694 -104 c 128,-1,352
 338.194 -92 338.194 -92 344.694 -74 c 128,-1,353
 351.194 -56 351.194 -56 355.694 -35 c 128,-1,354
 360.194 -14 360.194 -14 367.694 1 c 128,-1,355
 375.194 16 375.194 16 388.694 21 c 128,-1,356
 402.194 26 402.194 26 426.194 13 c 1,357,358
 444.194 -35 444.194 -35 460.194 -73.5 c 128,-1,359
 476.194 -112 476.194 -112 498.194 -160.5 c 128,-1,360
 520.194 -209 520.194 -209 545.194 -259 c 128,-1,361
 570.194 -309 570.194 -309 597.694 -355.5 c 128,-1,362
 625.194 -402 625.194 -402 653.194 -436 c 0,363,364
 740.194 -560 740.194 -560 842.694 -654.5 c 128,-1,365
 945.194 -749 945.194 -749 1055.69 -811 c 128,-1,366
 1166.19 -873 1166.19 -873 1281.19 -901 c 128,-1,367
 1396.19 -929 1396.19 -929 1509.19 -920 c 0,368,369
 1624.19 -920 1624.19 -920 1738.69 -891 c 128,-1,370
 1853.19 -862 1853.19 -862 1961.69 -802.5 c 128,-1,371
 2070.19 -743 2070.19 -743 2169.69 -652 c 128,-1,372
 2269.19 -561 2269.19 -561 2355.19 -436 c 0,373,374
 2383.19 -402 2383.19 -402 2410.69 -355 c 128,-1,375
 2438.19 -308 2438.19 -308 2463.19 -257.5 c 128,-1,376
 2488.19 -207 2488.19 -207 2510.19 -158 c 128,-1,377
 2532.19 -109 2532.19 -109 2548.19 -70.5 c 128,-1,378
 2564.19 -32 2564.19 -32 2573.19 -8 c 128,-1,379
 2582.19 16 2582.19 16 2593.69 23 c 128,-1,380
 2605.19 30 2605.19 30 2618.69 25 c 128,-1,381
 2632.19 20 2632.19 20 2639.69 4 c 128,-1,382
 2647.19 -12 2647.19 -12 2651.69 -33.5 c 128,-1,383
 2656.19 -55 2656.19 -55 2663.19 -74 c 128,-1,384
 2670.19 -93 2670.19 -93 2681.69 -104.5 c 128,-1,385
 2693.19 -116 2693.19 -116 2714.19 -111 c 1,386,387
 2756.19 -65 2756.19 -65 2778.69 1 c 128,-1,388
 2801.19 67 2801.19 67 2809.69 140.5 c 128,-1,389
 2818.19 214 2818.19 214 2816.69 289 c 128,-1,390
 2815.19 364 2815.19 364 2810.19 429 c 1,219,220
EndSplineSet
EndChar

StartChar: shaddawithdammatanisolated
Encoding: 64606 64606 62
Width: 482
Flags: W
LayerCount: 2
Fore
SplineSet
482 1788 m 0,0,1
 482 1780 482 1780 475 1769 c 1,2,3
 450 1775 450 1775 381 1800 c 1,4,5
 247 1730 247 1730 174 1730 c 0,6,7
 136 1730 136 1730 92 1743 c 1,8,9
 156 1777 156 1777 156 1818 c 0,10,11
 156 1872 156 1872 106 1872 c 1,12,13
 119 1872 119 1872 70 1865 c 1,14,15
 94 1941 94 1941 141 1941 c 0,16,17
 166 1941 166 1941 184.5 1919 c 128,-1,18
 203 1897 203 1897 203 1865 c 0,19,20
 203 1838 203 1838 186 1792 c 1,21,22
 258 1799 258 1799 319 1837 c 1,23,24
 266 1873 266 1873 266 1915 c 0,25,26
 266 1950 266 1950 309.5 1988.5 c 128,-1,27
 353 2027 353 2027 393 2027 c 0,28,29
 416 2027 416 2027 438.5 2003 c 128,-1,30
 461 1979 461 1979 461 1953 c 0,31,32
 461 1928 461 1928 436 1874 c 1,33,34
 482 1845 482 1845 482 1788 c 0,0,1
455 1677 m 0,35,36
 455 1603 455 1603 425.5 1556 c 128,-1,37
 396 1509 396 1509 350 1509 c 0,38,39
 327 1509 327 1509 282 1532 c 2,40,-1
 278 1534 l 1,41,42
 233 1450 233 1450 174 1450 c 0,43,44
 94 1450 94 1450 94 1554 c 0,45,46
 94 1586 94 1586 117 1650 c 1,47,-1
 137 1652 l 1,48,49
 142 1552 142 1552 186 1552 c 0,50,51
 233 1552 233 1552 272 1687 c 1,52,-1
 291 1689 l 1,53,54
 308 1616 308 1616 356 1616 c 0,55,56
 408 1616 408 1616 430 1726 c 1,57,-1
 450 1726 l 1,58,59
 455 1704 455 1704 455 1677 c 0,35,36
395 1941 m 0,60,61
 395 1982 395 1982 364 1982 c 0,62,63
 334 1982 334 1982 334 1958 c 256,64,65
 334 1934 334 1934 381 1902 c 1,66,67
 395 1928 395 1928 395 1941 c 0,60,61
EndSplineSet
Ligature2: "'liga' Standard Ligatures in Arabic lookup 5 subtable" shadda dammatan
EndChar

StartChar: shaddawithkasratanisolated
Encoding: 64607 64607 63
Width: 546
Flags: W
LayerCount: 2
Fore
SplineSet
546 2522 m 0,0,1
 546 2304 546 2304 411 2304 c 0,2,3
 364 2304 364 2304 328 2331 c 1,4,5
 322 2308 322 2308 308.5 2288 c 128,-1,6
 295 2268 295 2268 276.5 2252.5 c 128,-1,7
 258 2237 258 2237 236 2228 c 128,-1,8
 214 2219 214 2219 192 2219 c 0,9,10
 86 2219 86 2219 86 2359 c 0,11,12
 86 2392 86 2392 114 2491 c 1,13,-1
 144 2496 l 1,14,15
 144 2352 144 2352 195 2352 c 0,16,17
 279 2352 279 2352 312 2562 c 1,18,-1
 335 2570 l 1,19,20
 365 2443 365 2443 411 2443 c 0,21,22
 486 2443 486 2443 498 2634 c 1,23,-1
 528 2647 l 1,24,25
 536 2609 536 2609 541 2577.5 c 128,-1,26
 546 2546 546 2546 546 2522 c 0,0,1
536 2305 m 1,27,28
 516 2219 516 2219 459 2193 c 2,29,-1
 91 2028 l 1,30,31
 128 2123 128 2123 203 2157 c 2,32,-1
 536 2305 l 1,27,28
536 2153 m 1,33,34
 516 2072 516 2072 450 2044 c 2,35,-1
 91 1885 l 1,36,37
 116 1974 116 1974 185 2005 c 2,38,-1
 536 2153 l 1,33,34
EndSplineSet
Ligature2: "'liga' Standard Ligatures in Arabic lookup 5 subtable" shadda kasratan
EndChar

StartChar: shaddawithfathaisolated
Encoding: 64608 64608 64
Width: 1669
Flags: W
LayerCount: 2
Fore
SplineSet
1049 2018 m 1,0,1
 1049 1931 1049 1931 1004 1906 c 2,2,-1
 610 1682 l 1,3,4
 611 1710 611 1710 615 1729 c 128,-1,5
 619 1748 619 1748 628.5 1762 c 128,-1,6
 638 1776 638 1776 654 1787.5 c 128,-1,7
 670 1799 670 1799 695 1813 c 2,8,-1
 1049 2018 l 1,0,1
1065 1642 m 0,9,10
 1065 1423 1065 1423 929 1423 c 0,11,12
 884 1423 884 1423 846 1451 c 1,13,14
 841 1428 841 1428 827.5 1408 c 128,-1,15
 814 1388 814 1388 795.5 1372.5 c 128,-1,16
 777 1357 777 1357 755 1348 c 128,-1,17
 733 1339 733 1339 711 1339 c 0,18,19
 604 1339 604 1339 604 1479 c 0,20,21
 604 1506 604 1506 633 1611 c 1,22,-1
 663 1616 l 1,23,24
 663 1472 663 1472 714 1472 c 0,25,26
 798 1472 798 1472 831 1682 c 1,27,-1
 854 1690 l 1,28,29
 884 1563 884 1563 929 1563 c 0,30,31
 1005 1563 1005 1563 1017 1754 c 1,32,-1
 1046 1767 l 1,33,34
 1055 1729 1055 1729 1060 1697.5 c 128,-1,35
 1065 1666 1065 1666 1065 1642 c 0,9,10
1760 168 m 1,36,-1
 0 168 l 1,37,-1
 0 325 l 1,38,-1
 1760 325 l 1,39,-1
 1760 168 l 1,36,-1
EndSplineSet
Ligature2: "'liga' Standard Ligatures in Arabic lookup 5 subtable" shadda fatha
EndChar

StartChar: shaddawithdammaisolated
Encoding: 64609 64609 65
Width: 1669
Flags: W
LayerCount: 2
Fore
SplineSet
1057 1954 m 1,0,-1
 1046 1825 l 1,1,-1
 942 1893 l 1,2,3
 786 1706 786 1706 686 1706 c 0,4,5
 662 1706 662 1706 610 1721 c 1,6,7
 676 1759 676 1759 745 1808.5 c 128,-1,8
 814 1858 814 1858 887 1924 c 1,9,10
 807 1983 807 1983 807 2041 c 0,11,12
 807 2068 807 2068 817.5 2105 c 128,-1,13
 828 2142 828 2142 847.5 2176.5 c 128,-1,14
 867 2211 867 2211 895 2235 c 128,-1,15
 923 2259 923 2259 958 2259 c 0,16,17
 1046 2259 1046 2259 1046 2145 c 0,18,19
 1046 2077 1046 2077 1006 1993 c 1,20,21
 1024 1979 1024 1979 1057 1954 c 1,0,-1
1065 1642 m 0,22,23
 1065 1423 1065 1423 929 1423 c 0,24,25
 884 1423 884 1423 846 1451 c 1,26,27
 841 1428 841 1428 827.5 1408 c 128,-1,28
 814 1388 814 1388 795.5 1372.5 c 128,-1,29
 777 1357 777 1357 755 1348 c 128,-1,30
 733 1339 733 1339 711 1339 c 0,31,32
 604 1339 604 1339 604 1479 c 0,33,34
 604 1506 604 1506 633 1611 c 1,35,-1
 663 1616 l 1,36,37
 663 1472 663 1472 714 1472 c 0,38,39
 798 1472 798 1472 831 1682 c 1,40,-1
 854 1690 l 1,41,42
 884 1563 884 1563 929 1563 c 0,43,44
 1005 1563 1005 1563 1017 1754 c 1,45,-1
 1046 1767 l 1,46,47
 1055 1729 1055 1729 1060 1697.5 c 128,-1,48
 1065 1666 1065 1666 1065 1642 c 0,22,23
966 2068 m 256,49,50
 966 2083 966 2083 960.5 2097.5 c 128,-1,51
 955 2112 955 2112 945 2123.5 c 128,-1,52
 935 2135 935 2135 922.5 2141.5 c 128,-1,53
 910 2148 910 2148 897 2148 c 0,54,55
 874 2148 874 2148 874 2122 c 0,56,57
 874 2081 874 2081 958 2024 c 1,58,59
 966 2053 966 2053 966 2068 c 256,49,50
1760 168 m 1,60,-1
 0 168 l 1,61,-1
 0 325 l 1,62,-1
 1760 325 l 1,63,-1
 1760 168 l 1,60,-1
EndSplineSet
Ligature2: "'liga' Standard Ligatures in Arabic lookup 5 subtable" shadda damma
EndChar

StartChar: shaddawithkasraisolated
Encoding: 64610 64610 66
Width: 1669
Flags: W
LayerCount: 2
Fore
SplineSet
1065 1938 m 0,0,1
 1065 1720 1065 1720 929 1720 c 0,2,3
 883 1720 883 1720 846 1747 c 1,4,5
 841 1725 841 1725 827.5 1705 c 128,-1,6
 814 1685 814 1685 795.5 1669.5 c 128,-1,7
 777 1654 777 1654 755 1644.5 c 128,-1,8
 733 1635 733 1635 711 1635 c 0,9,10
 604 1635 604 1635 604 1776 c 0,11,12
 604 1802 604 1802 633 1907 c 1,13,-1
 663 1912 l 1,14,15
 663 1768 663 1768 714 1768 c 0,16,17
 798 1768 798 1768 831 1979 c 1,18,-1
 854 1986 l 1,19,20
 884 1859 884 1859 929 1859 c 0,21,22
 1005 1859 1005 1859 1017 2050 c 1,23,-1
 1046 2063 l 1,24,25
 1055 2025 1055 2025 1060 1994 c 128,-1,26
 1065 1963 1065 1963 1065 1938 c 0,0,1
1049 1674 m 1,27,28
 1049 1588 1049 1588 1004 1563 c 2,29,-1
 610 1339 l 1,30,31
 611 1367 611 1367 615 1386 c 128,-1,32
 619 1405 619 1405 628.5 1419 c 128,-1,33
 638 1433 638 1433 654 1444.5 c 128,-1,34
 670 1456 670 1456 695 1470 c 2,35,-1
 1049 1674 l 1,27,28
1760 168 m 1,36,-1
 0 168 l 1,37,-1
 0 325 l 1,38,-1
 1760 325 l 1,39,-1
 1760 168 l 1,36,-1
EndSplineSet
Ligature2: "'liga' Standard Ligatures in Arabic lookup 5 subtable" shadda kasra
EndChar

StartChar: shaddawithfathamedial
Encoding: 64754 64754 67
Width: 1669
Flags: W
LayerCount: 2
Fore
SplineSet
1049 2018 m 1,0,1
 1049 1931 1049 1931 1004 1906 c 2,2,-1
 610 1682 l 1,3,4
 611 1710 611 1710 615 1729 c 128,-1,5
 619 1748 619 1748 628.5 1762 c 128,-1,6
 638 1776 638 1776 654 1787.5 c 128,-1,7
 670 1799 670 1799 695 1813 c 2,8,-1
 1049 2018 l 1,0,1
1065 1642 m 0,9,10
 1065 1423 1065 1423 929 1423 c 0,11,12
 884 1423 884 1423 846 1451 c 1,13,14
 841 1428 841 1428 827.5 1408 c 128,-1,15
 814 1388 814 1388 795.5 1372.5 c 128,-1,16
 777 1357 777 1357 755 1348 c 128,-1,17
 733 1339 733 1339 711 1339 c 0,18,19
 604 1339 604 1339 604 1479 c 0,20,21
 604 1506 604 1506 633 1611 c 1,22,-1
 663 1616 l 1,23,24
 663 1472 663 1472 714 1472 c 0,25,26
 798 1472 798 1472 831 1682 c 1,27,-1
 854 1690 l 1,28,29
 884 1563 884 1563 929 1563 c 0,30,31
 1005 1563 1005 1563 1017 1754 c 1,32,-1
 1046 1767 l 1,33,34
 1055 1729 1055 1729 1060 1697.5 c 128,-1,35
 1065 1666 1065 1666 1065 1642 c 0,9,10
1760 168 m 1,36,-1
 0 168 l 1,37,-1
 0 325 l 1,38,-1
 1760 325 l 1,39,-1
 1760 168 l 1,36,-1
EndSplineSet
Ligature2: "'liga' Standard Ligatures in Arabic lookup 4 subtable" tatweel shadda fatha
EndChar

StartChar: shaddawithdammamedial
Encoding: 64755 64755 68
Width: 1669
Flags: W
LayerCount: 2
Fore
SplineSet
1057 1954 m 1,0,-1
 1046 1825 l 1,1,-1
 942 1893 l 1,2,3
 786 1706 786 1706 686 1706 c 0,4,5
 662 1706 662 1706 610 1721 c 1,6,7
 676 1759 676 1759 745 1808.5 c 128,-1,8
 814 1858 814 1858 887 1924 c 1,9,10
 807 1983 807 1983 807 2041 c 0,11,12
 807 2068 807 2068 817.5 2105 c 128,-1,13
 828 2142 828 2142 847.5 2176.5 c 128,-1,14
 867 2211 867 2211 895 2235 c 128,-1,15
 923 2259 923 2259 958 2259 c 0,16,17
 1046 2259 1046 2259 1046 2145 c 0,18,19
 1046 2077 1046 2077 1006 1993 c 1,20,21
 1024 1979 1024 1979 1057 1954 c 1,0,-1
1065 1642 m 0,22,23
 1065 1423 1065 1423 929 1423 c 0,24,25
 884 1423 884 1423 846 1451 c 1,26,27
 841 1428 841 1428 827.5 1408 c 128,-1,28
 814 1388 814 1388 795.5 1372.5 c 128,-1,29
 777 1357 777 1357 755 1348 c 128,-1,30
 733 1339 733 1339 711 1339 c 0,31,32
 604 1339 604 1339 604 1479 c 0,33,34
 604 1506 604 1506 633 1611 c 1,35,-1
 663 1616 l 1,36,37
 663 1472 663 1472 714 1472 c 0,38,39
 798 1472 798 1472 831 1682 c 1,40,-1
 854 1690 l 1,41,42
 884 1563 884 1563 929 1563 c 0,43,44
 1005 1563 1005 1563 1017 1754 c 1,45,-1
 1046 1767 l 1,46,47
 1055 1729 1055 1729 1060 1697.5 c 128,-1,48
 1065 1666 1065 1666 1065 1642 c 0,22,23
966 2068 m 256,49,50
 966 2083 966 2083 960.5 2097.5 c 128,-1,51
 955 2112 955 2112 945 2123.5 c 128,-1,52
 935 2135 935 2135 922.5 2141.5 c 128,-1,53
 910 2148 910 2148 897 2148 c 0,54,55
 874 2148 874 2148 874 2122 c 0,56,57
 874 2081 874 2081 958 2024 c 1,58,59
 966 2053 966 2053 966 2068 c 256,49,50
1760 168 m 1,60,-1
 0 168 l 1,61,-1
 0 325 l 1,62,-1
 1760 325 l 1,63,-1
 1760 168 l 1,60,-1
EndSplineSet
Ligature2: "'liga' Standard Ligatures in Arabic lookup 4 subtable" tatweel shadda damma
EndChar

StartChar: shaddawithkasramedial
Encoding: 64756 64756 69
Width: 1669
Flags: W
LayerCount: 2
Fore
SplineSet
1065 1938 m 0,0,1
 1065 1720 1065 1720 929 1720 c 0,2,3
 883 1720 883 1720 846 1747 c 1,4,5
 841 1725 841 1725 827.5 1705 c 128,-1,6
 814 1685 814 1685 795.5 1669.5 c 128,-1,7
 777 1654 777 1654 755 1644.5 c 128,-1,8
 733 1635 733 1635 711 1635 c 0,9,10
 604 1635 604 1635 604 1776 c 0,11,12
 604 1802 604 1802 633 1907 c 1,13,-1
 663 1912 l 1,14,15
 663 1768 663 1768 714 1768 c 0,16,17
 798 1768 798 1768 831 1979 c 1,18,-1
 854 1986 l 1,19,20
 884 1859 884 1859 929 1859 c 0,21,22
 1005 1859 1005 1859 1017 2050 c 1,23,-1
 1046 2063 l 1,24,25
 1055 2025 1055 2025 1060 1994 c 128,-1,26
 1065 1963 1065 1963 1065 1938 c 0,0,1
1049 1674 m 1,27,28
 1049 1588 1049 1588 1004 1563 c 2,29,-1
 610 1339 l 1,30,31
 611 1367 611 1367 615 1386 c 128,-1,32
 619 1405 619 1405 628.5 1419 c 128,-1,33
 638 1433 638 1433 654 1444.5 c 128,-1,34
 670 1456 670 1456 695 1470 c 2,35,-1
 1049 1674 l 1,27,28
1760 168 m 1,36,-1
 0 168 l 1,37,-1
 0 325 l 1,38,-1
 1760 325 l 1,39,-1
 1760 168 l 1,36,-1
EndSplineSet
Ligature2: "'liga' Standard Ligatures in Arabic lookup 4 subtable" tatweel shadda kasra
EndChar

StartChar: ornateleftparenthesis
Encoding: 64830 64830 70
Width: 2145
Flags: W
LayerCount: 2
Fore
SplineSet
1657 -796 m 1,0,1
 1657 -815 1657 -815 1626 -815 c 0,2,3
 1604 -815 1604 -815 1571 -800.5 c 128,-1,4
 1538 -786 1538 -786 1498 -759.5 c 128,-1,5
 1458 -733 1458 -733 1413.5 -696 c 128,-1,6
 1369 -659 1369 -659 1324 -615 c 128,-1,7
 1279 -571 1279 -571 1235.5 -520.5 c 128,-1,8
 1192 -470 1192 -470 1154 -417 c 0,9,10
 1011 -219 1011 -219 920 30 c 1,11,-1
 805 34 l 2,12,13
 776 35 776 35 748 40.5 c 128,-1,14
 720 46 720 46 698 55 c 128,-1,15
 676 64 676 64 662.5 75.5 c 128,-1,16
 649 87 649 87 649 101 c 1,17,18
 737 179 737 179 782 250.5 c 128,-1,19
 827 322 827 322 827 391 c 1,20,21
 780 391 780 391 725 355 c 0,22,23
 708 344 708 344 663.5 306.5 c 128,-1,24
 619 269 619 269 547 200 c 1,25,26
 539 200 539 200 531 206.5 c 128,-1,27
 523 213 523 213 514 235 c 128,-1,28
 505 257 505 257 495.5 299 c 128,-1,29
 486 341 486 341 476 412 c 1,30,31
 331 478 331 478 331 536 c 0,32,33
 331 593 331 593 468 676 c 1,34,-1
 472 753 l 2,35,36
 473 782 473 782 480 805.5 c 128,-1,37
 487 829 487 829 496 845.5 c 128,-1,38
 505 862 505 862 515 870.5 c 128,-1,39
 525 879 525 879 532 879 c 1,40,41
 566 842 566 842 604 808.5 c 128,-1,42
 642 775 642 775 680 749 c 128,-1,43
 718 723 718 723 755.5 707.5 c 128,-1,44
 793 692 793 692 827 692 c 1,45,46
 821 759 821 759 758 842 c 0,47,48
 743 864 743 864 633 983 c 1,49,50
 633 992 633 992 660 1005 c 128,-1,51
 687 1018 687 1018 728.5 1030 c 128,-1,52
 770 1042 770 1042 819 1050.5 c 128,-1,53
 868 1059 868 1059 913 1059 c 1,54,55
 995 1315 995 1315 1125.5 1513 c 128,-1,56
 1256 1711 1256 1711 1429 1846 c 0,57,58
 1541 1937 1541 1937 1591 1937 c 0,59,60
 1602 1937 1602 1937 1611.5 1932.5 c 128,-1,61
 1621 1928 1621 1928 1622 1917 c 1,62,-1
 1617 1907 l 1,63,64
 1604 1894 1604 1894 1582 1866.5 c 128,-1,65
 1560 1839 1560 1839 1533 1802 c 128,-1,66
 1506 1765 1506 1765 1476 1720 c 128,-1,67
 1446 1675 1446 1675 1415.5 1626 c 128,-1,68
 1385 1577 1385 1577 1356 1526 c 128,-1,69
 1327 1475 1327 1475 1303 1426 c 0,70,71
 1252 1323 1252 1323 1222 1230 c 128,-1,72
 1192 1137 1192 1137 1176 1046 c 1,73,74
 1215 1040 1215 1040 1240 1034 c 128,-1,75
 1265 1028 1265 1028 1280 1021.5 c 128,-1,76
 1295 1015 1295 1015 1300.5 1006.5 c 128,-1,77
 1306 998 1306 998 1306 988 c 1,78,79
 1219 916 1219 916 1171 844.5 c 128,-1,80
 1123 773 1123 773 1123 701 c 1,81,82
 1149 701 1149 701 1177.5 711 c 128,-1,83
 1206 721 1206 721 1239.5 743.5 c 128,-1,84
 1273 766 1273 766 1313 802.5 c 128,-1,85
 1353 839 1353 839 1403 892 c 1,86,87
 1410 892 1410 892 1423 873 c 128,-1,88
 1436 854 1436 854 1448.5 823.5 c 128,-1,89
 1461 793 1461 793 1470 755 c 128,-1,90
 1479 717 1479 717 1479 679 c 1,91,92
 1521 657 1521 657 1547.5 641 c 128,-1,93
 1574 625 1574 625 1589.5 610.5 c 128,-1,94
 1605 596 1605 596 1611 581.5 c 128,-1,95
 1617 567 1617 567 1617 549 c 0,96,97
 1617 536 1617 536 1613.5 526.5 c 128,-1,98
 1610 517 1610 517 1596.5 504.5 c 128,-1,99
 1583 492 1583 492 1557 473.5 c 128,-1,100
 1531 455 1531 455 1487 424 c 1,101,102
 1487 336 1487 336 1471.5 281.5 c 128,-1,103
 1456 227 1456 227 1416 216 c 1,104,105
 1378 256 1378 256 1344.5 286.5 c 128,-1,106
 1311 317 1311 317 1277.5 339.5 c 128,-1,107
 1244 362 1244 362 1207.5 376.5 c 128,-1,108
 1171 391 1171 391 1128 399 c 1,109,110
 1131 369 1131 369 1143 329.5 c 128,-1,111
 1155 290 1155 290 1189 252 c 2,112,-1
 1319 104 l 1,113,114
 1319 96 1319 96 1314 89.5 c 128,-1,115
 1309 83 1309 83 1294 76.5 c 128,-1,116
 1279 70 1279 70 1251.5 62.5 c 128,-1,117
 1224 55 1224 55 1179 45 c 1,118,119
 1198 -56 1198 -56 1242 -167.5 c 128,-1,120
 1286 -279 1286 -279 1347 -386 c 128,-1,121
 1408 -493 1408 -493 1481 -588 c 128,-1,122
 1554 -683 1554 -683 1631 -751 c 0,123,124
 1646 -767 1646 -767 1657 -796 c 1,0,1
1503 1841 m 1,125,126
 1150 1608 1150 1608 946 998 c 1,127,-1
 779 996 l 2,128,129
 731 996 731 996 731 966 c 1,130,-1
 803 900 l 2,131,132
 851 846 851 846 883 780 c 1,133,134
 939 884 939 884 979 887 c 0,135,136
 994 887 994 887 1006 874 c 1,137,-1
 1063 780 l 1,138,139
 1073 804 1073 804 1088.5 829 c 128,-1,140
 1104 854 1104 854 1124 880 c 2,141,-1
 1210 975 l 1,142,143
 1210 982 1210 982 1182 992 c 1,144,-1
 1111 1006 l 1,145,146
 1125 1094 1125 1094 1147.5 1177.5 c 128,-1,147
 1170 1261 1170 1261 1206 1346 c 128,-1,148
 1242 1431 1242 1431 1294 1522 c 128,-1,149
 1346 1613 1346 1613 1418 1717 c 2,150,-1
 1503 1841 l 1,125,126
1546 556 m 1,151,152
 1546 591 1546 591 1426 630 c 1,153,154
 1426 705 1426 705 1415.5 746.5 c 128,-1,155
 1405 788 1405 788 1394 796 c 1,156,-1
 1316 725 l 2,157,158
 1278 694 1278 694 1246 672.5 c 128,-1,159
 1214 651 1214 651 1187 640 c 1,160,161
 1312 586 1312 586 1312 543 c 0,162,163
 1312 533 1312 533 1307 524 c 128,-1,164
 1302 515 1302 515 1288.5 505 c 128,-1,165
 1275 495 1275 495 1252 483 c 128,-1,166
 1229 471 1229 471 1192 455 c 1,167,168
 1258 433 1258 433 1305 394 c 2,169,-1
 1403 309 l 1,170,171
 1411 309 1411 309 1421 346 c 1,172,-1
 1426 460 l 1,173,174
 1535 520 1535 520 1546 556 c 1,151,152
1144 543 m 0,175,176
 1144 576 1144 576 1131.5 606.5 c 128,-1,177
 1119 637 1119 637 1096.5 660.5 c 128,-1,178
 1074 684 1074 684 1043.5 697.5 c 128,-1,179
 1013 711 1013 711 976 711 c 0,180,181
 943 711 943 711 913 697.5 c 128,-1,182
 883 684 883 684 859.5 660.5 c 128,-1,183
 836 637 836 637 822.5 606.5 c 128,-1,184
 809 576 809 576 809 543 c 0,185,186
 809 508 809 508 821.5 478.5 c 128,-1,187
 834 449 834 449 856 427 c 128,-1,188
 878 405 878 405 909 393 c 128,-1,189
 940 381 940 381 976 381 c 0,190,191
 1009 381 1009 381 1039.5 393.5 c 128,-1,192
 1070 406 1070 406 1093.5 428 c 128,-1,193
 1117 450 1117 450 1130.5 479.5 c 128,-1,194
 1144 509 1144 509 1144 543 c 0,175,176
763 452 m 1,195,196
 703 477 703 477 672 502.5 c 128,-1,197
 641 528 641 528 641 549 c 0,198,199
 641 591 641 591 760 636 c 1,200,201
 737 643 737 643 716 652 c 128,-1,202
 695 661 695 661 670.5 677 c 128,-1,203
 646 693 646 693 616.5 718.5 c 128,-1,204
 587 744 587 744 547 783 c 1,205,206
 524 783 524 783 524 630 c 1,207,208
 469 602 469 602 439 578 c 128,-1,209
 409 554 409 554 404 536 c 1,210,211
 404 506 404 506 524 460 c 1,212,-1
 525 394 l 1,213,-1
 534 348 l 2,214,215
 542 301 542 301 555 295 c 1,216,-1
 659 386 l 2,217,218
 721 436 721 436 763 452 c 1,195,196
1561 -742 m 1,219,220
 1487 -673 1487 -673 1418.5 -582.5 c 128,-1,221
 1350 -492 1350 -492 1292.5 -385.5 c 128,-1,222
 1235 -279 1235 -279 1191 -159.5 c 128,-1,223
 1147 -40 1147 -40 1123 88 c 1,224,225
 1220 88 1220 88 1226 117 c 1,226,-1
 1143 196 l 2,227,228
 1119 224 1119 224 1099.5 253 c 128,-1,229
 1080 282 1080 282 1063 312 c 1,230,231
 1013 205 1013 205 976 205 c 0,232,233
 935 205 935 205 888 312 c 1,234,235
 877 283 877 283 860.5 256 c 128,-1,236
 844 229 844 229 824 203 c 2,237,-1
 745 112 l 1,238,-1
 794 94 l 1,239,-1
 915 94 l 1,240,-1
 955 94 l 1,241,242
 998 -37 998 -37 1059 -158.5 c 128,-1,243
 1120 -280 1120 -280 1197 -387.5 c 128,-1,244
 1274 -495 1274 -495 1365.5 -585 c 128,-1,245
 1457 -675 1457 -675 1561 -742 c 1,219,220
EndSplineSet
EndChar

StartChar: ornaterightparenthesis
Encoding: 64831 64831 71
Width: 2145
Flags: W
LayerCount: 2
Fore
SplineSet
1838 536 m 0,0,1
 1838 485 1838 485 1694 412 c 1,2,-1
 1693 376 l 1,3,-1
 1681 322 l 2,4,5
 1670 259 1670 259 1654.5 229.5 c 128,-1,6
 1639 200 1639 200 1622 200 c 1,7,8
 1498 318 1498 318 1479 329 c 0,9,10
 1399 391 1399 391 1343 391 c 1,11,12
 1343 322 1343 322 1385 252 c 128,-1,13
 1427 182 1427 182 1521 101 c 1,14,15
 1521 86 1521 86 1501.5 73 c 128,-1,16
 1482 60 1482 60 1446 50.5 c 128,-1,17
 1410 41 1410 41 1360 35.5 c 128,-1,18
 1310 30 1310 30 1249 30 c 1,19,20
 1208 -82 1208 -82 1152.5 -189.5 c 128,-1,21
 1097 -297 1097 -297 1029.5 -394.5 c 128,-1,22
 962 -492 962 -492 882 -577 c 128,-1,23
 802 -662 802 -662 711 -729 c 0,24,25
 651 -771 651 -771 611.5 -793.5 c 128,-1,26
 572 -816 572 -816 543 -815 c 0,27,28
 512 -815 512 -815 512 -796 c 1,29,30
 516 -777 516 -777 538 -751 c 1,31,32
 614 -684 614 -684 687 -591 c 128,-1,33
 760 -498 760 -498 821 -391.5 c 128,-1,34
 882 -285 882 -285 926.5 -172.5 c 128,-1,35
 971 -60 971 -60 991 45 c 1,36,37
 937 57 937 57 908.5 64 c 128,-1,38
 880 71 880 71 867.5 77 c 128,-1,39
 855 83 855 83 853 89 c 128,-1,40
 851 95 851 95 850 104 c 1,41,42
 913 170 913 170 944 207 c 128,-1,43
 975 244 975 244 980 251 c 0,44,45
 1041 336 1041 336 1041 399 c 1,46,47
 1005 395 1005 395 972 383.5 c 128,-1,48
 939 372 939 372 905.5 350.5 c 128,-1,49
 872 329 872 329 835 296 c 128,-1,50
 798 263 798 263 754 216 c 1,51,52
 722 220 722 220 702 268.5 c 128,-1,53
 682 317 682 317 682 424 c 1,54,55
 552 499 552 499 552 549 c 0,56,57
 552 565 552 565 558 579 c 128,-1,58
 564 593 564 593 579.5 608 c 128,-1,59
 595 623 595 623 622 640 c 128,-1,60
 649 657 649 657 690 679 c 1,61,62
 690 712 690 712 696.5 749.5 c 128,-1,63
 703 787 703 787 714 818.5 c 128,-1,64
 725 850 725 850 739 871 c 128,-1,65
 753 892 753 892 767 892 c 1,66,67
 820 833 820 833 860 796 c 128,-1,68
 900 759 900 759 932 738 c 128,-1,69
 964 717 964 717 991.5 709 c 128,-1,70
 1019 701 1019 701 1046 701 c 1,71,72
 1046 732 1046 732 1036 765 c 128,-1,73
 1026 798 1026 798 1004.5 833.5 c 128,-1,74
 983 869 983 869 948 907.5 c 128,-1,75
 913 946 913 946 863 988 c 1,76,77
 863 1003 863 1003 890 1020 c 1,78,-1
 993 1046 l 1,79,80
 980 1126 980 1126 953.5 1212 c 128,-1,81
 927 1298 927 1298 888 1386.5 c 128,-1,82
 849 1475 849 1475 798 1564 c 128,-1,83
 747 1653 747 1653 684 1739 c 2,84,-1
 614 1836 l 2,85,86
 590 1866 590 1866 577 1879.5 c 128,-1,87
 564 1893 564 1893 552 1907 c 1,88,-1
 547 1917 l 1,89,-1
 550 1923 l 1,90,91
 555 1929 555 1929 556 1932 c 1,92,-1
 578 1937 l 1,93,94
 599 1937 599 1937 631 1921 c 128,-1,95
 663 1905 663 1905 701.5 1876.5 c 128,-1,96
 740 1848 740 1848 783 1808 c 128,-1,97
 826 1768 826 1768 870 1721 c 128,-1,98
 914 1674 914 1674 956.5 1621.5 c 128,-1,99
 999 1569 999 1569 1036 1514 c 0,100,101
 1102 1414 1102 1414 1156.5 1302.5 c 128,-1,102
 1211 1191 1211 1191 1257 1059 c 1,103,104
 1301 1059 1301 1059 1350.5 1051.5 c 128,-1,105
 1400 1044 1400 1044 1441.5 1032.5 c 128,-1,106
 1483 1021 1483 1021 1510 1008 c 128,-1,107
 1537 995 1537 995 1537 983 c 1,108,-1
 1413 844 l 2,109,110
 1379 806 1379 806 1364.5 766 c 128,-1,111
 1350 726 1350 726 1343 692 c 1,112,113
 1374 692 1374 692 1406 701.5 c 128,-1,114
 1438 711 1438 711 1473.5 733 c 128,-1,115
 1509 755 1509 755 1549.5 791 c 128,-1,116
 1590 827 1590 827 1638 879 c 1,117,118
 1647 879 1647 879 1658.5 860 c 128,-1,119
 1670 841 1670 841 1679.5 812 c 128,-1,120
 1689 783 1689 783 1695.5 746.5 c 128,-1,121
 1702 710 1702 710 1702 676 c 1,122,123
 1838 594 1838 594 1838 536 c 0,0,1
1439 966 m 1,124,125
 1439 985 1439 985 1405 992 c 1,126,-1
 1223 998 l 1,127,128
 1026 1604 1026 1604 667 1841 c 1,129,-1
 751 1717 l 2,130,131
 777 1679 777 1679 799.5 1645 c 128,-1,132
 822 1611 822 1611 841 1579 c 2,133,-1
 918 1436 l 2,134,135
 973 1333 973 1333 1003.5 1225 c 128,-1,136
 1034 1117 1034 1117 1058 1006 c 1,137,-1
 1007 997 l 2,138,139
 962 990 962 990 959 975 c 1,140,141
 986 948 986 948 1006.5 926 c 128,-1,142
 1027 904 1027 904 1044.5 882 c 128,-1,143
 1062 860 1062 860 1076.5 835.5 c 128,-1,144
 1091 811 1091 811 1106 780 c 1,145,146
 1125 814 1125 814 1136 834 c 128,-1,147
 1147 854 1147 854 1155.5 864.5 c 128,-1,148
 1164 875 1164 875 1171.5 879.5 c 128,-1,149
 1179 884 1179 884 1191 887 c 1,150,151
 1199 887 1199 887 1207.5 882 c 128,-1,152
 1216 877 1216 877 1227.5 864.5 c 128,-1,153
 1239 852 1239 852 1253.5 831.5 c 128,-1,154
 1268 811 1268 811 1287 780 c 1,155,156
 1299 805 1299 805 1317.5 831 c 128,-1,157
 1336 857 1336 857 1357 882 c 128,-1,158
 1378 907 1378 907 1399.5 928.5 c 128,-1,159
 1421 950 1421 950 1439 966 c 1,124,125
1765 536 m 0,160,161
 1762 565 1762 565 1646 630 c 1,162,163
 1646 783 1646 783 1622 783 c 1,164,-1
 1524 697 l 2,165,166
 1503 682 1503 682 1474 667.5 c 128,-1,167
 1445 653 1445 653 1409 636 c 1,168,169
 1529 592 1529 592 1529 549 c 0,170,171
 1529 508 1529 508 1407 452 c 1,172,173
 1433 441 1433 441 1466.5 420 c 128,-1,174
 1500 399 1500 399 1542 361 c 2,175,-1
 1615 295 l 1,176,177
 1619 295 1619 295 1624 311 c 128,-1,178
 1629 327 1629 327 1634 351.5 c 128,-1,179
 1639 376 1639 376 1642.5 405 c 128,-1,180
 1646 434 1646 434 1646 460 c 1,181,182
 1765 504 1765 504 1765 536 c 0,160,161
1361 543 m 256,183,184
 1361 578 1361 578 1348 609 c 128,-1,185
 1335 640 1335 640 1312.5 662.5 c 128,-1,186
 1290 685 1290 685 1259.5 698 c 128,-1,187
 1229 711 1229 711 1193 711 c 0,188,189
 1160 711 1160 711 1130 697.5 c 128,-1,190
 1100 684 1100 684 1076.5 660.5 c 128,-1,191
 1053 637 1053 637 1039.5 606.5 c 128,-1,192
 1026 576 1026 576 1026 543 c 256,193,194
 1026 510 1026 510 1039.5 480.5 c 128,-1,195
 1053 451 1053 451 1076.5 429 c 128,-1,196
 1100 407 1100 407 1130 394 c 128,-1,197
 1160 381 1160 381 1193 381 c 0,198,199
 1230 381 1230 381 1261 393 c 128,-1,200
 1292 405 1292 405 1314.5 427 c 128,-1,201
 1337 449 1337 449 1349 478.5 c 128,-1,202
 1361 508 1361 508 1361 543 c 256,183,184
983 640 m 1,203,204
 967 646 967 646 957 649.5 c 128,-1,205
 947 653 947 653 937.5 657.5 c 128,-1,206
 928 662 928 662 916.5 670.5 c 128,-1,207
 905 679 905 679 887.5 694 c 128,-1,208
 870 709 870 709 843.5 734 c 128,-1,209
 817 759 817 759 776 796 c 1,210,211
 772 795 772 795 754 740 c 1,212,-1
 744 630 l 1,213,214
 722 623 722 623 701.5 615 c 128,-1,215
 681 607 681 607 664.5 597.5 c 128,-1,216
 648 588 648 588 637.5 578 c 128,-1,217
 627 568 627 568 624 556 c 1,218,219
 628 524 628 524 744 460 c 1,220,221
 744 309 744 309 767 309 c 1,222,-1
 864 393 l 2,223,224
 893 415 893 415 921.5 430 c 128,-1,225
 950 445 950 445 978 455 c 1,226,-1
 903 486 l 1,227,228
 883 498 883 498 870.5 513 c 128,-1,229
 858 528 858 528 858 543 c 0,230,231
 858 581 858 581 983 640 c 1,203,204
1425 112 m 1,232,-1
 1345 203 l 2,233,234
 1328 226 1328 226 1312 253 c 128,-1,235
 1296 280 1296 280 1282 312 c 1,236,237
 1243 205 1243 205 1193 205 c 0,238,239
 1159 205 1159 205 1106 312 c 1,240,241
 1094 285 1094 285 1083 266 c 128,-1,242
 1072 247 1072 247 1055 227 c 128,-1,243
 1038 207 1038 207 1012 181.5 c 128,-1,244
 986 156 986 156 944 117 c 1,245,246
 944 108 944 108 968 98 c 128,-1,247
 992 88 992 88 1046 88 c 1,248,249
 1029 -26 1029 -26 988 -142.5 c 128,-1,250
 947 -259 947 -259 889 -368 c 128,-1,251
 831 -477 831 -477 759 -573 c 128,-1,252
 687 -669 687 -669 608 -742 c 1,253,254
 705 -679 705 -679 794.5 -594.5 c 128,-1,255
 884 -510 884 -510 961.5 -405 c 128,-1,256
 1039 -300 1039 -300 1103 -175 c 128,-1,257
 1167 -50 1167 -50 1214 94 c 1,258,-1
 1291 88 l 2,259,260
 1317 86 1317 86 1340.5 88.5 c 128,-1,261
 1364 91 1364 91 1382 95.5 c 128,-1,262
 1400 100 1400 100 1411.5 105 c 128,-1,263
 1423 110 1423 110 1425 112 c 1,232,-1
EndSplineSet
EndChar

StartChar: allahisolated
Encoding: 65010 65010 72
Width: 1468
Flags: W
LayerCount: 2
Fore
SplineSet
957 1481 m 1,0,1
 944 1382 944 1382 906 1320 c 128,-1,2
 868 1258 868 1258 802 1245 c 0,3,4
 798 1245 798 1245 793.5 1246 c 128,-1,5
 789 1247 789 1247 781 1251 c 128,-1,6
 773 1255 773 1255 761 1262.5 c 128,-1,7
 749 1270 749 1270 731 1283 c 1,8,9
 702 1250 702 1250 681.5 1230.5 c 128,-1,10
 661 1211 661 1211 645 1200.5 c 128,-1,11
 629 1190 629 1190 616.5 1187 c 128,-1,12
 604 1184 604 1184 591 1184 c 0,13,14
 564 1184 564 1184 545 1197.5 c 128,-1,15
 526 1211 526 1211 514 1235 c 128,-1,16
 502 1259 502 1259 496.5 1292 c 128,-1,17
 491 1325 491 1325 491 1364 c 0,18,19
 491 1374 491 1374 498.5 1404 c 128,-1,20
 506 1434 506 1434 517 1466 c 128,-1,21
 528 1498 528 1498 542 1523 c 128,-1,22
 556 1548 556 1548 569 1548 c 0,23,24
 592 1546 592 1546 589 1508 c 0,25,26
 584 1485 584 1485 581 1470.5 c 128,-1,27
 578 1456 578 1456 576 1446.5 c 128,-1,28
 574 1437 574 1437 573.5 1431 c 128,-1,29
 573 1425 573 1425 573 1420 c 0,30,31
 573 1361 573 1361 610 1361 c 1,32,33
 663 1370 663 1370 689 1398.5 c 128,-1,34
 715 1427 715 1427 731 1479 c 0,35,36
 761 1582 761 1582 771 1585 c 1,37,38
 782 1580 782 1580 791.5 1566 c 128,-1,39
 801 1552 801 1552 801 1537 c 0,40,41
 801 1533 801 1533 800 1528.5 c 128,-1,42
 799 1524 799 1524 797.5 1515 c 128,-1,43
 796 1506 796 1506 793 1491.5 c 128,-1,44
 790 1477 790 1477 786 1453 c 1,45,46
 826 1422 826 1422 850 1422 c 0,47,48
 873 1422 873 1422 893 1485 c 2,49,-1
 916 1596 l 2,50,51
 920 1609 920 1609 924.5 1610.5 c 128,-1,52
 929 1612 929 1612 933.5 1608 c 128,-1,53
 938 1604 938 1604 942 1596.5 c 128,-1,54
 946 1589 946 1589 949 1583 c 1,55,-1
 957 1481 l 1,0,1
1457 272 m 1,56,57
 1460 219 1460 219 1447 167 c 128,-1,58
 1434 115 1434 115 1410 74 c 128,-1,59
 1386 33 1386 33 1352.5 7.5 c 128,-1,60
 1319 -18 1319 -18 1282 -18 c 0,61,62
 1227 -18 1227 -18 1189 -6 c 128,-1,63
 1151 6 1151 6 1124 27.5 c 128,-1,64
 1097 49 1097 49 1079 77 c 128,-1,65
 1061 105 1061 105 1047 137 c 128,-1,66
 1033 169 1033 169 1020.5 203 c 128,-1,67
 1008 237 1008 237 992 269 c 1,68,69
 986 213 986 213 958 152 c 128,-1,70
 930 91 930 91 888 39.5 c 128,-1,71
 846 -12 846 -12 794 -45.5 c 128,-1,72
 742 -79 742 -79 688 -79 c 0,73,74
 639 -79 639 -79 591 -53 c 128,-1,75
 543 -27 543 -27 504.5 13.5 c 128,-1,76
 466 54 466 54 442.5 103 c 128,-1,77
 419 152 419 152 419 198 c 1,78,79
 397 176 397 176 367 152.5 c 128,-1,80
 337 129 337 129 304.5 110 c 128,-1,81
 272 91 272 91 241 78.5 c 128,-1,82
 210 66 210 66 185 66 c 0,83,84
 149 66 149 66 116.5 78.5 c 128,-1,85
 84 91 84 91 59 111 c 128,-1,86
 34 131 34 131 19 156.5 c 128,-1,87
 4 182 4 182 4 208 c 0,88,89
 4 227 4 227 17 255.5 c 128,-1,90
 30 284 30 284 49 313 c 128,-1,91
 68 342 68 342 89 368 c 128,-1,92
 110 394 110 394 126 409 c 0,93,94
 180 454 180 454 233 487 c 128,-1,95
 286 520 286 520 341 543 c 0,96,97
 406 567 406 567 435 623 c 1,98,99
 445 636 445 636 467 810 c 0,100,101
 473 850 473 850 491 823 c 1,102,103
 501 797 501 797 507 779 c 128,-1,104
 513 761 513 761 516 748.5 c 128,-1,105
 519 736 519 736 519.5 726.5 c 128,-1,106
 520 717 520 717 520 708 c 0,107,108
 511 542 511 542 520 435 c 128,-1,109
 529 328 529 328 554 265.5 c 128,-1,110
 579 203 579 203 619 179 c 128,-1,111
 659 155 659 155 712 155 c 0,112,113
 772 155 772 155 810 172 c 128,-1,114
 848 189 848 189 873.5 220.5 c 128,-1,115
 899 252 899 252 916.5 296.5 c 128,-1,116
 934 341 934 341 954 396 c 1,117,118
 952 421 952 421 949 449.5 c 128,-1,119
 946 478 946 478 939 527 c 128,-1,120
 932 576 932 576 920.5 654 c 128,-1,121
 909 732 909 732 890 857 c 1,122,123
 889 841 889 841 890.5 848.5 c 128,-1,124
 892 856 892 856 895 875.5 c 128,-1,125
 898 895 898 895 903.5 922.5 c 128,-1,126
 909 950 909 950 915.5 975.5 c 128,-1,127
 922 1001 922 1001 930.5 1018.5 c 128,-1,128
 939 1036 939 1036 949 1036 c 0,129,130
 961 1036 961 1036 976 958 c 0,131,132
 1000 817 1000 817 1020 710.5 c 128,-1,133
 1040 604 1040 604 1059 525.5 c 128,-1,134
 1078 447 1078 447 1097.5 394 c 128,-1,135
 1117 341 1117 341 1139.5 307 c 128,-1,136
 1162 273 1162 273 1189.5 255 c 128,-1,137
 1217 237 1217 237 1252 229 c 0,138,139
 1269 227 1269 227 1283.5 226 c 128,-1,140
 1298 225 1298 225 1309 225 c 0,141,142
 1344 225 1344 225 1356 236 c 128,-1,143
 1368 247 1368 247 1368 268 c 0,144,145
 1368 275 1368 275 1366 285 c 128,-1,146
 1364 295 1364 295 1361 309 c 0,147,148
 1342 373 1342 373 1327.5 419 c 128,-1,149
 1313 465 1313 465 1301 494 c 0,150,151
 1266 599 1266 599 1242 675 c 128,-1,152
 1218 751 1218 751 1202.5 803.5 c 128,-1,153
 1187 856 1187 856 1179 888 c 128,-1,154
 1171 920 1171 920 1167 938.5 c 128,-1,155
 1163 957 1163 957 1162 964.5 c 128,-1,156
 1161 972 1161 972 1160 975 c 1,157,158
 1158 972 1158 972 1160.5 987.5 c 128,-1,159
 1163 1003 1163 1003 1169.5 1028 c 128,-1,160
 1176 1053 1176 1053 1185 1082 c 128,-1,161
 1194 1111 1194 1111 1206 1135 c 1,162,163
 1215 1134 1215 1134 1238 1092 c 128,-1,164
 1261 1050 1261 1050 1284 959 c 2,165,-1
 1457 272 l 1,56,57
416 330 m 1,166,-1
 416 465 l 1,167,168
 410 447 410 447 329 407 c 0,169,170
 267 377 267 377 233.5 360.5 c 128,-1,171
 200 344 200 344 183.5 335.5 c 128,-1,172
 167 327 167 327 163.5 324 c 128,-1,173
 160 321 160 321 159 318 c 1,174,175
 159 311 159 311 168.5 304.5 c 128,-1,176
 178 298 178 298 193 293.5 c 128,-1,177
 208 289 208 289 226.5 286 c 128,-1,178
 245 283 245 283 263 283 c 0,179,180
 280 283 280 283 297 285 c 128,-1,181
 314 287 314 287 333 290 c 1,182,-1
 416 330 l 1,166,-1
EndSplineSet
Ligature2: "'liga' Standard Ligatures in Arabic lookup 4 subtable" laminitial lammedial hehfinal
EndChar

StartChar: fathatanisolated
Encoding: 65136 65136 73
Width: 530
Flags: W
LayerCount: 2
Fore
SplineSet
530 2527 m 1,0,1
 530 2440 530 2440 485 2415 c 2,2,-1
 91 2192 l 1,3,4
 92 2219 92 2219 96 2238 c 128,-1,5
 100 2257 100 2257 109.5 2271 c 128,-1,6
 119 2285 119 2285 135 2297 c 128,-1,7
 151 2309 151 2309 177 2323 c 2,8,-1
 530 2527 l 1,0,1
530 2337 m 1,9,10
 530 2250 530 2250 485 2226 c 2,11,-1
 91 2002 l 1,12,13
 92 2030 92 2030 96 2049 c 128,-1,14
 100 2068 100 2068 109.5 2082 c 128,-1,15
 119 2096 119 2096 135 2107.5 c 128,-1,16
 151 2119 151 2119 177 2133 c 2,17,-1
 530 2337 l 1,9,10
EndSplineSet
EndChar

StartChar: tatweelwithfathatanabove
Encoding: 65137 65137 74
Width: 1669
Flags: W
LayerCount: 2
Fore
SplineSet
1054 1864 m 1,0,1
 1054 1777 1054 1777 1009 1752 c 2,2,-1
 615 1529 l 1,3,4
 616 1557 616 1557 620 1576 c 128,-1,5
 624 1595 624 1595 633.5 1609 c 128,-1,6
 643 1623 643 1623 659 1634.5 c 128,-1,7
 675 1646 675 1646 701 1660 c 2,8,-1
 1054 1864 l 1,0,1
1054 1674 m 1,9,10
 1054 1587 1054 1587 1009 1563 c 2,11,-1
 615 1339 l 1,12,13
 616 1367 616 1367 620 1386 c 128,-1,14
 624 1405 624 1405 633.5 1419 c 128,-1,15
 643 1433 643 1433 659 1444.5 c 128,-1,16
 675 1456 675 1456 701 1470 c 2,17,-1
 1054 1674 l 1,9,10
1760 168 m 1,18,-1
 0 168 l 1,19,-1
 0 325 l 1,20,-1
 1760 325 l 1,21,-1
 1760 168 l 1,18,-1
EndSplineSet
Ligature2: "'liga' Standard Ligatures in Arabic lookup 4 subtable" tatweel fathatan
EndChar

StartChar: dammatanisolated
Encoding: 65138 65138 75
Width: 602
Flags: W
LayerCount: 2
Fore
SplineSet
602 2161 m 0,0,1
 602 2115 602 2115 599 2084 c 1,2,3
 573 2098 573 2098 543.5 2117 c 128,-1,4
 514 2136 514 2136 480 2161 c 1,5,6
 316 1993 316 1993 168 1972 c 1,7,8
 224 2086 224 2086 224 2140 c 0,9,10
 224 2211 224 2211 160 2211 c 0,11,12
 106 2211 106 2211 96 2112 c 1,13,14
 83 2137 83 2137 83 2180 c 0,15,16
 83 2210 83 2210 91.5 2236 c 128,-1,17
 100 2262 100 2262 114.5 2281.5 c 128,-1,18
 129 2301 129 2301 149 2312 c 128,-1,19
 169 2323 169 2323 192 2323 c 0,20,21
 234 2323 234 2323 259 2291 c 128,-1,22
 284 2259 284 2259 279 2193 c 2,23,-1
 272 2073 l 1,24,25
 357 2108 357 2108 433 2190 c 1,26,27
 347 2247 347 2247 347 2313 c 0,28,29
 347 2346 347 2346 361.5 2380 c 128,-1,30
 376 2414 376 2414 399.5 2441.5 c 128,-1,31
 423 2469 423 2469 451 2486.5 c 128,-1,32
 479 2504 479 2504 506 2504 c 0,33,34
 520 2504 520 2504 535.5 2494 c 128,-1,35
 551 2484 551 2484 564 2469 c 128,-1,36
 577 2454 577 2454 585.5 2435.5 c 128,-1,37
 594 2417 594 2417 594 2400 c 0,38,39
 594 2361 594 2361 580 2324.5 c 128,-1,40
 566 2288 566 2288 551 2252 c 1,41,42
 602 2213 602 2213 602 2161 c 0,0,1
503 2348 m 0,43,44
 503 2417 503 2417 450 2417 c 0,45,46
 416 2417 416 2417 416 2387 c 0,47,48
 416 2354 416 2354 498 2297 c 1,49,50
 503 2307 503 2307 503 2348 c 0,43,44
EndSplineSet
EndChar

StartChar: kasratanisolated
Encoding: 65140 65140 76
Width: 530
Flags: W
LayerCount: 2
Fore
SplineSet
530 -806 m 1,0,1
 530 -893 530 -893 485 -918 c 2,2,-1
 91 -1141 l 1,3,4
 92 -1114 92 -1114 96 -1095.5 c 128,-1,5
 100 -1077 100 -1077 109 -1063 c 128,-1,6
 118 -1049 118 -1049 134.5 -1036.5 c 128,-1,7
 151 -1024 151 -1024 177 -1010 c 2,8,-1
 530 -806 l 1,0,1
530 -997 m 1,9,10
 530 -1084 530 -1084 485 -1109 c 2,11,-1
 91 -1333 l 1,12,13
 92 -1305 92 -1305 96 -1286.5 c 128,-1,14
 100 -1268 100 -1268 109.5 -1254 c 128,-1,15
 119 -1240 119 -1240 135 -1228 c 128,-1,16
 151 -1216 151 -1216 177 -1201 c 2,17,-1
 530 -997 l 1,9,10
EndSplineSet
EndChar

StartChar: fathaisolated
Encoding: 65142 65142 77
Width: 530
Flags: W
LayerCount: 2
Fore
SplineSet
455 2163 m 1,0,1
 455 2092 455 2092 417 2071 c 2,2,-1
 91 1885 l 1,3,4
 92 1908 92 1908 96 1923.5 c 128,-1,5
 100 1939 100 1939 108 1951 c 128,-1,6
 116 1963 116 1963 129 1972.5 c 128,-1,7
 142 1982 142 1982 162 1994 c 2,8,-1
 455 2163 l 1,0,1
EndSplineSet
EndChar

StartChar: fathamedial
Encoding: 65143 65143 78
Width: 1669
Flags: W
LayerCount: 2
Fore
SplineSet
1054 1674 m 1,0,1
 1054 1587 1054 1587 1009 1563 c 2,2,-1
 615 1339 l 1,3,4
 616 1367 616 1367 620 1386 c 128,-1,5
 624 1405 624 1405 633.5 1419 c 128,-1,6
 643 1433 643 1433 659 1444.5 c 128,-1,7
 675 1456 675 1456 701 1470 c 2,8,-1
 1054 1674 l 1,0,1
1760 168 m 1,9,-1
 0 168 l 1,10,-1
 0 325 l 1,11,-1
 1760 325 l 1,12,-1
 1760 168 l 1,9,-1
EndSplineSet
Ligature2: "'liga' Standard Ligatures in Arabic lookup 4 subtable" tatweel fatha
EndChar

StartChar: dammaisolated
Encoding: 65144 65144 79
Width: 497
Flags: W
LayerCount: 2
Fore
SplineSet
372 2075 m 1,0,-1
 363 1969 l 1,1,-1
 278 2025 l 1,2,3
 149 1872 149 1872 68 1872 c 0,4,5
 30 1872 30 1872 5 1885 c 1,6,7
 60 1915 60 1915 116.5 1956 c 128,-1,8
 173 1997 173 1997 233 2051 c 1,9,10
 168 2099 168 2099 168 2146 c 0,11,12
 168 2169 168 2169 176.5 2200 c 128,-1,13
 185 2231 185 2231 200.5 2259 c 128,-1,14
 216 2287 216 2287 239 2306.5 c 128,-1,15
 262 2326 262 2326 291 2326 c 0,16,17
 363 2326 363 2326 363 2232 c 0,18,19
 363 2171 363 2171 330 2107 c 1,20,21
 338 2102 338 2102 348.5 2094 c 128,-1,22
 359 2086 359 2086 372 2075 c 1,0,-1
298 2170 m 0,23,24
 298 2182 298 2182 293 2193.5 c 128,-1,25
 288 2205 288 2205 280 2214 c 128,-1,26
 272 2223 272 2223 261.5 2229 c 128,-1,27
 251 2235 251 2235 240 2235 c 0,28,29
 221 2235 221 2235 221 2213 c 0,30,31
 221 2179 221 2179 291 2133 c 1,32,33
 294 2148 294 2148 296 2156.5 c 128,-1,34
 298 2165 298 2165 298 2170 c 0,23,24
EndSplineSet
EndChar

StartChar: dammamedial
Encoding: 65145 65145 80
Width: 1669
Flags: W
LayerCount: 2
Fore
SplineSet
1058 1587 m 1,0,-1
 1048 1459 l 1,1,-1
 944 1526 l 1,2,3
 788 1339 788 1339 688 1339 c 0,4,5
 660 1339 660 1339 611 1355 c 1,6,7
 743 1429 743 1429 888 1557 c 1,8,9
 809 1615 809 1615 809 1674 c 0,10,11
 809 1701 809 1701 819.5 1738.5 c 128,-1,12
 830 1776 830 1776 849.5 1810.5 c 128,-1,13
 869 1845 869 1845 896.5 1869 c 128,-1,14
 924 1893 924 1893 959 1893 c 0,15,16
 1048 1893 1048 1893 1048 1778 c 0,17,18
 1048 1713 1048 1713 1007 1626 c 1,19,20
 1025 1612 1025 1612 1058 1587 c 1,0,-1
967 1702 m 0,21,22
 967 1717 967 1717 961.5 1731 c 128,-1,23
 956 1745 956 1745 946.5 1756.5 c 128,-1,24
 937 1768 937 1768 924.5 1774.5 c 128,-1,25
 912 1781 912 1781 898 1781 c 0,26,27
 875 1781 875 1781 875 1755 c 0,28,29
 875 1714 875 1714 959 1657 c 1,30,31
 967 1681 967 1681 967 1702 c 0,21,22
1760 168 m 1,32,-1
 0 168 l 1,33,-1
 0 325 l 1,34,-1
 1760 325 l 1,35,-1
 1760 168 l 1,32,-1
EndSplineSet
Ligature2: "'liga' Standard Ligatures in Arabic lookup 4 subtable" tatweel damma
EndChar

StartChar: kasraisolated
Encoding: 65146 65146 81
Width: 530
Flags: W
LayerCount: 2
Fore
SplineSet
530 -936 m 1,0,1
 530 -1023 530 -1023 485 -1048 c 2,2,-1
 91 -1271 l 1,3,4
 92 -1243 92 -1243 96 -1224.5 c 128,-1,5
 100 -1206 100 -1206 109.5 -1192 c 128,-1,6
 119 -1178 119 -1178 135 -1166.5 c 128,-1,7
 151 -1155 151 -1155 177 -1140 c 2,8,-1
 530 -936 l 1,0,1
EndSplineSet
EndChar

StartChar: kasramedial
Encoding: 65147 65147 82
Width: 1669
Flags: W
LayerCount: 2
Fore
SplineSet
1054 -92 m 1,0,1
 1054 -179 1054 -179 1009 -204 c 2,2,-1
 615 -428 l 1,3,4
 616 -401 616 -401 620 -382 c 128,-1,5
 624 -363 624 -363 633 -348.5 c 128,-1,6
 642 -334 642 -334 658.5 -322 c 128,-1,7
 675 -310 675 -310 701 -296 c 2,8,-1
 1054 -92 l 1,0,1
1760 168 m 1,9,-1
 0 168 l 1,10,-1
 0 325 l 1,11,-1
 1760 325 l 1,12,-1
 1760 168 l 1,9,-1
EndSplineSet
Ligature2: "'liga' Standard Ligatures in Arabic lookup 4 subtable" tatweel kasra
EndChar

StartChar: shaddaisolated
Encoding: 65148 65148 83
Width: 546
Flags: W
LayerCount: 2
Fore
SplineSet
546 2292 m 0,0,1
 546 2073 546 2073 411 2073 c 0,2,3
 365 2073 365 2073 328 2101 c 1,4,5
 322 2078 322 2078 308.5 2058 c 128,-1,6
 295 2038 295 2038 276.5 2022.5 c 128,-1,7
 258 2007 258 2007 236 1998 c 128,-1,8
 214 1989 214 1989 192 1989 c 0,9,10
 86 1989 86 1989 86 2129 c 0,11,12
 86 2181 86 2181 114 2261 c 1,13,-1
 144 2266 l 1,14,15
 144 2122 144 2122 195 2122 c 0,16,17
 279 2122 279 2122 312 2332 c 1,18,-1
 335 2340 l 1,19,20
 365 2213 365 2213 411 2213 c 0,21,22
 486 2213 486 2213 498 2404 c 1,23,-1
 528 2417 l 1,24,25
 536 2362 536 2362 541 2331.5 c 128,-1,26
 546 2301 546 2301 546 2292 c 0,0,1
EndSplineSet
EndChar

StartChar: shaddamedial
Encoding: 65149 65149 84
Width: 1669
Flags: W
LayerCount: 2
Fore
SplineSet
1065 1642 m 0,0,1
 1065 1423 1065 1423 929 1423 c 0,2,3
 884 1423 884 1423 846 1451 c 1,4,5
 841 1428 841 1428 827.5 1408 c 128,-1,6
 814 1388 814 1388 795.5 1372.5 c 128,-1,7
 777 1357 777 1357 755 1348 c 128,-1,8
 733 1339 733 1339 711 1339 c 0,9,10
 604 1339 604 1339 604 1479 c 0,11,12
 604 1506 604 1506 633 1611 c 1,13,-1
 663 1616 l 1,14,15
 663 1472 663 1472 714 1472 c 0,16,17
 798 1472 798 1472 831 1682 c 1,18,-1
 854 1690 l 1,19,20
 884 1563 884 1563 929 1563 c 0,21,22
 1005 1563 1005 1563 1017 1754 c 1,23,-1
 1046 1767 l 1,24,25
 1055 1729 1055 1729 1060 1697.5 c 128,-1,26
 1065 1666 1065 1666 1065 1642 c 0,0,1
1760 168 m 1,27,-1
 0 168 l 1,28,-1
 0 325 l 1,29,-1
 1760 325 l 1,30,-1
 1760 168 l 1,27,-1
EndSplineSet
Ligature2: "'liga' Standard Ligatures in Arabic lookup 4 subtable" tatweel shadda
EndChar

StartChar: sukunisolated
Encoding: 65150 65150 85
Width: 432
Flags: W
LayerCount: 2
Fore
SplineSet
432 2228 m 0,0,1
 432 2187 432 2187 415.5 2148.5 c 128,-1,2
 399 2110 399 2110 371.5 2080.5 c 128,-1,3
 344 2051 344 2051 308.5 2033 c 128,-1,4
 273 2015 273 2015 235 2015 c 0,5,6
 96 2015 96 2015 96 2172 c 0,7,8
 96 2225 96 2225 109 2270.5 c 128,-1,9
 122 2316 122 2316 145.5 2349.5 c 128,-1,10
 169 2383 169 2383 201.5 2402 c 128,-1,11
 234 2421 234 2421 274 2421 c 0,12,13
 303 2421 303 2421 331.5 2404.5 c 128,-1,14
 360 2388 360 2388 382.5 2361 c 128,-1,15
 405 2334 405 2334 418.5 2299.5 c 128,-1,16
 432 2265 432 2265 432 2228 c 0,0,1
360 2197 m 0,17,18
 360 2213 360 2213 344 2232.5 c 128,-1,19
 328 2252 328 2252 305.5 2269 c 128,-1,20
 283 2286 283 2286 258.5 2297.5 c 128,-1,21
 234 2309 234 2309 216 2309 c 0,22,23
 139 2309 139 2309 139 2220 c 0,24,25
 139 2144 139 2144 259 2144 c 0,26,27
 360 2144 360 2144 360 2197 c 0,17,18
EndSplineSet
EndChar

StartChar: sukunmedial
Encoding: 65151 65151 86
Width: 1669
Flags: W
LayerCount: 2
Fore
SplineSet
1002 1552 m 0,0,1
 1002 1511 1002 1511 985.5 1472.5 c 128,-1,2
 969 1434 969 1434 942 1404.5 c 128,-1,3
 915 1375 915 1375 879.5 1357 c 128,-1,4
 844 1339 844 1339 806 1339 c 0,5,6
 667 1339 667 1339 667 1496 c 0,7,8
 667 1549 667 1549 680 1594.5 c 128,-1,9
 693 1640 693 1640 716 1673.5 c 128,-1,10
 739 1707 739 1707 772 1726 c 128,-1,11
 805 1745 805 1745 845 1745 c 0,12,13
 874 1745 874 1745 902.5 1728.5 c 128,-1,14
 931 1712 931 1712 953 1685 c 128,-1,15
 975 1658 975 1658 988.5 1623.5 c 128,-1,16
 1002 1589 1002 1589 1002 1552 c 0,0,1
931 1521 m 0,17,18
 931 1537 931 1537 915 1556.5 c 128,-1,19
 899 1576 899 1576 876 1593 c 128,-1,20
 853 1610 853 1610 828.5 1621.5 c 128,-1,21
 804 1633 804 1633 786 1633 c 0,22,23
 710 1633 710 1633 710 1544 c 0,24,25
 710 1468 710 1468 829 1468 c 0,26,27
 931 1468 931 1468 931 1521 c 0,17,18
1760 168 m 1,28,-1
 0 168 l 1,29,-1
 0 325 l 1,30,-1
 1760 325 l 1,31,-1
 1760 168 l 1,28,-1
EndSplineSet
Ligature2: "'liga' Standard Ligatures in Arabic lookup 4 subtable" tatweel sukun
EndChar

StartChar: hamzaisolated
Encoding: 65152 65152 87
Width: 871
Flags: W
AnchorPoint: "ArabicBelow" 435 -260 basechar 0
AnchorPoint: "ArabicAbove" 435 856 basechar 0
LayerCount: 2
Fore
SplineSet
660 526 m 1,0,1
 652 483 652 483 629 447 c 128,-1,2
 606 411 606 411 578 385 c 1,3,4
 563 388 563 388 550.5 395.5 c 128,-1,5
 525.5 410.5 l 128,-1,6
 513 418 513 418 500 424 c 128,-1,7
 487 430 487 430 479.5 430 c 128,-1,8
 472 430 472 430 462.5 427.5 c 128,-1,9
 453 425 453 425 434 420 c 1,10,11
 427 412 427 412 417 405 c 128,-1,12
 407 398 407 398 398 390.5 c 128,-1,13
 389 383 389 383 382.5 375.5 c 128,-1,14
 376 368 376 368 376 359 c 0,15,16
 376 347 376 347 386 337 c 0,17,18
 421 291 421 291 466.5 275 c 128,-1,19
 512 259 512 259 563 259 c 0,20,21
 618 259 618 259 674 268.5 c 128,-1,22
 730 278 730 278 785 278 c 2,23,-1
 806 278 l 2,24,25
 811 278 811 278 816 277.5 c 128,-1,26
 821 277 821 277 828 276 c 0,27,28
 849 270 849 270 849 253 c 0,29,30
 849 242 849 242 842.5 231 c 128,-1,31
 836 220 836 220 829 209 c 2,32,-1
 827 205 l 2,33,34
 808 173 808 173 780 155 c 128,-1,35
 752 137 752 137 719 128 c 128,-1,36
 686 119 686 119 650 116 c 128,-1,37
 578 110 l 128,-1,38
 542 107 542 107 507.5 101.5 c 128,-1,39
 473 96 473 96 443 82 c 0,40,41
 420 70 420 70 400 54 c 128,-1,42
 380 38 380 38 361 24 c 128,-1,43
 342 10 342 10 322 0 c 128,-1,44
 302 -10 302 -10 279 -10 c 1,45,46
 278 -9 278 -9 278 1 c 0,47,48
 278 17 278 17 284.5 32 c 128,-1,49
 291 47 291 47 299.5 61 c 128,-1,50
 308 75 308 75 314.5 89.5 c 128,-1,51
 321 104 321 104 321 120 c 256,52,53
 321 136 321 136 316 144 c 1,54,55
 298 162 298 162 278 178 c 128,-1,56
 258 194 258 194 240.5 210.5 c 128,-1,57
 223 227 223 227 212 245 c 128,-1,58
 201 263 201 263 201 285 c 0,59,60
 201 312 201 312 233 350 c 0,61,62
 260 382 260 382 295.5 426 c 128,-1,63
 331 470 331 470 371.5 510 c 128,-1,64
 412 550 412 550 455 578 c 128,-1,65
 498 606 498 606 541 606 c 0,66,67
 572 606 572 606 602 588.5 c 128,-1,68
 632 571 632 571 660 526 c 1,0,1
EndSplineSet
EndChar

StartChar: alefwithmaddaaboveisolated
Encoding: 65153 65153 88
Width: 620
Flags: W
AnchorPoint: "ArabicBelow" 310 -245 basechar 0
AnchorPoint: "ArabicAbove" 310 2191 basechar 0
LayerCount: 2
Fore
SplineSet
694 1912 m 2,0,1
 650 1873 650 1873 601.5 1835.5 c 128,-1,2
 553 1798 553 1798 502.5 1767 c 128,-1,3
 452 1736 452 1736 400 1714 c 128,-1,4
 348 1692 348 1692 296.5 1683.5 c 128,-1,5
 245 1675 245 1675 195 1682.5 c 128,-1,6
 145 1690 145 1690 99 1719 c 1,7,-1
 5 1648 l 1,8,9
 -8 1648 -8 1648 -17 1655.5 c 128,-1,10
 -26 1663 -26 1663 -31 1686 c 1,11,12
 -3 1732 -3 1732 15.5 1761 c 128,-1,13
 34 1790 34 1790 46 1806 c 128,-1,14
 58 1822 58 1822 64.5 1828 c 128,-1,15
 71 1834 71 1834 74 1834 c 1,16,17
 135 1806 135 1806 167 1796.5 c 128,-1,18
 199 1787 199 1787 222 1787 c 0,19,20
 233 1787 233 1787 248 1789 c 128,-1,21
 263 1791 263 1791 285.5 1796.5 c 128,-1,22
 308 1802 308 1802 341.5 1812.5 c 128,-1,23
 375 1823 375 1823 423.5 1840 c 128,-1,24
 472 1857 472 1857 538.5 1881.5 c 128,-1,25
 605 1906 605 1906 694 1941 c 1,26,-1
 718 1934 l 1,27,-1
 694 1912 l 2,0,1
292 1339 m 0,28,29
 292 1373 292 1373 293.5 1416 c 128,-1,30
 295 1459 295 1459 293 1495.5 c 128,-1,31
 291 1532 291 1532 283.5 1554.5 c 128,-1,32
 276 1577 276 1577 259 1572 c 1,33,34
 241 1558 241 1558 226.5 1533 c 128,-1,35
 212 1508 212 1508 199 1479.5 c 128,-1,36
 186 1451 186 1451 174 1422.5 c 128,-1,37
 162 1394 162 1394 149 1373 c 1,38,39
 158 1179 158 1179 161 1007.5 c 128,-1,40
 164 836 164 836 164.5 672.5 c 128,-1,41
 165 509 165 509 164.5 345.5 c 128,-1,42
 164 182 164 182 166 5 c 1,43,44
 173 6 173 6 182.5 19 c 128,-1,45
 192 32 192 32 202.5 51.5 c 128,-1,46
 213 71 213 71 224 95 c 128,-1,47
 235 119 235 119 246 142 c 1,48,49
 257 202 257 202 266 256 c 128,-1,50
 275 310 275 310 282 365 c 0,51,52
 298 498 298 498 299.5 616 c 128,-1,53
 301 734 301 734 297 849.5 c 128,-1,54
 293 965 293 965 289.5 1084.5 c 128,-1,55
 286 1204 286 1204 292 1339 c 0,28,29
EndSplineSet
EndChar

